<svg width="100" height="100" viewBox="0 0 100 100" fill="none" xmlns="http://www.w3.org/2000/svg">
<path d="M98.3334 99.999H65.0004C64.5584 99.999 64.1344 99.8234 63.8219 99.5109C63.5093 99.1983 63.3337 98.7744 63.3337 98.3324V93.3324H66.667V96.6657H96.6667V66.666H70.0003V63.3327H98.3334C98.7754 63.3327 99.1993 63.5083 99.5119 63.8209C99.8245 64.1334 100 64.5573 100 64.9994V98.3324C100 98.7744 99.8245 99.1983 99.5119 99.5109C99.1993 99.8234 98.7754 99.999 98.3334 99.999ZM65.8173 16.7759L69.1506 14.8005L70.8499 17.6682L67.5166 19.6433L65.8173 16.7759Z" fill="black"/>
<path d="M80.0002 73.3326H71.6669C70.3413 73.3311 69.0704 72.8039 68.1331 71.8665C67.1957 70.9292 66.6685 69.6583 66.667 68.3327V60.5188C67.7556 58.8841 68.3356 56.9635 68.3336 54.9995V38.495L82.5404 29.7524C82.7828 29.6032 82.9829 29.3945 83.1218 29.146C83.2606 28.8976 83.3335 28.6177 83.3335 28.3331V8.33325C83.3335 8.11438 83.2904 7.89765 83.2067 7.69543C83.1229 7.49322 83.0002 7.30948 82.8454 7.15472L76.1788 0.48812L76.1771 0.489787C76.0228 0.334785 75.8394 0.211741 75.6375 0.127697C75.4355 0.043653 75.219 0.00025953 75.0002 0H45.0005C44.6921 8.19308e-06 44.3897 0.0856143 44.127 0.247289L0.794098 26.9137C0.57938 27.0451 0.397337 27.2237 0.261715 27.4358C0.126094 27.6479 0.0404418 27.888 0.0112266 28.1381C-0.0179886 28.3881 0.00999735 28.6415 0.0930709 28.8792C0.176144 29.1169 0.312133 29.3325 0.490768 29.5099L0.489101 29.5116L6.37759 35.4001C5.32444 37.6848 4.86323 40.1978 5.03646 42.7076C5.20969 45.2174 6.01178 47.6433 7.36883 49.7617C8.72588 51.88 10.5942 53.6228 12.8018 54.8294C15.0093 56.036 17.485 56.6677 20.0008 56.6661H38.3339C38.6424 56.6661 38.9448 56.5805 39.2075 56.4188L48.3338 50.8026V54.9995C48.3319 56.9635 48.9119 58.8841 50.0005 60.5188V69.9993C50.0065 75.3018 52.1156 80.3853 55.8649 84.1347C59.6143 87.8841 64.6979 89.9931 70.0003 89.9991H80.0002C82.2103 89.9991 84.3299 89.1212 85.8927 87.5584C87.4555 85.9956 88.3335 83.876 88.3335 81.6659C88.3335 79.4558 87.4555 77.3362 85.8927 75.7734C84.3299 74.2106 82.2103 73.3326 80.0002 73.3326ZM51.6671 54.9995V48.7516L65.0003 40.5463V54.9995C65.0003 56.7676 64.298 58.4632 63.0477 59.7135C61.7975 60.9637 60.1018 61.6661 58.3337 61.6661C56.5657 61.6661 54.87 60.9637 53.6197 59.7135C52.3695 58.4632 51.6671 56.7676 51.6671 54.9995ZM45.4722 3.3333H69.112L31.1957 26.6664H7.55591L45.4722 3.3333ZM5.69134 29.9997H10.5871C9.68701 30.728 8.8735 31.5572 8.16257 32.4711L5.69134 29.9997ZM20.0008 53.3328C18.197 53.3341 16.4174 52.9171 14.8019 52.1146C13.1864 51.3121 11.779 50.1459 10.6903 48.7077C9.6016 47.2695 8.86121 45.5984 8.52732 43.8257C8.19344 42.0531 8.27515 40.2271 8.76604 38.4914C9.25693 36.7556 10.1436 35.1573 11.3565 33.8221C12.5693 32.4869 14.0752 31.451 15.7559 30.796C17.4366 30.141 19.2463 29.8847 21.0428 30.0471C22.8394 30.2095 24.5737 30.7863 26.1097 31.7322C25.7416 31.6886 25.3714 31.6666 25.0007 31.6664C22.3486 31.6664 19.8051 32.7199 17.9297 34.5953C16.0544 36.4706 15.0008 39.0141 15.0008 41.6663C15.0008 44.3184 16.0544 46.8619 17.9297 48.7373C19.8051 50.6126 22.3486 51.6662 25.0007 51.6662C25.3714 51.6659 25.7416 51.6439 26.1097 51.6003C24.2743 52.735 22.1586 53.335 20.0008 53.3328ZM25.0007 48.3329C24.0546 48.3325 23.1193 48.1307 22.2571 47.741C21.3949 47.3512 20.6256 46.7824 20.0003 46.0723C19.3749 45.3623 18.9079 44.5272 18.6302 43.6227C18.3525 42.7182 18.2706 41.7649 18.3898 40.8263C18.509 39.8876 18.8267 38.9851 19.3216 38.1787C19.8166 37.3724 20.4776 36.6806 21.2606 36.1494C22.0436 35.6182 22.9307 35.2598 23.8629 35.0979C24.7952 34.9361 25.7512 34.9745 26.6674 35.2107C25.2365 35.5805 23.9689 36.4152 23.064 37.5837C22.1591 38.7523 21.668 40.1883 21.668 41.6663C21.668 43.1442 22.1591 44.5803 23.064 45.7488C23.9689 46.9173 25.2365 47.752 26.6674 48.1218C26.123 48.2623 25.563 48.3332 25.0007 48.3329ZM25.0007 41.6663C25.0007 41.007 25.1962 40.3625 25.5625 39.8144C25.9288 39.2662 26.4494 38.839 27.0584 38.5867C27.6675 38.3344 28.3377 38.2684 28.9843 38.397C29.6309 38.5256 30.2249 38.8431 30.691 39.3093C31.1572 39.7754 31.4747 40.3694 31.6033 41.016C31.7319 41.6626 31.6659 42.3328 31.4136 42.9419C31.1613 43.5509 30.7341 44.0715 30.1859 44.4378C29.6378 44.8041 28.9933 44.9996 28.334 44.9996C27.4503 44.9986 26.603 44.6471 25.9781 44.0222C25.3532 43.3973 25.0017 42.55 25.0007 41.6663ZM36.6673 53.3328H29.4142C31.1582 51.9294 32.5653 50.1528 33.532 48.1338C34.4988 46.1148 35.0007 43.9048 35.0007 41.6663C35.0007 39.4277 34.4988 37.2177 33.532 35.1987C32.5653 33.1797 31.1582 31.4032 29.4142 29.9997H30.9771L36.6673 35.6899V53.3328ZM40.0006 52.017V35.9494L64.496 21.4335L62.7964 18.5661L38.5975 32.9061L34.3379 28.6466L74.7528 3.776L80.0002 9.02345V27.4018L40.0006 52.017ZM80.0002 86.6658H70.0003C65.5816 86.6609 61.3453 84.9033 58.2208 81.7788C55.0963 78.6543 53.3388 74.418 53.3338 69.9993V63.654C54.8528 64.5352 56.5777 64.9993 58.3337 64.9993C60.0898 64.9993 61.8147 64.5352 63.3337 63.654V68.3327C63.3362 70.542 64.2149 72.6602 65.7772 74.2224C67.3394 75.7847 69.4576 76.6634 71.6669 76.6659H80.0002C81.3263 76.6659 82.598 77.1927 83.5357 78.1304C84.4734 79.068 85.0002 80.3398 85.0002 81.6659C85.0002 82.9919 84.4734 84.2637 83.5357 85.2014C82.598 86.139 81.3263 86.6658 80.0002 86.6658Z" fill="black"/>
<path d="M58.3337 59.9994C59.3226 59.9994 60.2893 59.7062 61.1115 59.1568C61.9338 58.6074 62.5746 57.8265 62.953 56.9129C63.3315 55.9992 63.4305 54.9939 63.2376 54.024C63.0446 53.0541 62.5684 52.1632 61.8692 51.464C61.1699 50.7647 60.279 50.2885 59.3091 50.0956C58.3392 49.9027 57.3339 50.0017 56.4203 50.3801C55.5067 50.7585 54.7258 51.3994 54.1764 52.2216C53.627 53.0439 53.3337 54.0106 53.3337 54.9995C53.3352 56.3251 53.8625 57.596 54.7998 58.5333C55.7372 59.4707 57.0081 59.9979 58.3337 59.9994ZM58.3337 53.3328C58.6633 53.3328 58.9856 53.4306 59.2596 53.6137C59.5337 53.7968 59.7473 54.0571 59.8735 54.3617C59.9996 54.6662 60.0326 55.0013 59.9683 55.3246C59.904 55.6479 59.7453 55.9449 59.5122 56.178C59.2791 56.4111 58.9821 56.5698 58.6588 56.6341C58.3355 56.6984 58.0004 56.6654 57.6959 56.5392C57.3914 56.4131 57.1311 56.1995 56.9479 55.9254C56.7648 55.6513 56.667 55.3291 56.667 54.9995C56.6676 54.5576 56.8434 54.134 57.1558 53.8216C57.4682 53.5091 57.8918 53.3334 58.3337 53.3328Z" fill="black"/>
</svg>
