<svg width="50" height="39" viewBox="0 0 50 39" fill="none" xmlns="http://www.w3.org/2000/svg">
<path d="M45.6896 0.862068H4.31034C2.40591 0.862068 0.862061 2.40591 0.862061 4.31034V30.1724C0.862061 32.0768 2.40591 33.6207 4.31034 33.6207H45.6896C47.5941 33.6207 49.1379 32.0768 49.1379 30.1724V4.31034C49.1379 2.40591 47.5941 0.862068 45.6896 0.862068Z" fill="#82CEFF"/>
<path d="M38.7931 33.6207H45.6896V37.931H38.7931V33.6207ZM11.2069 37.931H4.3103V33.6207H11.2069V37.931Z" fill="#7F7F7F"/>
<path d="M16.3793 29.3103C23.0448 29.3103 28.4482 23.9069 28.4482 17.2414C28.4482 10.5759 23.0448 5.17241 16.3793 5.17241C9.71376 5.17241 4.3103 10.5759 4.3103 17.2414C4.3103 23.9069 9.71376 29.3103 16.3793 29.3103Z" fill="white"/>
<path d="M16.6406 8.42069C16.009 8.38535 15.3777 8.49492 14.795 8.74101C14.2123 8.9871 13.6936 9.36319 13.2785 9.84052C12.9572 10.1908 12.7379 10.6224 12.6443 11.0884C12.5507 11.5545 12.5864 12.0373 12.7475 12.4845L14.4975 17.2414H17.9027V15.431C18.0438 14.653 18.3552 13.9159 18.8147 13.2724C19.7285 11.9491 20.1682 11.531 20.1682 10.6259C20.1682 9.61379 18.8458 8.42069 16.6406 8.42069Z" fill="#82CEFF"/>
<path d="M8.61035 21.425C8.89545 21.9896 9.30591 22.4816 9.81035 22.8632C10.3148 23.2448 10.8998 23.506 11.5207 23.6267C11.9847 23.7298 12.4681 23.704 12.9185 23.552C13.3689 23.4001 13.7691 23.1278 14.0759 22.7647L17.3207 18.8716L15.6172 15.9224L14.05 16.8276C13.3056 17.0948 12.5114 17.1941 11.7241 17.1181C10.1216 16.9888 9.5388 16.8164 8.75518 17.2681C7.87931 17.7733 7.50776 19.5155 8.61035 21.425Z" fill="#82CEFF"/>
<path d="M23.887 21.8776C24.2334 21.3485 24.4541 20.7471 24.5324 20.1196C24.6107 19.492 24.5445 18.8549 24.3387 18.2569C24.1962 17.8033 23.9322 17.3974 23.5754 17.0832C23.2186 16.7689 22.7826 16.5583 22.3146 16.4741L17.3206 15.6112L15.6172 18.5603L17.1844 19.4655C17.7881 19.9765 18.2712 20.6147 18.5991 21.3345C19.2887 22.7871 19.4301 23.3784 20.2137 23.831C21.0896 24.3371 22.7844 23.7879 23.887 21.8776Z" fill="#82CEFF"/>
<path d="M16.3793 20.6897C18.2837 20.6897 19.8276 19.1458 19.8276 17.2414C19.8276 15.3369 18.2837 13.7931 16.3793 13.7931C14.4749 13.7931 12.931 15.3369 12.931 17.2414C12.931 19.1458 14.4749 20.6897 16.3793 20.6897Z" fill="#ACDBED"/>
<path d="M45.6897 0H4.31034C3.16759 0.00136884 2.07203 0.455933 1.26398 1.26398C0.455933 2.07203 0.00136884 3.16759 0 4.31034V30.1724C0.00129065 31.1656 0.344973 32.1279 0.973111 32.8973C1.60125 33.6666 2.47543 34.1958 3.44828 34.3957V37.931C3.44828 38.1597 3.5391 38.3789 3.70077 38.5406C3.86244 38.7023 4.08171 38.7931 4.31034 38.7931H11.2069C11.4355 38.7931 11.6548 38.7023 11.8165 38.5406C11.9781 38.3789 12.069 38.1597 12.069 37.931V34.4828H37.931V37.931C37.931 38.1597 38.0219 38.3789 38.1835 38.5406C38.3452 38.7023 38.5645 38.7931 38.7931 38.7931H45.6897C45.9183 38.7931 46.1376 38.7023 46.2992 38.5406C46.4609 38.3789 46.5517 38.1597 46.5517 37.931V34.3957C47.5246 34.1958 48.3987 33.6666 49.0269 32.8973C49.655 32.1279 49.9987 31.1656 50 30.1724V4.31034C49.9986 3.16759 49.5441 2.07203 48.736 1.26398C47.928 0.455933 46.8324 0.00136884 45.6897 0ZM10.3448 37.069H5.17241V34.4828H10.3448V37.069ZM39.6552 37.069V34.4828H44.8276V37.069H39.6552ZM48.2759 30.1724C48.2752 30.8581 48.0025 31.5155 47.5176 32.0004C47.0328 32.4852 46.3753 32.7579 45.6897 32.7586H4.31034C3.62465 32.7579 2.96724 32.4852 2.48238 32.0004C1.99752 31.5155 1.72482 30.8581 1.72414 30.1724V4.31034C1.72482 3.62465 1.99752 2.96724 2.48238 2.48238C2.96724 1.99752 3.62465 1.72482 4.31034 1.72414H45.6897C46.3753 1.72482 47.0328 1.99752 47.5176 2.48238C48.0025 2.96724 48.2752 3.62465 48.2759 4.31034V30.1724Z" fill="black"/>
<path d="M16.3793 4.31034C13.8218 4.31034 11.3217 5.06874 9.19518 6.48962C7.06869 7.9105 5.41128 9.93005 4.43256 12.2929C3.45384 14.6557 3.19777 17.2557 3.69671 19.7641C4.19566 22.2725 5.42722 24.5766 7.23566 26.385C9.0441 28.1934 11.3482 29.425 13.8566 29.9239C16.3649 30.4229 18.9649 30.1668 21.3278 29.1881C23.6906 28.2094 25.7102 26.552 27.131 24.4255C28.5519 22.299 29.3103 19.7989 29.3103 17.2414C29.3067 13.813 27.9431 10.526 25.5189 8.10179C23.0946 5.67754 19.8077 4.314 16.3793 4.31034ZM16.3793 28.4483C14.1628 28.4483 11.996 27.791 10.1531 26.5596C8.3101 25.3281 6.87368 23.5779 6.02546 21.5301C5.17724 19.4823 4.9553 17.2289 5.38772 15.055C5.82014 12.8811 6.8875 10.8842 8.45481 9.31691C10.0221 7.74959 12.019 6.68224 14.1929 6.24982C16.3668 5.8174 18.6202 6.03933 20.668 6.88756C22.7158 7.73578 24.466 9.1722 25.6975 11.0152C26.9289 12.8581 27.5862 15.0249 27.5862 17.2414C27.5828 20.2126 26.4009 23.0611 24.3 25.1621C22.199 27.263 19.3505 28.4449 16.3793 28.4483Z" fill="black"/>
<path d="M20.1672 15.2285C19.9468 14.8092 19.6587 14.4291 19.3147 14.1035C19.3836 13.9828 19.4526 13.8629 19.5224 13.7621C19.6836 13.5293 19.8302 13.3259 19.9603 13.1422C20.6002 12.4544 20.9788 11.5639 21.0302 10.6259C21.0302 9.15173 19.3526 7.55948 16.6414 7.55948C15.8856 7.5262 15.1321 7.66352 14.4366 7.96125C13.7412 8.25897 13.1217 8.70947 12.6241 9.27931C12.2047 9.74725 11.9195 10.3199 11.7989 10.9366C11.6782 11.5534 11.7266 12.1913 11.9388 12.7828L12.7388 14.9578C12.484 15.3609 12.2984 15.8038 12.1897 16.2681C12.0526 16.2681 11.9164 16.2681 11.7948 16.2569C11.5112 16.2345 11.2603 16.2103 11.0353 16.1888C10.1204 15.9783 9.16052 16.0958 8.32328 16.5207C7.04742 17.2578 6.50863 19.5086 7.86294 21.8569C8.21218 22.5278 8.708 23.1114 9.3136 23.5645C9.9192 24.0175 10.619 24.3285 11.3612 24.4741C11.597 24.5194 11.8366 24.5425 12.0767 24.5431C12.5834 24.548 13.085 24.4407 13.5452 24.2287C14.0055 24.0168 14.4131 23.7055 14.7388 23.3172L16.2233 21.5362C16.2759 21.5379 16.3259 21.5517 16.3793 21.5517C16.8024 21.5458 17.2223 21.4766 17.625 21.3466C17.6966 21.4681 17.7664 21.5905 17.8207 21.7043C17.9414 21.9603 18.0466 22.1897 18.1397 22.3957C18.4153 23.2923 18.9964 24.064 19.7819 24.5767C20.1309 24.7709 20.5248 24.8699 20.9241 24.8638C21.7105 24.7949 22.4655 24.5233 23.1156 24.0757C23.7657 23.628 24.2888 23.0195 24.6336 22.3095C25.0403 21.6715 25.2981 20.9501 25.3879 20.1988C25.4778 19.4476 25.3973 18.6858 25.1526 17.9698C24.9568 17.3729 24.6035 16.84 24.1299 16.4272C23.6564 16.0145 23.0801 15.7373 22.4621 15.625L20.1672 15.2285ZM13.7931 17.2414C13.7931 16.7299 13.9448 16.2299 14.229 15.8046C14.5131 15.3793 14.917 15.0478 15.3896 14.852C15.8622 14.6563 16.3822 14.6051 16.8839 14.7049C17.3855 14.8047 17.8464 15.051 18.208 15.4127C18.5697 15.7743 18.816 16.2352 18.9158 16.7368C19.0156 17.2385 18.9644 17.7585 18.7687 18.2311C18.5729 18.7036 18.2414 19.1076 17.8161 19.3917C17.3908 19.6759 16.8908 19.8276 16.3793 19.8276C15.6936 19.8269 15.0362 19.5542 14.5513 19.0693C14.0665 18.5845 13.7938 17.9271 13.7931 17.2414ZM13.9328 10.4017C14.2679 10.0197 14.6867 9.7201 15.1564 9.52618C15.6262 9.33227 16.1343 9.24926 16.6414 9.28362C18.3914 9.28362 19.3069 10.1569 19.3069 10.6259C19.3069 11.0741 19.1517 11.3095 18.5578 12.1397C18.4224 12.3293 18.2707 12.5414 18.1043 12.7819C18.0107 12.9191 17.9227 13.06 17.8405 13.2043C17.2262 12.9705 16.5653 12.8853 15.9117 12.9557C15.2582 13.0261 14.6306 13.2502 14.0802 13.6095L13.5569 12.1871C13.4481 11.884 13.4256 11.5567 13.492 11.2416C13.5583 10.9265 13.7109 10.6351 13.9328 10.4017ZM13.4138 22.2121C13.2053 22.4577 12.9329 22.6407 12.6268 22.741C12.3206 22.8413 11.9927 22.8548 11.6793 22.7802C11.181 22.6808 10.7123 22.468 10.3096 22.1582C9.9068 21.8485 9.58082 21.4501 9.3569 20.994C8.4819 19.4785 8.78104 18.2474 9.18535 18.0129C9.57328 17.7905 9.85604 17.806 10.869 17.9043C11.1017 17.9276 11.3629 17.9526 11.6535 17.9759C11.8216 17.9905 11.9853 17.994 12.1448 17.9948C12.2618 18.6404 12.5249 19.2506 12.914 19.7788C13.3031 20.3069 13.8078 20.7391 14.3897 21.0422L13.4138 22.2121ZM23.5259 18.5422C23.6891 19.0235 23.7393 19.536 23.6725 20.0398C23.6057 20.5437 23.4236 21.0253 23.1405 21.4474C22.2647 22.9647 21.0483 23.3198 20.644 23.0836C20.2569 22.8612 20.131 22.6095 19.7095 21.6819C19.6121 21.4681 19.5043 21.231 19.3776 20.9638C19.305 20.8133 19.2265 20.6658 19.1422 20.5216C19.6244 20.1213 20.0129 19.6201 20.2802 19.0533C20.5476 18.4866 20.6874 17.868 20.6897 17.2414C20.6897 17.181 20.6741 17.125 20.6724 17.0655L22.1681 17.3241C22.485 17.3816 22.7797 17.5259 23.0194 17.741C23.2592 17.956 23.4345 18.2334 23.5259 18.5422ZM45.6897 14.6552H31.8966C31.6679 14.6552 31.4486 14.746 31.287 14.9077C31.1253 15.0693 31.0345 15.2886 31.0345 15.5172C31.0345 15.7459 31.1253 15.9651 31.287 16.1268C31.4486 16.2885 31.6679 16.3793 31.8966 16.3793H45.6897C45.9183 16.3793 46.1376 16.2885 46.2992 16.1268C46.4609 15.9651 46.5517 15.7459 46.5517 15.5172C46.5517 15.2886 46.4609 15.0693 46.2992 14.9077C46.1376 14.746 45.9183 14.6552 45.6897 14.6552ZM45.6897 11.2069H31.8966C31.6679 11.2069 31.4486 11.2977 31.287 11.4594C31.1253 11.6211 31.0345 11.8403 31.0345 12.069C31.0345 12.2976 31.1253 12.5169 31.287 12.6785C31.4486 12.8402 31.6679 12.931 31.8966 12.931H45.6897C45.9183 12.931 46.1376 12.8402 46.2992 12.6785C46.4609 12.5169 46.5517 12.2976 46.5517 12.069C46.5517 11.8403 46.4609 11.6211 46.2992 11.4594C46.1376 11.2977 45.9183 11.2069 45.6897 11.2069ZM45.6897 7.75862H31.8966C31.6679 7.75862 31.4486 7.84945 31.287 8.01112C31.1253 8.17278 31.0345 8.39206 31.0345 8.62069C31.0345 8.84933 31.1253 9.0686 31.287 9.23027C31.4486 9.39194 31.6679 9.48276 31.8966 9.48276H45.6897C45.9183 9.48276 46.1376 9.39194 46.2992 9.23027C46.4609 9.0686 46.5517 8.84933 46.5517 8.62069C46.5517 8.39206 46.4609 8.17278 46.2992 8.01112C46.1376 7.84945 45.9183 7.75862 45.6897 7.75862ZM45.6897 18.1034H31.8966C31.6679 18.1034 31.4486 18.1943 31.287 18.3559C31.1253 18.5176 31.0345 18.7369 31.0345 18.9655C31.0345 19.1942 31.1253 19.4134 31.287 19.5751C31.4486 19.7368 31.6679 19.8276 31.8966 19.8276H45.6897C45.9183 19.8276 46.1376 19.7368 46.2992 19.5751C46.4609 19.4134 46.5517 19.1942 46.5517 18.9655C46.5517 18.7369 46.4609 18.5176 46.2992 18.3559C46.1376 18.1943 45.9183 18.1034 45.6897 18.1034ZM45.6897 21.5517H31.8966C31.6679 21.5517 31.4486 21.6425 31.287 21.8042C31.1253 21.9659 31.0345 22.1852 31.0345 22.4138C31.0345 22.6424 31.1253 22.8617 31.287 23.0234C31.4486 23.185 31.6679 23.2759 31.8966 23.2759H45.6897C45.9183 23.2759 46.1376 23.185 46.2992 23.0234C46.4609 22.8617 46.5517 22.6424 46.5517 22.4138C46.5517 22.1852 46.4609 21.9659 46.2992 21.8042C46.1376 21.6425 45.9183 21.5517 45.6897 21.5517ZM45.6897 25H31.8966C31.6679 25 31.4486 25.0908 31.287 25.2525C31.1253 25.4142 31.0345 25.6334 31.0345 25.8621C31.0345 26.0907 31.1253 26.31 31.287 26.4716C31.4486 26.6333 31.6679 26.7241 31.8966 26.7241H45.6897C45.9183 26.7241 46.1376 26.6333 46.2992 26.4716C46.4609 26.31 46.5517 26.0907 46.5517 25.8621C46.5517 25.6334 46.4609 25.4142 46.2992 25.2525C46.1376 25.0908 45.9183 25 45.6897 25ZM45.6897 28.4483H31.8966C31.6679 28.4483 31.4486 28.5391 31.287 28.7008C31.1253 28.8624 31.0345 29.0817 31.0345 29.3103C31.0345 29.539 31.1253 29.7583 31.287 29.9199C31.4486 30.0816 31.6679 30.1724 31.8966 30.1724H45.6897C45.9183 30.1724 46.1376 30.0816 46.2992 29.9199C46.4609 29.7583 46.5517 29.539 46.5517 29.3103C46.5517 29.0817 46.4609 28.8624 46.2992 28.7008C46.1376 28.5391 45.9183 28.4483 45.6897 28.4483Z" fill="black"/>
<path d="M44.8276 6.03448C45.3038 6.03448 45.6897 5.64852 45.6897 5.17241C45.6897 4.69631 45.3038 4.31034 44.8276 4.31034C44.3515 4.31034 43.9656 4.69631 43.9656 5.17241C43.9656 5.64852 44.3515 6.03448 44.8276 6.03448Z" fill="black"/>
</svg>
