<svg width="100" height="87" viewBox="0 0 100 87" fill="none" xmlns="http://www.w3.org/2000/svg">
<path d="M91.6667 0H8.33333C3.73333 0.00541667 0.00541667 3.73333 0 8.33333V41.6667C0.00541667 46.2667 3.73333 49.9946 8.33333 50H91.6667C96.2667 49.9946 99.9946 46.2667 100 41.6667V8.33333C99.9946 3.73333 96.2667 0.00541667 91.6667 0ZM11.6667 3.33333H88.3333V8.33333C88.3333 11.0948 86.0948 13.3333 83.3333 13.3333H16.6667C13.9052 13.3333 11.6667 11.0948 11.6667 8.33333V3.33333ZM88.3333 46.6667H11.6667V45H88.3333V46.6667ZM88.3333 41.6667H11.6667V40H88.3333V41.6667ZM88.3333 36.6667H11.6667V35H88.3333V36.6667ZM96.6667 41.6667C96.6667 44.4281 94.4281 46.6667 91.6667 46.6667V33.3333C91.6667 32.8913 91.4911 32.4674 91.1785 32.1548C90.8659 31.8423 90.442 31.6667 90 31.6667H10C9.55797 31.6667 9.13405 31.8423 8.82149 32.1548C8.50893 32.4674 8.33333 32.8913 8.33333 33.3333V46.6667C5.57187 46.6667 3.33333 44.4281 3.33333 41.6667V8.33333C3.33333 5.57187 5.57187 3.33333 8.33333 3.33333V8.33333C8.33875 12.9333 12.0667 16.6612 16.6667 16.6667H83.3333C87.9333 16.6612 91.6612 12.9333 91.6667 8.33333V3.33333C94.4281 3.33333 96.6667 5.57187 96.6667 8.33333V41.6667Z" fill="black"/>
<path d="M55 26.6667H41.6667C41.2246 26.6667 40.8007 26.8423 40.4881 27.1548C40.1756 27.4674 40 27.8913 40 28.3333C40 28.7754 40.1756 29.1993 40.4881 29.5118C40.8007 29.8244 41.2246 30 41.6667 30H55C55.442 30 55.8659 29.8244 56.1785 29.5118C56.4911 29.1993 56.6667 28.7754 56.6667 28.3333C56.6667 27.8913 56.4911 27.4674 56.1785 27.1548C55.8659 26.8423 55.442 26.6667 55 26.6667ZM85 20H83.3333C82.8913 20 82.4674 20.1756 82.1548 20.4882C81.8422 20.8007 81.6667 21.2246 81.6667 21.6667C81.6667 22.1087 81.8422 22.5326 82.1548 22.8452C82.4674 23.1577 82.8913 23.3333 83.3333 23.3333H85C85.442 23.3333 85.8659 23.1577 86.1785 22.8452C86.4911 22.5326 86.6667 22.1087 86.6667 21.6667C86.6667 21.2246 86.4911 20.8007 86.1785 20.4882C85.8659 20.1756 85.442 20 85 20ZM91.6667 20H90C89.558 20 89.134 20.1756 88.8215 20.4882C88.5089 20.8007 88.3333 21.2246 88.3333 21.6667C88.3333 22.1087 88.5089 22.5326 88.8215 22.8452C89.134 23.1577 89.558 23.3333 90 23.3333H91.6667C92.1087 23.3333 92.5326 23.1577 92.8452 22.8452C93.1577 22.5326 93.3333 22.1087 93.3333 21.6667C93.3333 21.2246 93.1577 20.8007 92.8452 20.4882C92.5326 20.1756 92.1087 20 91.6667 20ZM53.3333 55C53.3333 54.558 53.1577 54.134 52.8452 53.8215C52.5326 53.5089 52.1087 53.3333 51.6667 53.3333C51.2246 53.3333 50.8007 53.5089 50.4881 53.8215C50.1756 54.134 50 54.558 50 55C50.0302 56.4785 49.5393 57.9204 48.6133 59.0733C46.0179 62.5965 46.0179 67.3985 48.6133 70.9217C50.4619 73.325 50.4619 76.6715 48.6133 79.075C47.3213 80.7773 46.636 82.8631 46.6667 85C46.6667 85.442 46.8422 85.866 47.1548 86.1785C47.4674 86.4911 47.8913 86.6667 48.3333 86.6667C48.7753 86.6667 49.1993 86.4911 49.5118 86.1785C49.8244 85.866 50 85.442 50 85C49.9695 83.5205 50.4604 82.0774 51.3867 80.9233C53.9798 77.3983 53.9798 72.5967 51.3867 69.0717C49.5381 66.6696 49.5381 63.3238 51.3867 60.9217C52.6787 59.2206 53.364 57.1359 53.3333 55ZM40 55C40 54.558 39.8244 54.134 39.5118 53.8215C39.1993 53.5089 38.7753 53.3333 38.3333 53.3333C37.8913 53.3333 37.4674 53.5089 37.1548 53.8215C36.8422 54.134 36.6667 54.558 36.6667 55C36.6969 56.4785 36.206 57.9204 35.28 59.0733C32.6846 62.5965 32.6846 67.3985 35.28 70.9217C37.1285 73.325 37.1285 76.6715 35.28 79.075C33.9879 80.7773 33.3027 82.8631 33.3333 85C33.3333 85.442 33.5089 85.866 33.8215 86.1785C34.134 86.4911 34.558 86.6667 35 86.6667C35.442 86.6667 35.8659 86.4911 36.1785 86.1785C36.4911 85.866 36.6667 85.442 36.6667 85C36.6362 83.5205 37.1271 82.0774 38.0533 80.9233C40.6464 77.3983 40.6464 72.5967 38.0533 69.0717C36.2048 66.6696 36.2048 63.3238 38.0533 60.9217C39.3454 59.2206 40.0307 57.1359 40 55ZM66.6667 55C66.6667 54.558 66.4911 54.134 66.1785 53.8215C65.8659 53.5089 65.442 53.3333 65 53.3333C64.558 53.3333 64.134 53.5089 63.8215 53.8215C63.5089 54.134 63.3333 54.558 63.3333 55C63.3636 56.4785 62.8727 57.9204 61.9467 59.0733C59.3512 62.5965 59.3512 67.3985 61.9467 70.9217C63.7952 73.325 63.7952 76.6715 61.9467 79.075C60.6546 80.7773 59.9693 82.8631 60 85C60 85.442 60.1756 85.866 60.4881 86.1785C60.8007 86.4911 61.2246 86.6667 61.6667 86.6667C62.1087 86.6667 62.5326 86.4911 62.8452 86.1785C63.1577 85.866 63.3333 85.442 63.3333 85C63.3029 83.5205 63.7937 82.0774 64.72 80.9233C67.3131 77.3983 67.3131 72.5967 64.72 69.0717C62.8714 66.6696 62.8714 63.3238 64.72 60.9217C66.012 59.2206 66.6973 57.1359 66.6667 55Z" fill="black"/>
</svg>
