<svg width="50" height="61" viewBox="0 0 50 61" fill="none" xmlns="http://www.w3.org/2000/svg">
<path d="M40.625 15.625C40.625 11.481 38.9788 7.50671 36.0485 4.57646C33.1183 1.6462 29.144 0 25 0C20.856 0 16.8817 1.6462 13.9515 4.57646C11.0212 7.50671 9.375 11.481 9.375 15.625C9.375 21.6198 16.6667 28.125 17.7083 35.4167V39.5833H32.2917V35.4167C33.3333 28.125 40.625 21.6198 40.625 15.625Z" fill="#FCF05A"/>
<path d="M28.125 39.5833H26.0417V32.2917C26.042 32.086 26.1029 31.8849 26.2167 31.7135L28.125 28.8542V27.0833H21.875V28.8542L23.7833 31.7167C23.8966 31.8871 23.9574 32.087 23.9583 32.2917V39.5833H21.875V32.6042L19.9667 29.7417C19.8534 29.5712 19.7926 29.3713 19.7917 29.1667V27.0833H18.75C18.1319 27.0833 17.5277 26.9001 17.0138 26.5567C16.4999 26.2133 16.0994 25.7252 15.8629 25.1542C15.6264 24.5832 15.5645 23.9549 15.685 23.3487C15.8056 22.7425 16.1033 22.1857 16.5403 21.7486C16.9773 21.3116 17.5342 21.014 18.1403 20.8934C18.7465 20.7728 19.3749 20.8347 19.9459 21.0712C20.5169 21.3077 21.005 21.7083 21.3483 22.2222C21.6917 22.7361 21.875 23.3403 21.875 23.9583V25H28.125V23.9583C28.125 23.3403 28.3083 22.7361 28.6517 22.2222C28.995 21.7083 29.4831 21.3077 30.0541 21.0712C30.6251 20.8347 31.2535 20.7728 31.8597 20.8934C32.4658 21.014 33.0227 21.3116 33.4597 21.7486C33.8967 22.1857 34.1944 22.7425 34.315 23.3487C34.4355 23.9549 34.3736 24.5832 34.1371 25.1542C33.9006 25.7252 33.5001 26.2133 32.9862 26.5567C32.4723 26.9001 31.8681 27.0833 31.25 27.0833H30.2083V29.1667C30.208 29.3724 30.1471 29.5734 30.0333 29.7448L28.125 32.6042V39.5833ZM30.2083 25H31.25C31.456 25 31.6574 24.9389 31.8287 24.8245C32 24.71 32.1335 24.5473 32.2124 24.357C32.2912 24.1666 32.3118 23.9572 32.2717 23.7551C32.2315 23.5531 32.1323 23.3674 31.9866 23.2218C31.8409 23.0761 31.6553 22.9769 31.4532 22.9367C31.2512 22.8965 31.0417 22.9171 30.8514 22.996C30.661 23.0748 30.4983 23.2083 30.3839 23.3796C30.2694 23.5509 30.2083 23.7523 30.2083 23.9583V25ZM18.75 22.9167C18.4737 22.9167 18.2088 23.0264 18.0134 23.2218C17.8181 23.4171 17.7083 23.6821 17.7083 23.9583C17.7083 24.2346 17.8181 24.4996 18.0134 24.6949C18.2088 24.8903 18.4737 25 18.75 25H19.7917V23.9583C19.7917 23.6821 19.6819 23.4171 19.4866 23.2218C19.2912 23.0264 19.0263 22.9167 18.75 22.9167Z" fill="#195C85"/>
<path d="M37.5 14.5833H35.4167C35.4167 9.21771 29.9177 5.20833 25 5.20833V3.125C31.6594 3.125 37.5 8.48021 37.5 14.5833ZM35.4167 16.6667H37.5V18.75H35.4167V16.6667Z" fill="white"/>
<path d="M32.2917 47.9167H17.7083C16.5577 47.9167 15.625 48.8494 15.625 50C15.625 51.1506 16.5577 52.0833 17.7083 52.0833H32.2917C33.4423 52.0833 34.375 51.1506 34.375 50C34.375 48.8494 33.4423 47.9167 32.2917 47.9167Z" fill="#2D75BB"/>
<path d="M32.2917 52.0833H17.7083C16.5577 52.0833 15.625 53.0161 15.625 54.1667C15.625 55.3173 16.5577 56.25 17.7083 56.25H32.2917C33.4423 56.25 34.375 55.3173 34.375 54.1667C34.375 53.0161 33.4423 52.0833 32.2917 52.0833Z" fill="#195C85"/>
<path d="M28.125 60.4167H21.875L17.7083 56.25H32.2917L28.125 60.4167ZM30.2083 47.9167H19.7917L15.625 42.7083V39.5833H34.375V42.7083L30.2083 47.9167Z" fill="#50B4F8"/>
<path d="M19.7916 42.7083H21.875V44.7917H19.7916V42.7083ZM23.9583 42.7083H26.0416V44.7917H23.9583V42.7083ZM28.125 42.7083H30.2083V44.7917H28.125V42.7083Z" fill="#F4F4E6"/>
<path d="M43.75 14.5833H50V16.6667H43.75V14.5833ZM43.1208 10.6146L47.2875 7.48958L48.5375 9.15625L44.3708 12.2812L43.1208 10.6146ZM43.125 20.625L44.375 18.9583L48.5417 22.0833L47.2917 23.75L43.125 20.625ZM0 14.5833H6.25V16.6667H0V14.5833ZM1.45833 9.16667L2.70833 7.5L6.875 10.625L5.625 12.2917L1.45833 9.16667ZM1.46042 22.0781L5.62708 18.9531L6.87708 20.6198L2.71042 23.7448L1.46042 22.0781Z" fill="#E97424"/>
</svg>
