<svg width="100" height="100" viewBox="0 0 100 100" fill="none" xmlns="http://www.w3.org/2000/svg">
<path d="M71.4166 42.4499C71.2665 42.2097 71.0576 42.0117 70.8097 41.8747C70.5619 41.7376 70.2832 41.666 69.9999 41.6665H51.6667V16.6666C51.6644 16.2934 51.537 15.9318 51.3048 15.6396C51.0727 15.3474 50.7491 15.1416 50.3861 15.0552C50.023 14.9687 49.6414 15.0067 49.3025 15.1628C48.9635 15.319 48.6868 15.5845 48.5167 15.9166L28.5168 55.9165C28.3889 56.1702 28.328 56.4524 28.3399 56.7362C28.3518 57.0201 28.4361 57.2962 28.5847 57.5383C28.7333 57.7805 28.9414 57.9806 29.1891 58.1197C29.4368 58.2588 29.716 58.3323 30.0001 58.3331H48.3333V83.333C48.3345 83.7075 48.4618 84.0706 48.6946 84.3639C48.9274 84.6572 49.2522 84.8636 49.6167 84.9497C49.7418 84.9827 49.8706 84.9995 50 84.9997C50.3078 84.9988 50.6093 84.9126 50.8711 84.7508C51.1329 84.589 51.3448 84.3579 51.4833 84.083L71.4832 44.0832C71.6123 43.8278 71.6739 43.5437 71.6622 43.2579C71.6505 42.972 71.566 42.6939 71.4166 42.4499ZM51.6667 76.2664V56.6665C51.6667 56.2244 51.4911 55.8005 51.1785 55.488C50.8659 55.1754 50.442 54.9998 50 54.9998H32.7001L48.3333 23.7333V43.3332C48.3333 43.7752 48.5089 44.1991 48.8215 44.5117C49.1341 44.8243 49.558 44.9999 50 44.9999H67.2999L51.6667 76.2664Z" fill="black"/>
<path d="M90.6832 20.9666C91.95 19.3714 92.5871 17.3666 92.4734 15.3327C92.3597 13.2988 91.5032 11.3775 90.0665 9.93334L85.3499 5.2167C85.0327 4.91565 84.6121 4.74781 84.1749 4.74781C83.7376 4.74781 83.317 4.91565 82.9999 5.2167L81.8165 6.40003L77.0999 1.68338L74.7499 4.03337L79.4665 8.75002L77.0999 11.1167L72.3832 6.40003L70.0333 8.75002L74.7499 13.4667L73.5666 14.65C73.2562 14.9623 73.0819 15.3847 73.0819 15.825C73.0819 16.2653 73.2562 16.6877 73.5666 17L78.2832 21.7166C79.5458 22.9897 81.1897 23.8154 82.9647 24.0681C84.7398 24.3208 86.5488 23.9867 88.1165 23.1166C93.7038 30.965 96.6936 40.3658 96.6665 49.9998C96.6596 57.6577 94.77 65.1965 91.164 71.9522C87.558 78.708 82.3463 84.4735 75.9877 88.7411C69.6292 93.0086 62.3189 95.6473 54.7006 96.4248C47.0823 97.2023 39.3896 96.0948 32.3001 93.1997L31.0334 96.283C38.6293 99.3861 46.8716 100.574 55.0345 99.7414C63.1974 98.9091 71.0305 96.0823 77.8437 91.5099C84.6569 86.9376 90.2412 80.7601 94.1049 73.5214C97.9686 66.2828 99.9929 58.2051 99.9998 49.9998C100.03 39.5823 96.7695 29.4214 90.6832 20.9666ZM87.7165 19.3666C86.7719 20.2959 85.4999 20.8168 84.1749 20.8168C82.8498 20.8168 81.5778 20.2959 80.6332 19.3666L77.0999 15.8167L84.1832 8.75002L87.7165 12.2833C88.6531 13.2241 89.1788 14.4975 89.1788 15.825C89.1788 17.1524 88.6531 18.4259 87.7165 19.3666ZM50 5.26453e-05C36.7442 0.0163712 24.0361 5.28943 14.6628 14.6627C5.28959 24.0359 0.0165279 36.7441 0.00020928 49.9998C-0.0300908 60.4174 3.23052 70.5783 9.31684 79.033C8.05 80.6283 7.41295 82.6331 7.52663 84.667C7.6403 86.7009 8.49679 88.6222 9.9335 90.0663L14.6501 94.783C14.8021 94.9379 14.9837 95.0606 15.1842 95.1437C15.3846 95.2267 15.5998 95.2684 15.8168 95.2663C16.0363 95.2685 16.254 95.2269 16.4572 95.1439C16.6604 95.0609 16.845 94.9382 17.0001 94.783L18.1835 93.5997L22.9001 98.3163L25.2501 95.9663L20.5335 91.2497L22.9001 88.883L27.6168 93.5997L29.9668 91.2497L25.2501 86.533L26.4334 85.3497C26.7439 85.0374 26.9181 84.615 26.9181 84.1747C26.9181 83.7344 26.7439 83.312 26.4334 82.9997L21.7168 78.2831C20.4469 77.0222 18.8039 76.2049 17.0323 75.9527C15.2606 75.7004 13.4548 76.0267 11.8835 76.8831C6.29619 69.0347 3.30635 59.6339 3.33353 49.9998C3.3472 37.6273 8.26823 25.7655 17.0169 17.0168C25.7656 8.26807 37.6275 3.34705 50 3.33337C56.0715 3.32071 62.086 4.50435 67.6999 6.81669L68.9666 3.7167C62.9472 1.25318 56.504 -0.00939627 50 5.26453e-05ZM12.2835 80.633C13.2281 79.7037 14.5001 79.1829 15.8251 79.1829C17.1502 79.1829 18.4222 79.7037 19.3668 80.633L22.9001 84.183L15.8168 91.2497L12.2835 87.7163C11.347 86.7756 10.8212 85.5022 10.8212 84.1747C10.8212 82.8472 11.347 81.5738 12.2835 80.633Z" fill="black"/>
</svg>
