<svg width="50" height="43" viewBox="0 0 50 43" fill="none" xmlns="http://www.w3.org/2000/svg">
<path d="M44.7954 22.6678C42.9999 40.9343 22.6911 47.1022 10.8914 36.6357L12.5327 34.7277C22.6338 43.699 40.3137 38.9593 42.2731 22.6678H44.7954Z" fill="#72C1E8"/>
<path d="M45.8739 20.4609V21.646C45.8739 22.211 45.4176 22.6692 44.8527 22.6692C44.8527 22.6692 42.285 22.6712 42.2731 22.6672C42.0059 22.6617 41.7513 22.5518 41.5641 22.3609C41.377 22.17 41.272 21.9134 41.2717 21.646V20.4609C41.333 20.4669 41.3962 20.4708 41.4574 20.4708H45.6902C45.7514 20.4708 45.8147 20.4669 45.8739 20.4609Z" fill="#F2E1D6"/>
<path d="M45.243 8.63216V12.3982H47.0576V8.63216C47.0574 8.39134 46.9617 8.16043 46.7914 7.99014C46.6211 7.81986 46.3902 7.72413 46.1494 7.72397C45.642 7.72377 45.243 8.13915 45.243 8.63216ZM40.0897 8.63216V12.3982H41.9043V8.63216C41.9045 8.51302 41.8811 8.39503 41.8356 8.28491C41.7902 8.1748 41.7235 8.07471 41.6393 7.99038C41.5552 7.90605 41.4552 7.83911 41.3452 7.7934C41.2352 7.74769 41.1172 7.7241 40.9981 7.72397C40.7573 7.72418 40.5264 7.81992 40.3561 7.99019C40.1858 8.16046 40.09 8.39134 40.0897 8.63216Z" fill="#AFAFAF"/>
<path d="M48.2618 14.5216V17.8991C48.2618 19.2482 47.215 20.3701 45.8738 20.4609C45.8146 20.4669 45.7514 20.4708 45.6902 20.4708H41.4573C41.3961 20.4708 41.3329 20.4669 41.2717 20.4609C39.9305 20.3701 38.8837 19.2482 38.8837 17.8991V14.5216H48.2618Z" fill="#72C1E8"/>
<path d="M44.1882 19.1867C44.0572 19.1868 43.9316 19.1349 43.8389 19.0423C43.7463 18.9498 43.6942 18.8242 43.6941 18.6933C43.694 18.5623 43.7459 18.4367 43.8385 18.344C43.931 18.2513 44.0566 18.1992 44.1876 18.1992L45.732 18.1944C45.8531 18.1859 45.9633 18.0822 45.987 17.9459L45.9911 16.2986C45.9911 16.1677 46.0431 16.0421 46.1357 15.9495C46.2284 15.8569 46.3539 15.8048 46.4849 15.8048C46.6159 15.8048 46.7415 15.8569 46.8341 15.9495C46.9267 16.0421 46.9787 16.1677 46.9787 16.2986L46.9682 18.0611C46.8884 18.6683 46.3915 19.1388 45.7869 19.1802L44.1886 19.1867H44.1882ZM42.2116 19.1866H42.2106C41.4199 19.1848 41.3826 19.182 41.3554 19.1798C41.2907 19.1748 41.2277 19.157 41.1699 19.1276C41.1121 19.0982 41.0607 19.0576 41.0185 19.0083C40.9764 18.959 40.9444 18.9019 40.9244 18.8403C40.9043 18.7786 40.8966 18.7136 40.9017 18.6489C40.9228 18.3771 41.1604 18.1715 41.4326 18.1952H41.4328C41.4409 18.1952 41.5554 18.1976 42.2126 18.199C42.3436 18.1991 42.4691 18.2512 42.5616 18.3439C42.6541 18.4366 42.706 18.5623 42.7059 18.6933C42.7058 18.8242 42.6536 18.9498 42.5609 19.0423C42.4682 19.1348 42.3426 19.1867 42.2116 19.1866Z" fill="#C5E5FF"/>
<path d="M37.6411 13.4599C37.6411 13.7415 37.753 14.0115 37.9521 14.2106C38.1512 14.4097 38.4212 14.5216 38.7028 14.5216H48.4444C48.726 14.5216 48.996 14.4097 49.1951 14.2106C49.3942 14.0115 49.506 13.7415 49.506 13.4599C49.506 13.1783 49.3942 12.9083 49.1951 12.7092C48.996 12.5101 48.726 12.3982 48.4444 12.3982H38.7028C38.4212 12.3983 38.1512 12.5102 37.9521 12.7093C37.753 12.9083 37.6412 13.1783 37.6411 13.4599Z" fill="#F2E1D6"/>
<path d="M5.20447 19.5541C6.99991 1.28803 27.3085 -4.88126 39.1085 5.58544L37.4671 7.49346C27.3658 -1.47802 9.68616 3.26302 7.72678 19.5541H5.20447Z" fill="#72C1E8"/>
<path d="M4.12598 21.7604V20.5753C4.12598 20.0104 4.58224 19.5522 5.14715 19.5522C5.15979 19.5522 7.71449 19.5512 7.72674 19.5541C8.27979 19.564 8.72815 20.0183 8.72815 20.5753V21.7604C8.66692 21.7525 8.60372 21.7505 8.54249 21.7505H4.30967C4.24646 21.7507 4.18523 21.7525 4.12598 21.7604Z" fill="#F2E1D6"/>
<path d="M4.75686 33.5892V29.8231H2.94226V33.5892C2.94242 33.83 3.03815 34.0609 3.20844 34.2312C3.37872 34.4015 3.60963 34.4972 3.85045 34.4974C4.35787 34.4974 4.75686 34.0822 4.75686 33.5892ZM9.91012 33.5892V29.8231H8.09552V33.5892C8.09539 33.7083 8.11872 33.8263 8.16419 33.9364C8.20966 34.0466 8.27638 34.1466 8.36053 34.231C8.44468 34.3153 8.54462 34.3822 8.65463 34.428C8.76465 34.4737 8.88259 34.4973 9.00173 34.4974C9.24255 34.4972 9.47345 34.4014 9.64376 34.2312C9.81406 34.0609 9.90986 33.83 9.91012 33.5892Z" fill="#AFAFAF"/>
<path d="M1.73694 27.7004V24.323C1.73694 22.9722 2.78438 21.8521 4.12513 21.7604C4.18577 21.7547 4.24838 21.7509 4.30902 21.7509H8.54322C8.60386 21.7509 8.66648 21.7547 8.72711 21.7604C10.0691 21.8521 11.1153 22.9734 11.1153 24.323V27.7004H1.73694Z" fill="#72C1E8"/>
<path d="M3.51467 26.4165C3.38371 26.4165 3.25811 26.3645 3.16551 26.2719C3.0729 26.1793 3.02088 26.0537 3.02088 25.9227C3.02028 25.3635 3.01515 24.2833 3.03154 24.1591C3.11134 23.5531 3.6081 23.0826 4.2127 23.0411C4.23463 23.0393 4.27433 23.0364 5.81122 23.0346H5.81181C5.87666 23.0346 5.94088 23.0473 6.0008 23.0721C6.06073 23.0969 6.11518 23.1332 6.16106 23.179C6.20695 23.2248 6.24335 23.2793 6.2682 23.3392C6.29305 23.3991 6.30586 23.4633 6.3059 23.5281C6.30594 23.593 6.29321 23.6572 6.26843 23.7171C6.24365 23.777 6.20731 23.8315 6.16148 23.8774C6.11566 23.9232 6.06124 23.9596 6.00135 23.9845C5.94145 24.0093 5.87725 24.0222 5.8124 24.0222C4.75114 24.0234 4.31719 24.0258 4.26781 24.0269C4.14653 24.0356 4.03632 24.1393 4.01262 24.2754C4.00551 24.4806 4.00827 25.7195 4.00847 25.9227C4.00847 26.0537 3.95644 26.1793 3.86384 26.2719C3.77123 26.3645 3.64564 26.4165 3.51467 26.4165ZM8.56739 24.0261C8.56463 24.0244 8.45204 24.0238 7.78719 24.0224C7.65623 24.0223 7.53068 23.9701 7.43817 23.8774C7.34566 23.7847 7.29376 23.6591 7.29389 23.5281C7.29402 23.3971 7.34617 23.2716 7.43887 23.1791C7.53157 23.0866 7.65722 23.0347 7.78818 23.0348H7.78917C8.57964 23.0366 8.61697 23.0393 8.64442 23.0415C8.70908 23.0466 8.7721 23.0643 8.82989 23.0938C8.88768 23.1232 8.93911 23.1637 8.98124 23.213C9.02337 23.2623 9.05538 23.3194 9.07543 23.3811C9.09549 23.4428 9.1032 23.5078 9.09812 23.5724C9.0764 23.8496 8.83088 24.0493 8.56739 24.0261Z" fill="#C5E5FF"/>
<path d="M12.3587 28.7613C12.3587 28.4797 12.2468 28.2096 12.0477 28.0105C11.8486 27.8114 11.5786 27.6996 11.297 27.6996H1.55544C1.27387 27.6996 1.00383 27.8114 0.804728 28.0105C0.605628 28.2096 0.493774 28.4797 0.493774 28.7613C0.493774 29.0428 0.605628 29.3129 0.804728 29.512C1.00383 29.7111 1.27387 29.8229 1.55544 29.8229H11.297C11.4365 29.8229 11.5745 29.7955 11.7034 29.7422C11.8322 29.6888 11.9492 29.6106 12.0478 29.512C12.1464 29.4134 12.2246 29.2964 12.2779 29.1676C12.3313 29.0387 12.3587 28.9007 12.3587 28.7613Z" fill="#F2E1D6"/>
<path d="M48.4444 11.9044H47.5512V8.63216C47.5512 7.85907 46.9221 7.22998 46.149 7.22998C45.3771 7.22998 44.749 7.85907 44.749 8.63216V11.9042H42.3982V8.63216C42.3982 7.85907 41.77 7.22998 40.9981 7.22998C40.2251 7.22998 39.596 7.85907 39.596 8.63216V11.9042H38.7028C37.8452 11.9042 37.1473 12.6021 37.1473 13.4599C37.1473 14.2109 37.6822 14.839 38.3907 14.9838V17.8981C38.3907 19.3592 39.4176 20.5804 40.7779 20.8848V21.6457C40.7779 22.2742 41.1694 22.8181 41.7205 23.0459C39.5223 38.7332 22.4942 42.9144 12.8607 34.3581C12.6651 34.1841 12.3372 34.2041 12.1634 34.3996C12.1201 34.448 12.0868 34.5044 12.0654 34.5657C12.044 34.627 12.035 34.692 12.0388 34.7568C12.0427 34.8216 12.0594 34.885 12.0879 34.9433C12.1164 35.0017 12.1561 35.0538 12.2049 35.0967L12.2069 35.0988C22.4589 44.2001 40.4338 39.588 42.7073 23.1624L44.2444 23.1626C43.7269 27.4645 42.1586 31.1957 39.5829 34.2515C39.3996 34.4684 39.4419 34.7779 39.6422 34.9467C39.8417 35.1166 40.1676 35.087 40.3374 34.8875C42.9099 31.8382 44.6983 27.892 45.2418 23.1101C45.8889 22.9374 46.3677 22.3472 46.3677 21.6457V20.8842C47.7312 20.5773 48.7567 19.361 48.7567 17.8983V14.984C49.4652 14.8392 50 14.2109 50 13.4601C49.9998 12.6023 49.302 11.9044 48.4444 11.9044ZM45.7366 8.63216C45.7366 8.40363 45.9217 8.21757 46.149 8.21757C46.3776 8.21757 46.5636 8.40343 46.5636 8.63216V11.9042H45.7366V8.63216ZM40.5838 8.63216C40.5838 8.40363 40.7696 8.21757 40.9983 8.21757C41.2257 8.21757 41.4108 8.40343 41.4108 8.63216V11.9042H40.5838V8.63216ZM45.3801 21.6459C45.3802 21.786 45.3248 21.9204 45.2259 22.0196C45.127 22.1189 44.9928 22.1748 44.8527 22.1752L42.282 22.1732C42.1442 22.1699 42.0131 22.113 41.9166 22.0145C41.8201 21.916 41.7659 21.7837 41.7655 21.6459V20.9644H45.3801V21.6459ZM45.6908 19.9766C39.704 19.9766 41.9865 19.9764 41.4473 19.9764C40.3274 19.9731 39.3783 19.0605 39.3783 17.8985V15.0156H47.7689V17.8985C47.7689 19.0611 46.8166 19.9766 45.6908 19.9766ZM48.4444 14.028C37.0185 14.027 38.9469 14.028 38.7028 14.028C38.5522 14.0278 38.4079 13.9679 38.3015 13.8614C38.195 13.755 38.1351 13.6106 38.1349 13.4601C38.1351 13.3095 38.1949 13.1652 38.3014 13.0587C38.4079 12.9522 38.5522 12.8922 38.7028 12.892H48.4444C48.595 12.8922 48.7393 12.9522 48.8458 13.0587C48.9522 13.1652 49.0121 13.3095 49.0123 13.4601C49.012 13.6106 48.9521 13.7549 48.8456 13.8614C48.7392 13.9678 48.5949 14.0277 48.4444 14.028Z" fill="black"/>
<path d="M38.9955 36.3671C39.1888 36.1775 39.195 35.8632 39.0053 35.6699C38.8216 35.4802 38.4957 35.4743 38.3061 35.6578C38.2123 35.7493 38.1586 35.8743 38.1567 36.0054C38.1549 36.1364 38.2051 36.2629 38.2962 36.357C38.3414 36.4038 38.3953 36.4411 38.455 36.4669C38.5146 36.4928 38.5788 36.5065 38.6438 36.5075C38.7087 36.5084 38.7733 36.4965 38.8336 36.4724C38.894 36.4483 38.949 36.4125 38.9955 36.3671ZM37.4746 37.7023C37.6859 37.5325 37.7234 37.2223 37.5536 37.009C37.3896 36.8014 37.0677 36.7641 36.8601 36.928C29.5339 42.74 18.6258 42.8017 11.256 36.2662C11.0585 36.0923 10.7326 36.1123 10.5587 36.3076C10.4723 36.4058 10.4281 36.5342 10.4358 36.6648C10.4436 36.7954 10.5027 36.9177 10.6002 37.0049C18.3279 43.8661 29.7741 43.809 37.4746 37.7023ZM2.44864 30.3167V33.589C2.44864 34.3621 3.07753 34.9912 3.85062 34.9912C4.62272 34.9912 5.25063 34.3621 5.25063 33.589V30.3167H7.60149V33.589C7.60149 34.3621 8.2296 34.9912 9.0015 34.9912C9.77459 34.9912 10.4035 34.3621 10.4035 33.589V30.3167H11.2967C12.1543 30.3167 12.8521 29.6191 12.8521 28.7613C12.8521 28.0103 12.3174 27.3822 11.6087 27.2374V24.323C11.6087 22.856 10.5763 21.6393 9.22154 21.3363V20.5753C9.22154 19.9472 8.83026 19.4032 8.27958 19.1753C10.4758 3.47851 27.5038 -0.68992 37.1394 7.86322C37.333 8.03703 37.6608 8.01728 37.8348 7.82174C38.0166 7.61829 37.9988 7.30641 37.7973 7.12647L37.7953 7.1243C27.4697 -2.04292 9.54369 2.74512 7.29297 19.0584H5.75391C6.27338 14.7564 7.84168 11.0253 10.4153 7.96968C10.5911 7.76229 10.5655 7.45021 10.3561 7.27442C10.1566 7.10455 9.82871 7.13201 9.66082 7.33367C6.80076 10.7286 5.24688 14.8109 4.75861 19.1109C4.11115 19.2833 3.63217 19.8735 3.63217 20.5753V21.3369C2.26968 21.6435 1.24338 22.8592 1.24338 24.3228V27.2372C0.534682 27.382 0 28.0103 0 28.7611C0 29.6189 0.697833 30.3165 1.55546 30.3165H2.44864V30.3167ZM4.26324 33.5892C4.26339 33.6988 4.22006 33.804 4.14275 33.8818C4.06543 33.9595 3.96045 34.0034 3.85082 34.0038C3.74091 34.0037 3.63554 33.96 3.55784 33.8822C3.48015 33.8045 3.43648 33.6991 3.43642 33.5892V30.3169H4.26343L4.26324 33.5892ZM9.4161 33.5892C9.41599 33.6991 9.37231 33.8044 9.29462 33.8822C9.21693 33.9599 9.11159 34.0036 9.0017 34.0038C8.89207 34.0034 8.78709 33.9595 8.70977 33.8818C8.63246 33.804 8.58913 33.6988 8.58928 33.5892V30.3169H9.41629L9.4161 33.5892ZM4.61976 20.5753C4.61965 20.4352 4.67512 20.3008 4.77399 20.2016C4.87285 20.1023 5.00705 20.0464 5.14713 20.046L7.71961 20.0481C7.85711 20.0519 7.98776 20.109 8.08387 20.2074C8.17999 20.3058 8.23403 20.4377 8.23454 20.5753V21.2567H4.61995L4.61976 20.5753ZM4.1706 22.252C4.29879 22.2402 3.99027 22.2447 8.54346 22.2447C9.65865 22.2447 10.6216 23.1492 10.6216 24.3228V27.2058H2.23097V24.3228C2.23077 23.2226 3.08583 22.3263 4.1706 22.252ZM0.987592 28.7613C0.987801 28.6107 1.0477 28.4664 1.15415 28.3599C1.2606 28.2535 1.40491 28.1936 1.55546 28.1934H1.73145C1.73342 28.1934 1.7352 28.194 1.73717 28.194C12.0162 28.194 11.2275 28.1934 11.2971 28.1934C11.6101 28.1934 11.8649 28.4482 11.8649 28.7613C11.8649 29.0743 11.6101 29.3291 11.2971 29.3291H1.55546C1.4049 29.329 1.26055 29.2691 1.15409 29.1626C1.04763 29.0562 0.987749 28.9118 0.987592 28.7613Z" fill="black"/>
<path d="M12.4816 5.2143C12.6455 5.41972 12.9675 5.45725 13.1749 5.29331C20.5725 -0.579309 31.472 -0.526571 38.7813 5.95499C38.8297 5.99801 38.886 6.03106 38.9471 6.05226C39.0083 6.07345 39.073 6.08238 39.1376 6.07853C39.2022 6.07468 39.2654 6.05812 39.3235 6.0298C39.3817 6.00149 39.4337 5.96197 39.4766 5.91351C39.6595 5.71047 39.6392 5.3976 39.4371 5.21647C31.6811 -1.66329 20.2454 -1.5748 12.5608 4.51923C12.4582 4.60098 12.3923 4.72008 12.3774 4.85039C12.3626 4.9807 12.4 5.11157 12.4816 5.2143ZM11.0417 5.85446C11.0397 5.85446 11.0397 5.85446 11.0397 5.85643C10.8447 6.04328 10.8422 6.35813 11.0298 6.55367C11.1214 6.64638 11.2457 6.69956 11.376 6.70181C11.5063 6.70406 11.6323 6.65521 11.727 6.56572C11.727 6.56355 11.727 6.56355 11.729 6.56355C11.9246 6.37393 11.9285 6.05988 11.7389 5.86433C11.5554 5.67452 11.2295 5.67076 11.0417 5.85446Z" fill="black"/>
<path d="M25.3821 18.7548L28.1899 8.98473C28.4877 7.94835 27.1009 7.29654 26.4961 8.18932L17.3864 21.6407C16.9602 22.2702 17.4127 23.118 18.1731 23.118L24.2701 23.1178L21.463 32.889C21.1653 33.9254 22.5521 34.577 23.1569 33.6842L32.2668 20.2318C32.6931 19.6023 32.2406 18.7546 31.4803 18.7546L25.3821 18.7548Z" fill="#F0C020"/>
<path d="M28.9823 24.2017C28.9456 24.2553 28.92 24.3157 28.9068 24.3793C28.8936 24.4428 28.8932 24.5084 28.9055 24.5721C28.9178 24.6359 28.9426 24.6965 28.9785 24.7507C29.0144 24.8048 29.0607 24.8512 29.1146 24.8873C29.3319 25.0355 29.6518 24.9723 29.8 24.755L32.6761 20.5083C33.3196 19.5581 32.6405 18.2663 31.4789 18.2606H26.0373L28.6643 9.12121C29.1245 7.54363 26.9846 6.559 26.0866 7.9124L16.9771 21.3636C16.3284 22.3121 17.0178 23.6114 18.1721 23.6114H23.6137L20.9887 32.7523C20.5206 34.3354 22.6686 35.3123 23.5643 33.9611L27.584 28.0257C27.7361 27.8005 27.6769 27.4924 27.4517 27.3403C27.2342 27.1922 26.9142 27.2554 26.7661 27.4726L22.7466 33.4061C22.4408 33.8436 21.8031 33.5195 21.9368 33.0249L24.7435 23.2535C24.8356 22.9392 24.5977 22.6236 24.2695 22.6236H18.1721C17.8053 22.6236 17.5934 22.2177 17.7948 21.9184L26.9044 8.46545C27.2222 8.0242 27.8608 8.37361 27.7144 8.84864L24.9077 18.6179C24.8178 18.9231 25.0469 19.248 25.3815 19.248H31.4789C31.8372 19.248 32.0628 19.6456 31.8581 19.9549L28.9823 24.2017Z" fill="black"/>
<path d="M28.5594 25.7049C28.3403 25.5567 28.0204 25.6199 27.874 25.8372C27.7219 26.0626 27.7812 26.3705 28.0063 26.5226C28.1148 26.5915 28.2459 26.6154 28.3717 26.5893C28.4975 26.5631 28.6082 26.4889 28.6802 26.3825C28.7522 26.276 28.7799 26.1457 28.7573 26.0191C28.7348 25.8926 28.6638 25.7799 28.5594 25.7049Z" fill="black"/>
</svg>
