<svg width="50" height="48" viewBox="0 0 50 48" fill="none" xmlns="http://www.w3.org/2000/svg">
<path d="M10.4864 3.36523V44.5202C10.4864 46.0848 9.21801 47.3534 7.65325 47.3534C6.08859 47.3534 4.82007 46.0849 4.82007 44.5202V3.36523C4.82007 1.80056 6.08849 0.532047 7.65325 0.532047C9.21801 0.532147 10.4864 1.80056 10.4864 3.36523ZM19.4336 3.36523V44.5202C19.4336 46.0848 18.1652 47.3534 16.6004 47.3534C15.0357 47.3534 13.7672 46.0849 13.7672 44.5202V3.36523C13.7672 1.80056 15.0356 0.532047 16.6004 0.532047C18.1651 0.532147 19.4336 1.80056 19.4336 3.36523ZM28.3806 3.36523V44.5202C28.3806 46.0848 27.1122 47.3534 25.5475 47.3534C23.9828 47.3534 22.7143 46.0849 22.7143 44.5202V3.36523C22.7143 1.80056 23.9827 0.532047 25.5475 0.532047C27.1122 0.532147 28.3806 1.80056 28.3806 3.36523ZM37.3277 3.36523V44.5202C37.3277 46.0848 36.0593 47.3534 34.4945 47.3534C32.9299 47.3534 31.6614 46.0849 31.6614 44.5202V3.36523C31.6614 1.80056 32.9298 0.532047 34.4945 0.532047C36.0593 0.532147 37.3277 1.80056 37.3277 3.36523ZM46.2749 3.36523V44.5202C46.2749 46.0848 45.0065 47.3534 43.4417 47.3534C41.877 47.3534 40.6085 46.0849 40.6085 44.5202V3.36523C40.6085 1.80056 41.8769 0.532047 43.4417 0.532047C45.0065 0.532147 46.2749 1.80056 46.2749 3.36523Z" fill="#FDDC8D"/>
<path opacity="0.5" d="M7.53201 46.5255C7.83134 46.8257 8.19549 47.0533 8.5965 47.1908C8.29447 47.3002 7.97565 47.3561 7.6544 47.3559C6.87207 47.3559 6.16418 47.0365 5.64792 46.5256C5.13695 46.0093 4.81763 45.3015 4.81763 44.519V3.36652C4.81763 1.80176 6.08964 0.529747 7.6544 0.529747C7.98442 0.529747 8.30375 0.588297 8.5965 0.694806C7.48944 1.07798 6.70172 2.13178 6.70172 3.36662V44.5191C6.70172 45.3014 7.02104 46.0092 7.53201 46.5255ZM16.4789 46.5255C16.7782 46.8257 17.1423 47.0533 17.5434 47.1908C17.2413 47.3002 16.9225 47.3561 16.6013 47.3559C15.8189 47.3559 15.111 47.0365 14.6001 46.5256C14.0891 46.0093 13.7698 45.3015 13.7698 44.519V3.36652C13.7698 1.80176 15.0365 0.529747 16.6013 0.529747C16.9313 0.529747 17.2506 0.588297 17.5434 0.694806C16.4363 1.07798 15.6486 2.13178 15.6486 3.36662V44.5191C15.6486 45.3014 15.9626 46.0092 16.4789 46.5255ZM25.4257 46.5255C25.7251 46.8257 26.0892 47.0533 26.4902 47.1908C26.1882 47.3002 25.8694 47.3561 25.5482 47.3559C24.7658 47.3559 24.0579 47.0365 23.547 46.5256C23.283 46.2625 23.0738 45.9497 22.9313 45.6053C22.7888 45.2609 22.7158 44.8917 22.7167 44.519V3.36652C22.7167 1.80176 23.9835 0.529747 25.5482 0.529747C25.8782 0.529747 26.1976 0.588297 26.4902 0.694806C25.3832 1.07798 24.5954 2.13178 24.5954 3.36662V44.5191C24.5954 45.3014 24.9149 46.0092 25.4257 46.5255ZM34.3727 46.5255C34.672 46.8257 35.0362 47.0533 35.4372 47.1908C35.1352 47.3002 34.8164 47.3561 34.4952 47.3559C33.7127 47.3559 33.0049 47.0365 32.494 46.5256C31.983 46.0093 31.6637 45.3015 31.6637 44.519V3.36652C31.6637 1.80176 32.9304 0.529747 34.4952 0.529747C34.8252 0.529747 35.1445 0.588297 35.4372 0.694806C34.3301 1.07798 33.5424 2.13178 33.5424 3.36662V44.5191C33.5424 45.3014 33.8564 46.0092 34.3727 46.5255ZM43.3195 46.5255C43.6189 46.8257 43.983 47.0533 44.384 47.1908C44.082 47.3002 43.7633 47.3561 43.442 47.3559C42.6596 47.3559 41.9517 47.0365 41.4409 46.5256C41.1769 46.2625 40.9676 45.9497 40.8251 45.6053C40.6826 45.2609 40.6097 44.8917 40.6106 44.519V3.36652C40.6106 1.80176 41.8773 0.529747 43.442 0.529747C43.7721 0.529747 44.0914 0.588297 44.384 0.694806C43.277 1.07798 42.4893 2.13178 42.4893 3.36662V44.5191C42.4893 45.3014 42.8086 46.0092 43.3195 46.5255Z" fill="white"/>
<path opacity="0.15" d="M10.486 3.36652V44.519C10.486 46.0837 9.21923 47.3559 7.65447 47.3559C7.31916 47.3559 6.99983 47.2973 6.70178 47.1855C7.79815 46.7916 8.57528 45.7485 8.57528 44.519V3.36652C8.57528 2.58419 8.25596 1.8763 7.74499 1.36004C7.45224 1.06729 7.10094 0.838383 6.70178 0.700002C6.99983 0.588297 7.31916 0.529747 7.65447 0.529747C8.4369 0.529747 9.1448 0.849074 9.65566 1.36004C9.91964 1.62313 10.1289 1.93589 10.2714 2.28027C10.4139 2.62464 10.4868 2.99383 10.486 3.36652ZM19.4328 3.36652V44.519C19.4328 46.0837 18.1661 47.3559 16.6013 47.3559C16.266 47.3559 15.9467 47.2973 15.6486 47.1855C16.745 46.7916 17.5221 45.7485 17.5221 44.519V3.36652C17.523 2.99383 17.4501 2.62465 17.3076 2.28027C17.1651 1.9359 16.9558 1.62314 16.6919 1.36004C16.3991 1.06729 16.0478 0.838383 15.6486 0.700002C15.9467 0.588297 16.266 0.529747 16.6013 0.529747C17.3838 0.529747 18.0917 0.849074 18.6025 1.36004C19.1135 1.8763 19.4328 2.58409 19.4328 3.36652ZM28.3798 3.36652V44.519C28.3798 46.0837 27.1131 47.3559 25.5483 47.3559C25.213 47.3559 24.8936 47.2973 24.5956 47.1855C25.692 46.7916 26.4691 45.7485 26.4691 44.519V3.36652C26.4691 2.58419 26.1498 1.8763 25.6388 1.36004C25.3461 1.06729 24.9948 0.838383 24.5956 0.700002C24.8936 0.588297 25.213 0.529747 25.5483 0.529747C26.3306 0.529747 27.0385 0.849074 27.5495 1.36004C27.8135 1.62313 28.0227 1.93589 28.1652 2.28027C28.3077 2.62464 28.3807 2.99383 28.3798 3.36652ZM37.3266 3.36652V44.519C37.3266 46.0837 36.0599 47.3559 34.4952 47.3559C34.1598 47.3559 33.8405 47.2973 33.5425 47.1855C34.6388 46.7916 35.416 45.7485 35.416 44.519V3.36652C35.4168 2.99383 35.3439 2.62465 35.2014 2.28027C35.0589 1.9359 34.8496 1.62314 34.5857 1.36004C34.2929 1.06729 33.9416 0.838383 33.5425 0.700002C33.8405 0.588297 34.1598 0.529747 34.4952 0.529747C35.2775 0.529747 35.9854 0.849074 36.4963 1.36004C37.0073 1.8763 37.3266 2.58409 37.3266 3.36652ZM46.2735 3.36652V44.519C46.2735 46.0837 45.0068 47.3559 43.442 47.3559C43.1067 47.3559 42.7874 47.2973 42.4893 47.1855C43.5857 46.7916 44.3628 45.7485 44.3628 44.519V3.36652C44.3628 2.58419 44.0435 1.8763 43.5325 1.36004C43.2398 1.06729 42.8885 0.838383 42.4893 0.700002C42.7874 0.588297 43.1067 0.529747 43.442 0.529747C44.2243 0.529747 44.9322 0.849074 45.4432 1.36004C45.7072 1.62312 45.9165 1.93587 46.059 2.28025C46.2015 2.62463 46.2744 2.99382 46.2735 3.36652Z" fill="black"/>
<path d="M2.90884 41.729V43.0463C2.90884 43.7026 2.3769 44.2345 1.72066 44.2345C1.06442 44.2345 0.532471 43.7026 0.532471 43.0463V41.729C0.532471 41.0727 1.06442 40.5408 1.72066 40.5408C2.3769 40.5408 2.90884 41.0727 2.90884 41.729Z" fill="#FB888B"/>
<path d="M47.8711 4.96576H46.8071V3.36543C46.8071 1.50991 45.2972 0 43.4417 0C41.5862 0 40.0763 1.50991 40.0763 3.36543V4.96576H37.86V3.36543C37.86 1.50991 36.3501 0 34.4945 0C32.639 0 31.1291 1.50991 31.1291 3.36543V4.96576H28.9128V3.36543C28.9128 1.50991 27.4029 0 25.5474 0C23.6919 0 22.182 1.50991 22.182 3.36543V4.96576H19.9656V3.36543C19.9656 1.50991 18.4557 0 16.6002 0C14.7447 0 13.2353 1.50991 13.2353 3.36543V4.96576H11.0185V3.36543C11.0185 1.50991 9.50908 0 7.65356 0C5.79805 0 4.28804 1.50981 4.28804 3.36543V41.8554H3.44086V41.7291C3.44086 40.7805 2.66902 40.0086 1.72043 40.0086C0.771841 40.0086 0 40.7805 0 41.7291V43.0461C0 43.9947 0.771841 44.7666 1.72043 44.7666C2.66902 44.7666 3.44086 43.9947 3.44086 43.0461V42.9198H4.28804V44.5202C4.28804 46.3757 5.79795 47.8856 7.65346 47.8856C9.50898 47.8856 11.0184 46.3757 11.0184 44.5202V42.9198H13.2352V44.5202C13.2352 46.3757 14.7446 47.8856 16.6001 47.8856C18.4556 47.8856 19.9655 46.3757 19.9655 44.5202V42.9198H22.1819V44.5202C22.1819 46.3757 23.6918 47.8856 25.5473 47.8856C27.4028 47.8856 28.9127 46.3757 28.9127 44.5202V42.9198H31.129V44.5202C31.129 46.3757 32.6389 47.8856 34.4944 47.8856C36.35 47.8856 37.8599 46.3757 37.8599 44.5202V42.9198H40.0762V44.5202C40.0762 46.3757 41.5861 47.8856 43.4416 47.8856C45.2971 47.8856 46.807 46.3757 46.807 44.5202V42.9198H47.871C49.0451 42.9198 50 41.9651 50 40.7909V7.09464C50.0001 5.92054 49.0453 4.96576 47.8711 4.96576ZM2.37637 43.046C2.37637 43.4078 2.08222 43.702 1.72043 43.702C1.35864 43.702 1.06449 43.4078 1.06449 43.046V41.729C1.06449 41.3672 1.35864 41.073 1.72043 41.073C2.08222 41.073 2.37637 41.3672 2.37637 41.729V43.046ZM9.954 44.5201C9.954 45.7888 8.92228 46.821 7.65356 46.821C6.38485 46.821 5.35253 45.7888 5.35253 44.5201V3.36543C5.35253 2.09671 6.38475 1.06439 7.65356 1.06439C8.92238 1.06439 9.954 2.09661 9.954 3.36543V44.5201ZM11.0185 41.8553V6.03025H13.2353V41.8554L11.0185 41.8553ZM18.9012 44.5201C18.9012 45.7888 17.8689 46.821 16.6001 46.821C15.3314 46.821 14.2997 45.7888 14.2997 44.5201V3.36543C14.2997 2.09671 15.3314 1.06439 16.6001 1.06439C17.8688 1.06439 18.9012 2.09661 18.9012 3.36543V44.5201ZM19.9656 41.8553V6.03025H22.182V41.8554L19.9656 41.8553ZM27.8483 44.5201C27.8483 45.7888 26.8161 46.821 25.5473 46.821C24.2786 46.821 23.2463 45.7888 23.2463 44.5201V3.36543C23.2463 2.09671 24.2786 1.06439 25.5473 1.06439C26.816 1.06439 27.8483 2.09661 27.8483 3.36543V44.5201ZM28.9128 41.8553V6.03025H31.1291V41.8554L28.9128 41.8553ZM36.7955 44.5201C36.7955 45.7888 35.7633 46.821 34.4944 46.821C33.2256 46.821 32.1934 45.7888 32.1934 44.5201V3.36543C32.1934 2.09671 33.2256 1.06439 34.4944 1.06439C35.7633 1.06439 36.7955 2.09661 36.7955 3.36543V44.5201ZM37.86 41.8553V6.03025H40.0763V41.8554L37.86 41.8553ZM45.7427 44.5201C45.7427 45.7888 44.7105 46.821 43.4417 46.821C42.173 46.821 41.1408 45.7888 41.1408 44.5201V3.36543C41.1408 2.09671 42.173 1.06439 43.4417 1.06439C44.7104 1.06439 45.7427 2.09661 45.7427 3.36543V44.5201ZM48.9356 40.7909C48.9356 41.3777 48.4579 41.8554 47.8711 41.8554H46.8071V6.03025H47.8711C48.4579 6.03025 48.9356 6.50794 48.9356 7.09474V40.7909Z" fill="black"/>
</svg>
