<svg width="100" height="100" viewBox="0 0 100 100" fill="none" xmlns="http://www.w3.org/2000/svg">
<path d="M97.9184 22.9171C96.7648 22.9171 95.8309 23.8493 95.8309 24.9999V41.667H91.6683V37.4998C91.6683 32.9054 87.9269 29.1671 83.3308 29.1671C80.8468 29.1671 78.613 30.2626 77.081 31.9974C75.5552 30.2626 73.3212 29.1671 70.8309 29.1671C68.347 29.1671 66.1132 30.2626 64.5811 31.9974C63.0553 30.2626 60.8213 29.1671 58.3311 29.1671C55.8469 29.1671 53.6131 30.2626 52.0826 31.9974C50.5553 30.2626 48.3213 29.1671 45.8326 29.1671C43.347 29.1671 41.1117 30.2626 39.5826 31.9974C38.0552 30.2626 35.8212 29.1671 33.3326 29.1671C30.847 29.1671 28.6116 30.2626 27.0825 31.9974C25.5552 30.2626 23.3212 29.1671 20.8325 29.1671C16.9585 29.1671 13.6899 31.8265 12.7622 35.4169H6.25002C5.09943 35.4169 4.1672 36.3492 4.1672 37.4998V41.667H2.08282C0.93223 41.667 0 42.5992 0 43.7498C0 44.9004 0.93223 45.8326 2.08282 45.8326H4.1672V49.9998C4.1672 51.1504 5.09943 52.0826 6.25002 52.0826H12.5V91.6683C12.5 96.2613 16.2385 99.9996 20.8329 99.9996C23.3216 99.9996 25.5556 98.901 27.0829 97.1676C28.6118 98.901 30.8472 99.9996 33.3329 99.9996C35.8216 99.9996 38.0556 98.901 39.583 97.1676C41.1119 98.901 43.3472 99.9996 45.833 99.9996C48.3217 99.9996 50.5557 98.901 52.083 97.1676C53.6135 98.901 55.8473 99.9996 58.3315 99.9996C60.8217 99.9996 63.0557 98.901 64.5815 97.1676C66.1135 98.901 68.3473 99.9996 70.8313 99.9996C73.3216 99.9996 75.5556 98.901 77.0814 97.1676C78.6134 98.901 80.8472 99.9996 83.3312 99.9996C87.9271 99.9996 91.6687 96.2611 91.6687 91.6683V45.8326H97.9187C99.0662 45.8326 100 44.9004 100 43.7498V24.9999C99.9996 23.8493 99.0658 22.9171 97.9184 22.9171ZM12.5 47.917H8.33285V39.5826H12.5V47.917ZM24.9999 91.6683C24.9999 93.9633 23.1321 95.8308 20.8327 95.8308C18.5364 95.8308 16.6671 93.9633 16.6671 91.6683V37.4998C16.6671 35.2033 18.5362 33.3325 20.8327 33.3325C23.1321 33.3325 24.9999 35.2033 24.9999 37.4998V91.6683ZM37.5 91.6683C37.4998 93.9633 35.6322 95.8308 33.3327 95.8308C31.0365 95.8308 29.1671 93.9633 29.1671 91.6683V37.4998C29.1671 35.2033 31.0363 33.3325 33.3327 33.3325C35.6322 33.3325 37.5 35.2033 37.5 37.4998V91.6683ZM49.9998 91.6683C49.9998 93.9633 48.1322 95.8308 45.8326 95.8308C43.5363 95.8308 41.667 93.9633 41.667 91.6683V37.4998C41.667 35.2033 43.5361 33.3325 45.8326 33.3325C48.132 33.3325 49.9998 35.2033 49.9998 37.4998V91.6683ZM62.4999 91.6683C62.4999 93.9633 60.6323 95.8308 58.3311 95.8308C56.0362 95.8308 54.1686 93.9633 54.1686 91.6683V37.4998C54.1686 35.2033 56.0362 33.3325 58.3311 33.3325C60.6321 33.3325 62.4999 35.2033 62.4999 37.4998V91.6683ZM74.9997 91.6683C74.9997 93.9633 73.1321 95.8308 70.8309 95.8308C68.5362 95.8308 66.6684 93.9633 66.6684 91.6683V37.4998C66.6684 35.2033 68.536 33.3325 70.8309 33.3325C73.1319 33.3325 74.9997 35.2033 74.9997 37.4998V91.6683ZM87.4996 91.6683C87.4996 93.9633 85.632 95.8308 83.3308 95.8308C81.0361 95.8308 79.1683 93.9633 79.1683 91.6683V37.4998C79.1683 35.2033 81.0359 33.3325 83.3308 33.3325C85.6318 33.3325 87.4996 35.2033 87.4996 37.4998V91.6683ZM69.7016 20.2483C69.4454 19.3618 69.604 18.7163 70.2266 18.0891C71.9173 16.3909 72.4788 14.186 71.8013 11.8758C71.3497 10.3254 70.4708 9.22992 70.3608 9.09261C70.3548 9.09261 70.3548 9.09105 70.3548 9.09105V9.08812C69.9702 8.62738 69.3966 8.33285 68.7495 8.33285C67.5991 8.33285 66.6684 9.26664 66.6684 10.4172C66.6684 10.9223 66.8454 11.3862 67.1446 11.7463C67.1507 11.7508 67.5901 12.3202 67.8038 13.0463C68.051 13.8993 67.8954 14.528 67.2727 15.1491C65.5882 16.844 65.0237 19.0641 65.695 21.3987C66.1497 22.9811 67.0286 24.1011 67.1262 24.2247V24.2231C67.5108 24.6962 68.0936 24.9999 68.7497 24.9999C69.9003 24.9999 70.8309 24.0677 70.8309 22.9171C70.8309 22.4212 70.66 21.9665 70.3731 21.6095C70.3671 21.6034 69.9153 21.0067 69.7016 20.2483ZM52.4721 18.869C51.9914 16.9479 52.376 15.3153 53.644 13.8794C55.8717 11.3616 56.5797 8.27484 55.6948 4.94846C55.0721 2.61681 53.876 0.997855 53.7416 0.820902V0.824027C53.357 0.325001 52.7606 0 52.083 0C50.932 0 49.9998 0.93223 49.9998 2.08282C49.9998 2.55431 50.157 2.98771 50.4209 3.33556H50.4178C50.427 3.34767 51.2951 4.52873 51.6965 6.13245C52.1756 8.05179 51.791 9.68461 50.5215 11.1204C48.2969 13.6381 47.5889 16.7251 48.474 20.0514C49.0936 22.3831 50.2914 24.002 50.424 24.179L50.4272 24.1759C50.6203 24.4322 50.8705 24.6401 51.1578 24.7831C51.4452 24.9261 51.7619 25.0003 52.0828 24.9999C53.2348 24.9999 54.1688 24.0677 54.1688 22.9171C54.1688 22.4456 54.0102 22.0122 53.7477 21.6643C53.7385 21.6522 52.8703 20.4712 52.4721 18.869ZM37.0392 21.6095C37.0347 21.6034 36.5845 21.0067 36.3664 20.2483C36.1115 19.3618 36.2687 18.7163 36.8927 18.0891C38.5849 16.3909 39.1433 14.186 38.4673 11.8758C38.0142 10.3254 37.1414 9.23304 37.0238 9.09261C37.0238 9.09261 37.0238 9.09105 37.0222 9.09105L37.0207 9.08656V9.08812C36.6376 8.62738 36.0624 8.33285 35.4169 8.33285C34.2663 8.33285 33.3326 9.26664 33.3326 10.4172C33.3326 10.9223 33.5126 11.3862 33.8117 11.7463C33.8162 11.7508 34.2556 12.3202 34.4677 13.0463C34.7179 13.8993 34.5593 14.528 33.9398 15.1491C32.2523 16.844 31.6908 19.0641 32.3622 21.3987C32.8169 22.9811 33.6958 24.1011 33.7951 24.2247V24.2231C34.1781 24.6962 34.7609 24.9999 35.4171 24.9999C36.5677 24.9999 37.5 24.0677 37.5 22.9171C37.5 22.4212 37.3259 21.9665 37.0376 21.6095H37.0392Z" fill="black"/>
</svg>
