<svg width="128" height="120" viewBox="0 0 128 120" fill="none" xmlns="http://www.w3.org/2000/svg">
<path d="M126.991 40.3167L64.991 0.31667C64.6687 0.109909 64.2939 0 63.911 0C63.5281 0 63.1532 0.109909 62.831 0.31667L0.830985 40.3167C0.415464 40.616 0.130599 41.0633 0.0350939 41.5665C-0.0604112 42.0696 0.0407212 42.5902 0.31765 43.021C0.594578 43.4517 1.0262 43.7599 1.52357 43.8819C2.02094 44.0039 2.54616 43.9304 2.99098 43.6767L7.91098 40.5067V117.997C7.91098 118.527 8.1217 119.036 8.49677 119.411C8.87184 119.786 9.38055 119.997 9.91098 119.997H117.911C118.441 119.997 118.95 119.786 119.325 119.411C119.7 119.036 119.911 118.527 119.911 117.997V40.5067L124.831 43.6767C125.151 43.8878 125.527 43.9992 125.911 43.9967C126.342 43.9956 126.762 43.8551 127.107 43.5961C127.451 43.3372 127.703 42.9737 127.825 42.5599C127.946 42.146 127.931 41.704 127.78 41.2998C127.63 40.8955 127.353 40.5507 126.991 40.3167ZM115.911 37.9967V115.997H11.911V37.9267L63.911 4.37667L115.911 37.9267V37.9967Z" fill="black"/>
<path d="M72.911 80.9967C75.5631 80.9967 78.1067 79.9431 79.982 78.0677C81.8574 76.1924 82.911 73.6488 82.911 70.9967C82.911 70.4662 82.7003 69.9575 82.3252 69.5824C81.9501 69.2074 81.4414 68.9967 80.911 68.9967H72.911C72.3805 68.9967 71.8718 69.2074 71.4968 69.5824C71.1217 69.9575 70.911 70.4662 70.911 70.9967C70.911 71.5271 71.1217 72.0358 71.4968 72.4109C71.8718 72.786 72.3805 72.9967 72.911 72.9967H78.571C78.2044 74.0336 77.5598 74.9499 76.7076 75.6452C75.8555 76.3406 74.8286 76.7884 73.7392 76.9397C72.6498 77.0909 71.5398 76.9398 70.5304 76.5029C69.5211 76.0659 68.6513 75.3599 68.0161 74.462C67.3808 73.5642 67.0046 72.509 66.9285 71.4118C66.8524 70.3145 67.0794 69.2175 67.5846 68.2406C68.0898 67.2636 68.8539 66.4443 69.7932 65.8722C70.7326 65.3001 71.8111 64.9972 72.911 64.9967C73.8079 64.9946 74.6935 65.1963 75.501 65.5867C75.7394 65.7281 76.0046 65.8184 76.2797 65.8519C76.5549 65.8854 76.834 65.8613 77.0993 65.7812C77.3647 65.7011 77.6105 65.5667 77.8212 65.3866C78.0318 65.2064 78.2027 64.9845 78.3231 64.7348C78.4434 64.4851 78.5105 64.2131 78.5201 63.9361C78.5298 63.6591 78.4817 63.3831 78.3791 63.1256C78.2764 62.8681 78.1213 62.6348 77.9236 62.4405C77.726 62.2462 77.4901 62.095 77.231 61.9967C75.8851 61.341 74.4081 60.9991 72.911 60.9967C70.2588 60.9967 67.7153 62.0502 65.8399 63.9256C63.9645 65.801 62.911 68.3445 62.911 70.9967C62.911 73.6488 63.9645 76.1924 65.8399 78.0677C67.7153 79.9431 70.2588 80.9967 72.911 80.9967ZM37.911 76.9967H27.911V62.9967C27.911 62.4662 27.7003 61.9575 27.3252 61.5824C26.9501 61.2074 26.4414 60.9967 25.911 60.9967C25.3805 60.9967 24.8718 61.2074 24.4968 61.5824C24.1217 61.9575 23.911 62.4662 23.911 62.9967V78.9967C23.911 79.5271 24.1217 80.0358 24.4968 80.4109C24.8718 80.7859 25.3805 80.9967 25.911 80.9967H37.911C38.4414 80.9967 38.9501 80.7859 39.3252 80.4109C39.7003 80.0358 39.911 79.5271 39.911 78.9967C39.911 78.4662 39.7003 77.9575 39.3252 77.5824C38.9501 77.2074 38.4414 76.9967 37.911 76.9967ZM49.911 60.9967C47.9332 60.9967 45.9998 61.5832 44.3553 62.682C42.7108 63.7808 41.4291 65.3426 40.6722 67.1698C39.9153 68.9971 39.7173 71.0078 40.1031 72.9476C40.489 74.8874 41.4414 76.6692 42.8399 78.0677C44.2384 79.4663 46.0203 80.4187 47.9601 80.8045C49.8999 81.1904 51.9106 80.9923 53.7378 80.2355C55.5651 79.4786 57.1269 78.1969 58.2257 76.5524C59.3245 74.9079 59.911 72.9745 59.911 70.9967C59.911 68.3445 58.8574 65.801 56.982 63.9256C55.1067 62.0502 52.5631 60.9967 49.911 60.9967ZM49.911 76.9967C48.7243 76.9967 47.5643 76.6448 46.5776 75.9855C45.5909 75.3262 44.8218 74.3891 44.3677 73.2928C43.9136 72.1964 43.7948 70.99 44.0263 69.8261C44.2578 68.6622 44.8292 67.5931 45.6683 66.754C46.5075 65.9149 47.5766 65.3435 48.7404 65.112C49.9043 64.8804 51.1107 64.9993 52.2071 65.4534C53.3034 65.9075 54.2405 66.6765 54.8998 67.6632C55.5591 68.6499 55.911 69.81 55.911 70.9967C55.911 72.588 55.2788 74.1141 54.1536 75.2393C53.0284 76.3645 51.5023 76.9967 49.911 76.9967ZM95.911 80.9967C97.8888 80.9967 99.8222 80.4102 101.467 79.3114C103.111 78.2125 104.393 76.6508 105.15 74.8235C105.907 72.9962 106.105 70.9856 105.719 69.0458C105.333 67.1059 104.381 65.3241 102.982 63.9256C101.584 62.5271 99.8017 61.5747 97.8619 61.1888C95.9221 60.803 93.9114 61.001 92.0841 61.7579C90.2569 62.5147 88.6951 63.7965 87.5963 65.441C86.4975 67.0855 85.911 69.0188 85.911 70.9967C85.911 73.6488 86.9645 76.1924 88.8399 78.0677C90.7153 79.9431 93.2588 80.9967 95.911 80.9967ZM95.911 64.9967C97.0977 64.9967 98.2577 65.3486 99.2444 66.0078C100.231 66.6671 101 67.6042 101.454 68.7006C101.908 69.7969 102.027 71.0033 101.796 72.1672C101.564 73.3311 100.993 74.4002 100.154 75.2393C99.3145 76.0784 98.2454 76.6499 97.0815 76.8814C95.9176 77.1129 94.7112 76.9941 93.6149 76.5399C92.5185 76.0858 91.5815 75.3168 90.9222 74.3301C90.2629 73.3434 89.911 72.1834 89.911 70.9967C89.911 69.4054 90.5431 67.8792 91.6683 66.754C92.7936 65.6288 94.3197 64.9967 95.911 64.9967Z" fill="black"/>
</svg>
