<svg width="345" height="31" viewBox="0 0 345 31" fill="none" xmlns="http://www.w3.org/2000/svg">
<path d="M13.7758 11.7705C16.7839 11.7705 19.2252 14.2118 19.2252 17.2198V25.1104C19.2252 28.1184 16.7839 30.5161 13.7758 30.5161H0V23.541H12.2064V18.7892H5.40571C2.39769 18.7892 0 16.3479 0 13.3399V5.44931C0 2.44129 2.44129 0 5.40571 0H19.2252V7.01871H6.97511V11.7705H13.7758ZM43.5944 0H50.5696V30.5161H43.5944V16.8711L39.1478 27.5953H36.9245L32.4779 16.8711V30.5161H25.5028V0H32.4779L38.0144 13.3835L43.5944 0ZM72.2796 0L80.7805 30.5161H73.8054L72.5848 26.1131H65.0429L63.8223 30.5161H56.8472L65.3481 0H72.2796ZM67.0047 19.0072H70.623L68.792 12.5116L67.0047 19.0072ZM101.444 0C104.452 0 106.894 2.44129 106.894 5.44931V16.9146C106.894 19.2252 105.455 21.1869 103.45 21.9716L106.894 30.5161H99.4825L96.1694 22.364H92.2894V30.5161H85.3143V0H101.444ZM98.4799 15.3452C99.2646 15.3452 99.9185 14.7349 99.9185 13.9502V8.41373C99.9185 7.62903 99.2646 7.01871 98.4799 7.01871H92.2894V15.3452H98.4799ZM113.04 0H134.663V7.01871H127.339V30.5161H120.364V7.01871H113.04V0ZM168.754 7.01871H156.548V11.7705H165.31V18.7456H156.548V23.541H168.754V30.5161H149.573V0H168.754V7.01871ZM189.636 0H196.611V30.5161H189.636L182.007 14.6477V30.5161H175.032V0H182.007L189.636 15.912V0ZM224.468 7.01871H209.864V23.541H217.493V18.7456H213.656V11.7705H224.468V25.0668C224.468 28.0748 222.027 30.5161 219.018 30.5161H208.294C205.286 30.5161 202.889 28.0748 202.889 25.0668V5.44931C202.889 2.44129 205.286 0 208.294 0H224.468V7.01871ZM237.721 0V30.5161H230.745V0H237.721ZM258.602 0H265.577V30.5161H258.602L250.973 14.6477V30.5161H243.998V0H250.973L258.602 15.912V0ZM291.037 7.01871H278.83V11.7705H287.593V18.7456H278.83V23.541H291.037V30.5161H271.855V0H291.037V7.01871ZM316.496 7.01871H304.289V11.7705H313.052V18.7456H304.289V23.541H316.496V30.5161H297.314V0H316.496V7.01871ZM338.903 0C341.911 0 344.353 2.44129 344.353 5.44931V16.9146C344.353 19.2252 342.914 21.1869 340.909 21.9716L344.353 30.5161H336.941L333.628 22.364H329.748V30.5161H322.773V0H338.903ZM335.939 15.3452C336.723 15.3452 337.377 14.7349 337.377 13.9502V8.41373C337.377 7.62903 336.723 7.01871 335.939 7.01871H329.748V15.3452H335.939Z" fill="#FFD25B"/>
</svg>
