<svg width="348" height="37" viewBox="0 0 348 37" fill="none" xmlns="http://www.w3.org/2000/svg">
<path d="M17.2891 27.1049C17.3914 28.8432 16.9313 30.7859 15.9599 32.2174C15.4997 32.8821 14.9885 33.5467 14.3239 34.1091C13.9149 34.4158 13.5059 34.7737 13.0457 35.0293C12.5856 35.285 12.0743 35.4895 11.6142 35.694C10.0804 36.3586 8.23993 36.4097 6.65504 36.0007C5.83703 35.7962 5.07015 35.4895 4.3544 35.0293C3.68977 34.6203 2.97401 34.1091 2.46275 33.4956C1.90037 32.8821 1.38912 32.2174 1.03124 31.4506C0.82674 30.9904 0.571113 30.4792 0.417737 29.9679C0.315486 29.4567 0.162109 28.1274 0.162109 27.6161C0.162109 26.0824 5.88816 26.0824 5.88816 27.6161C5.88816 28.8943 7.88205 32.3197 10.9496 29.2522C12.2277 27.4116 11.0518 25.3155 9.92707 23.7817C8.1888 21.6345 5.93928 19.9985 4.09877 17.9534C3.02513 16.7776 1.9515 15.4483 1.28687 13.9657C0.928991 13.1476 0.622238 12.3296 0.417737 11.4094C-0.349145 7.16597 0.980117 -0.400599 10.2338 0.468534C14.8862 0.928663 16.9313 4.91645 16.9313 7.6261C16.9313 9.15986 11.103 9.15986 11.103 7.6261C11.103 5.58108 5.32578 5.32545 6.04154 9.82449C6.14379 10.2846 6.24604 10.7447 6.45054 11.2049C6.75729 11.8695 7.11517 12.4319 7.52417 12.9943C8.03543 13.6589 8.54668 14.2213 9.16019 14.7837C11.4097 16.9821 13.966 18.9759 15.602 21.7878C16.5734 23.4239 17.1358 25.2132 17.2891 27.1049ZM52.5657 2.4113V35.1316C52.5657 36.6653 46.7885 36.6653 46.7885 35.1316V18.1579C40.858 34.6715 40.7557 34.876 40.6535 35.0805C39.9888 36.6142 36.1033 36.6142 35.4387 35.0805C35.3364 34.876 35.2342 34.6715 29.2525 17.9534V35.1316C29.2525 36.6653 23.4242 36.6653 23.4242 35.1316V2.51355V2.4113C23.4242 -0.0938456 28.5879 0.008405 29.0991 1.38879L38.0461 24.9065L46.8396 1.38879C47.3509 0.008405 52.5657 -0.144971 52.5657 2.4113ZM72.7602 1.54217L78.0773 34.0068C78.4863 36.5631 72.7091 36.8187 72.4024 34.9782L71.3799 28.8432H65.3982L64.3757 34.9782C64.12 36.512 58.2917 36.5631 58.7007 34.0068L64.0689 1.54217C64.3245 0.00840485 72.5557 0.161781 72.7602 1.54217ZM70.4085 23.066L68.4146 10.847L66.3696 23.066H70.4085ZM103.384 33.3422C104.458 35.8985 98.732 37.1255 98.0673 35.5917L97.7606 34.876C96.0734 30.837 94.2329 26.2358 92.5458 22.1457H90.0406V35.1316C90.0406 36.6653 84.2123 36.6653 84.2123 35.1316V3.68944C84.2123 1.28654 84.2635 0.519659 87.8422 0.468534H93.1082C94.9487 0.468534 96.9937 0.519659 98.5786 1.54217C102.055 3.74056 103.129 7.6261 103.078 11.5628C103.027 14.8348 102.566 18.1068 99.3455 20.5097C98.9876 20.7142 98.6808 20.9187 98.3741 21.1232C100.01 25.0087 101.799 29.4567 103.384 33.3422ZM90.0406 16.3174H94.4374C96.7892 16.3174 97.1471 13.4544 97.2493 12.6364C97.3005 12.074 97.3005 10.029 97.1982 9.05761C96.9937 7.16597 96.2779 6.19458 93.9262 6.19458H90.0406V16.3174ZM109.775 0.468534H130.123C131.657 0.468534 131.657 6.19458 130.123 6.19458L122.863 6.29683V35.1316C122.863 36.6653 117.035 36.6653 117.035 35.1316V6.29683L109.775 6.19458C108.241 6.19458 108.241 0.468534 109.775 0.468534ZM152.516 27.1049C152.618 28.8432 152.158 30.7859 151.187 32.2174C150.727 32.8821 150.215 33.5467 149.551 34.1091C149.142 34.4158 148.733 34.7737 148.273 35.0293C147.812 35.285 147.301 35.4895 146.841 35.694C145.307 36.3586 143.467 36.4097 141.882 36.0007C141.064 35.7962 140.297 35.4895 139.581 35.0293C138.917 34.6203 138.201 34.1091 137.69 33.4956C137.127 32.8821 136.616 32.2174 136.258 31.4506C136.054 30.9904 135.798 30.4792 135.645 29.9679C135.542 29.4567 135.389 28.1274 135.389 27.6161C135.389 26.0824 141.115 26.0824 141.115 27.6161C141.115 28.8943 143.109 32.3197 146.176 29.2522C147.455 27.4116 146.279 25.3155 145.154 23.7817C143.416 21.6345 141.166 19.9985 139.326 17.9534C138.252 16.7776 137.178 15.4483 136.514 13.9657C136.156 13.1476 135.849 12.3296 135.645 11.4094C134.878 7.16597 136.207 -0.400599 145.461 0.468534C150.113 0.928663 152.158 4.91645 152.158 7.6261C152.158 9.15986 146.33 9.15986 146.33 7.6261C146.33 5.58108 140.553 5.32545 141.268 9.82449C141.371 10.2846 141.473 10.7447 141.677 11.2049C141.984 11.8695 142.342 12.4319 142.751 12.9943C143.262 13.6589 143.773 14.2213 144.387 14.7837C146.637 16.9821 149.193 18.9759 150.829 21.7878C151.8 23.4239 152.363 25.2132 152.516 27.1049ZM179.817 30.428H187.128C188.662 30.428 188.662 36.2563 187.128 36.2563H177.261C173.989 36.2563 173.989 36.2563 173.989 33.4956V3.22931C173.989 0.468533 173.989 0.468534 177.107 0.417408L187.077 0.468534C188.611 0.468534 188.611 6.29683 187.077 6.29683H179.817V15.6017H184.929C186.463 15.6017 186.463 21.4811 184.929 21.4811H179.817V30.428ZM208.601 19.8962V1.54217C208.601 0.00840485 214.224 0.00840485 214.224 1.54217V34.1091C214.224 36.6653 209.316 36.7165 208.805 35.4383L201.136 16.6242V35.1316C201.136 36.6653 195.461 36.6653 195.461 35.1316V3.17818C195.461 -0.809602 200.318 0.417408 201.085 1.95117L208.601 19.8962ZM239.685 20.1007V25.2644C239.685 26.747 239.94 30.019 238.56 32.4731C236.975 35.285 233.959 36.103 231.147 36.2563C228.386 36.4097 225.779 35.3872 223.836 33.4444C221.791 31.5017 221.484 29.0477 221.382 27.2071V27.1049V9.61999V9.51774C221.484 7.67722 221.791 5.2232 223.836 3.28043C225.779 1.33767 228.386 0.315157 231.147 0.468534C237.077 0.775286 239.429 4.40519 239.429 10.3357C239.429 11.665 233.857 11.8695 233.857 10.1312C233.857 6.14346 231.505 5.93896 229.102 6.60359C227.517 7.31934 227.21 9.15986 227.21 10.4891V26.2869C227.261 27.565 227.415 29.4055 229 30.1213C230.227 30.5303 233.959 31.1438 234.266 28.0763C234.368 27.6161 234.317 26.8493 234.317 26.2869L234.266 23.1171H232.016C230.482 23.1171 230.482 17.2377 232.016 17.2377H237.18C239.685 17.2377 239.685 17.2377 239.685 20.1007ZM246.842 35.1316V1.54217C246.842 0.00840485 252.671 0.00840485 252.671 1.54217V35.1316C252.671 36.6653 246.842 36.6653 246.842 35.1316ZM272.967 19.8962V1.54217C272.967 0.00840485 278.591 0.00840485 278.591 1.54217V34.1091C278.591 36.6653 273.683 36.7165 273.172 35.4383L265.503 16.6242V35.1316C265.503 36.6653 259.828 36.6653 259.828 35.1316V3.17818C259.828 -0.809602 264.685 0.417408 265.452 1.95117L272.967 19.8962ZM291.577 30.428H298.888C300.422 30.428 300.422 36.2563 298.888 36.2563H289.021C285.749 36.2563 285.749 36.2563 285.749 33.4956V3.22931C285.749 0.468533 285.749 0.468534 288.868 0.417408L298.837 0.468534C300.371 0.468534 300.371 6.29683 298.837 6.29683H291.577V15.6017H296.69C298.223 15.6017 298.223 21.4811 296.69 21.4811H291.577V30.428ZM313.05 30.428H320.361C321.895 30.428 321.895 36.2563 320.361 36.2563H310.494C307.222 36.2563 307.222 36.2563 307.222 33.4956V3.22931C307.222 0.468533 307.222 0.468534 310.34 0.417408L320.31 0.468534C321.843 0.468534 321.843 6.29683 320.31 6.29683H313.05V15.6017H318.162C319.696 15.6017 319.696 21.4811 318.162 21.4811H313.05V30.428ZM347.866 33.3422C348.94 35.8985 343.214 37.1255 342.549 35.5917L342.242 34.876C340.555 30.837 338.715 26.2358 337.028 22.1457H334.523V35.1316C334.523 36.6653 328.694 36.6653 328.694 35.1316V3.68944C328.694 1.28654 328.745 0.519659 332.324 0.468534H337.59C339.431 0.468534 341.476 0.519659 343.06 1.54217C346.537 3.74056 347.611 7.6261 347.559 11.5628C347.508 14.8348 347.048 18.1068 343.827 20.5097C343.469 20.7142 343.163 20.9187 342.856 21.1232C344.492 25.0087 346.281 29.4567 347.866 33.3422ZM334.523 16.3174H338.919C341.271 16.3174 341.629 13.4544 341.731 12.6364C341.782 12.074 341.782 10.029 341.68 9.05761C341.476 7.16597 340.76 6.19458 338.408 6.19458H334.523V16.3174Z" fill="#FFD25B"/>
</svg>
