<svg width="430" height="62" viewBox="0 0 430 62" fill="none" xmlns="http://www.w3.org/2000/svg">
<path d="M6.11662 31.9713L16.8315 28.067V61.4915H24.4665V5.33577L40.1701 14.7493V61.4915H44.7684V45.1372L56.1991 53.3143V61.4915H61.4915V46.6121L56.0473 43.0983V26.2667L44.7684 19.3693V12.4068L24.7051 0.130142V0L24.5749 0.0650709L24.4665 0V0.108453L13.6648 4.48986V22.5144L0 28.067V61.4915H6.11662V31.9713ZM44.7684 24.8569L52.4901 29.5203V40.7775L44.7684 35.7236V24.8569Z" fill="#FFDF89"/>
<path d="M98.7758 27.7705C101.784 27.7705 104.225 30.2118 104.225 33.2198V41.1104C104.225 44.1184 101.784 46.5161 98.7758 46.5161H85V39.541H97.2064V34.7892H90.4057C87.3977 34.7892 85 32.3479 85 29.3399V21.4493C85 18.4413 87.4413 16 90.4057 16H104.225V23.0187H91.9751V27.7705H98.7758ZM128.594 16H135.57V46.5161H128.594V32.8711L124.148 43.5953H121.924L117.478 32.8711V46.5161H110.503V16H117.478L123.014 29.3835L128.594 16ZM157.28 16L165.781 46.5161H158.805L157.585 42.1131H150.043L148.822 46.5161H141.847L150.348 16H157.28ZM152.005 35.0072H155.623L153.792 28.5116L152.005 35.0072ZM186.444 16C189.452 16 191.894 18.4413 191.894 21.4493V32.9146C191.894 35.2252 190.455 37.1869 188.45 37.9716L191.894 46.5161H184.483L181.169 38.364H177.289V46.5161H170.314V16H186.444ZM183.48 31.3452C184.265 31.3452 184.918 30.7349 184.918 29.9502V24.4137C184.918 23.629 184.265 23.0187 183.48 23.0187H177.289V31.3452H183.48ZM198.04 16H219.663V23.0187H212.339V46.5161H205.364V23.0187H198.04V16ZM253.754 23.0187H241.548V27.7705H250.31V34.7456H241.548V39.541H253.754V46.5161H234.573V16H253.754V23.0187ZM274.636 16H281.611V46.5161H274.636L267.007 30.6477V46.5161H260.032V16H267.007L274.636 31.912V16ZM309.468 23.0187H294.864V39.541H302.493V34.7456H298.656V27.7705H309.468V41.0668C309.468 44.0748 307.027 46.5161 304.018 46.5161H293.294C290.286 46.5161 287.889 44.0748 287.889 41.0668V21.4493C287.889 18.4413 290.286 16 293.294 16H309.468V23.0187ZM322.721 16V46.5161H315.745V16H322.721ZM343.602 16H350.577V46.5161H343.602L335.973 30.6477V46.5161H328.998V16H335.973L343.602 31.912V16ZM376.037 23.0187H363.83V27.7705H372.593V34.7456H363.83V39.541H376.037V46.5161H356.855V16H376.037V23.0187ZM401.496 23.0187H389.289V27.7705H398.052V34.7456H389.289V39.541H401.496V46.5161H382.314V16H401.496V23.0187ZM423.903 16C426.911 16 429.353 18.4413 429.353 21.4493V32.9146C429.353 35.2252 427.914 37.1869 425.909 37.9716L429.353 46.5161H421.941L418.628 38.364H414.748V46.5161H407.773V16H423.903ZM420.939 31.3452C421.723 31.3452 422.377 30.7349 422.377 29.9502V24.4137C422.377 23.629 421.723 23.0187 420.939 23.0187H414.748V31.3452H420.939Z" fill="#FFD25B"/>
</svg>
