<svg width="429" height="70" viewBox="0 0 429 70" fill="none" xmlns="http://www.w3.org/2000/svg">
<path d="M29.1475 16.9678C26.8084 16.9678 24.9054 15.0648 24.9054 12.7259C24.9054 10.387 26.8084 8.48399 29.1475 8.48399C31.4864 8.48399 33.3894 10.387 33.3894 12.7259C33.3894 15.0648 31.4864 16.9678 29.1475 16.9678ZM29.1475 11.3118C28.3677 11.3118 27.7333 11.9461 27.7333 12.7257C27.7333 13.5055 28.3676 14.1398 29.1475 14.1398C29.9269 14.1398 30.5614 13.5055 30.5614 12.7257C30.5612 11.9461 29.9269 11.3118 29.1475 11.3118Z" fill="#D7D7D7"/>
<path d="M56.5592 69.2849H1.41407C0.633103 69.2849 0 68.6518 0 67.8709V46.6208C0 45.9534 0.466778 45.3769 1.11957 45.2379L18.7633 41.4823C19.3674 41.3541 19.9854 41.6321 20.2891 42.1705L24.9739 50.4708L28.5916 48.2398C29.0623 47.9496 29.6597 47.9605 30.1199 48.268L33.5299 50.549L40.2052 42.2048C40.5755 41.7417 41.1958 41.5589 41.7586 41.7473L57.0083 46.8559C57.5846 47.0491 57.973 47.5888 57.973 48.1966V67.8712C57.9731 68.6518 57.3402 69.2849 56.5592 69.2849ZM2.82798 66.457H55.1451V49.2141L41.7966 44.7421L34.9272 53.3289C34.4685 53.9022 33.6474 54.0291 33.0369 53.6209L29.3028 51.1233L25.2072 53.6492C24.8799 53.8509 24.4847 53.911 24.1123 53.8149C23.7399 53.7189 23.4227 53.4755 23.2338 53.1406L18.3366 44.4644L2.82798 47.7655V66.457Z" fill="#D7D7D7"/>
<path d="M45.2473 69.2849H12.726C11.945 69.2849 11.3119 68.6518 11.3119 67.8709V56.0742C11.3119 55.2933 11.9449 54.6601 12.726 54.6601C13.507 54.6601 14.1399 55.2932 14.1399 56.0742V66.4568H43.8334V56.0742C43.8334 55.2933 44.4665 54.6601 45.2474 54.6601C46.0284 54.6601 46.6615 55.2932 46.6615 56.0742V67.8709C46.6613 68.6518 46.0282 69.2849 45.2473 69.2849Z" fill="#D7D7D7"/>
<path d="M24.4652 53.8597C24.3472 53.8597 24.2285 53.8448 24.1123 53.8149C23.7399 53.7189 23.4227 53.4755 23.2338 53.1406L17.8265 43.5601C17.5607 43.0894 17.5868 42.5083 17.8934 42.0632L20.732 37.9409C20.9953 37.5587 21.4294 37.3298 21.8936 37.3289C21.8946 37.3289 21.8957 37.3289 21.8968 37.3289C22.3597 37.3289 22.7934 37.5553 23.0578 37.9357L30.4955 48.6359C30.7172 48.9548 30.7979 49.3511 30.7187 49.7314C30.6395 50.1116 30.4073 50.4426 30.0766 50.6466L25.2072 53.6492C24.9817 53.7882 24.7251 53.8597 24.4652 53.8597ZM20.7235 42.9395L24.9739 50.4708L27.3203 49.0237L21.9018 41.2282L20.7235 42.9395Z" fill="#D7D7D7"/>
<path d="M33.8223 53.8597C33.5511 53.8597 33.2775 53.7818 33.0369 53.6209L28.5479 50.6184C28.2217 50.4002 28.0007 50.0561 27.9382 49.6687C27.8756 49.2812 27.9768 48.8849 28.2177 48.5752L36.5361 37.8751C36.7981 37.5382 37.1984 37.3376 37.625 37.3293C38.0501 37.3212 38.4594 37.5059 38.7342 37.8324L42.3915 42.1773C42.826 42.6934 42.8353 43.4444 42.4138 43.9712L34.9272 53.3289C34.6493 53.6762 34.2387 53.8597 33.8223 53.8597ZM31.3823 49.1122L33.5299 50.549L39.4804 43.1106L37.696 40.9905L31.3823 49.1122Z" fill="#D7D7D7"/>
<path d="M29.3121 39.5915C25.5973 39.5915 22.2021 37.2196 19.7516 32.9127C17.8732 29.6109 16.6595 25.2647 16.6595 21.8399C16.6595 21.0727 16.7186 20.3292 16.8348 19.6305C16.9484 18.9486 17.5383 18.4488 18.2297 18.4488H40.4467C41.1378 18.4488 41.7277 18.9484 41.8416 19.6302C41.958 20.3282 42.0169 21.0717 42.0169 21.8399C42.0169 25.2691 40.8001 29.6161 38.9172 32.9145C36.4591 37.2202 33.0479 39.5915 29.3121 39.5915ZM19.5011 21.2767C19.4919 21.463 19.4873 21.6514 19.4873 21.8397C19.4873 24.8101 20.5559 28.6075 22.2096 31.5142C23.5719 33.9088 25.9101 36.7634 29.312 36.7634C35.7025 36.7634 39.1888 26.9049 39.1888 21.8397C39.1888 21.6513 39.1842 21.463 39.175 21.2767H19.5011Z" fill="#D7D7D7"/>
<path d="M40.8151 16.9678H17.1582C16.4729 16.9678 15.8863 16.4764 15.7661 15.8018C15.6252 15.0111 15.5537 14.2141 15.5537 13.4328C15.5537 6.02589 21.5795 3.8147e-05 28.9865 3.8147e-05C36.3933 3.8147e-05 42.4193 6.02589 42.4193 13.4328C42.4193 14.2141 42.3479 15.0111 42.2067 15.8018C42.0869 16.4764 41.5002 16.9678 40.8151 16.9678ZM18.4062 14.1398H39.5671C39.5832 13.9027 39.5915 13.6666 39.5915 13.4328C39.5915 7.58538 34.8341 2.82802 28.9866 2.82802C23.1392 2.82802 18.3818 7.58538 18.3818 13.4328C18.3818 13.6666 18.3901 13.9027 18.4062 14.1398Z" fill="#D7D7D7"/>
<path d="M41.6374 21.2097H16.6572C15.2691 21.2097 14.1398 20.0804 14.1398 18.6922V16.657C14.1398 15.269 15.2691 14.1397 16.6572 14.1397H41.6374C43.0255 14.1397 44.1547 15.2688 44.1547 16.657V18.6922C44.1547 20.0804 43.0255 21.2097 41.6374 21.2097ZM16.9677 18.3819H41.3267V16.9678H16.9677V18.3819Z" fill="#D7D7D7"/>
<path d="M29.1475 11.3118C28.379 11.3118 27.7482 10.6963 27.7337 9.92461L27.573 1.44081C27.5582 0.659998 28.1791 0.0151447 28.9599 0.000343288C29.7354 -0.016747 30.3858 0.606438 30.4004 1.38725L30.5612 9.87105C30.576 10.6519 29.955 11.2967 29.1742 11.3115C29.165 11.3118 29.1565 11.3118 29.1475 11.3118Z" fill="#D7D7D7"/>
<path d="M38.1774 63.629H19.7959C19.0149 63.629 18.3818 62.996 18.3818 62.2151C18.3818 61.4341 19.0148 60.801 19.7959 60.801H38.1775C38.9584 60.801 39.5916 61.4341 39.5916 62.2151C39.5916 62.996 38.9584 63.629 38.1774 63.629Z" fill="#D7D7D7"/>
<path d="M38.1774 59.3871H19.7959C19.0149 59.3871 18.3818 58.754 18.3818 57.973C18.3818 57.192 19.0148 56.5589 19.7959 56.5589H38.1775C38.9584 56.5589 39.5916 57.192 39.5916 57.973C39.5916 58.754 38.9584 59.3871 38.1774 59.3871Z" fill="#D7D7D7"/>
<path d="M98.2892 44.1049C98.3914 45.8432 97.9313 47.786 96.9599 49.2175C96.4998 49.8821 95.9885 50.5467 95.3239 51.1091C94.9149 51.4159 94.5059 51.7738 94.0458 52.0294C93.5856 52.285 93.0744 52.4895 92.6143 52.694C91.0805 53.3586 89.24 53.4098 87.6551 53.0008C86.8371 52.7963 86.0702 52.4895 85.3545 52.0294C84.6898 51.6204 83.9741 51.1091 83.4628 50.4956C82.9004 49.8821 82.3892 49.2175 82.0313 48.4506C81.8268 47.9905 81.5712 47.4792 81.4178 46.968C81.3155 46.4567 81.1622 45.1275 81.1622 44.6162C81.1622 43.0824 86.8882 43.0824 86.8882 44.6162C86.8882 45.8943 88.8821 49.3197 91.9496 46.2522C93.2278 44.4117 92.0519 42.3155 90.9271 40.7818C89.1889 38.6345 86.9393 36.9985 85.0988 34.9535C84.0252 33.7776 82.9516 32.4483 82.2869 30.9657C81.929 30.1477 81.6223 29.3297 81.4178 28.4094C80.6509 24.166 81.9802 16.5994 91.2339 17.4686C95.8863 17.9287 97.9313 21.9165 97.9313 24.6261C97.9313 26.1599 92.103 26.1599 92.103 24.6261C92.103 22.5811 86.3258 22.3255 87.0416 26.8245C87.1438 27.2847 87.2461 27.7448 87.4506 28.2049C87.7573 28.8696 88.1152 29.4319 88.5242 29.9943C89.0355 30.6589 89.5467 31.2213 90.1602 31.7837C92.4098 33.9821 94.966 35.976 96.6021 38.7879C97.5734 40.4239 98.1358 42.2133 98.2892 44.1049ZM133.566 19.4114V52.1316C133.566 53.6654 127.789 53.6654 127.789 52.1316V35.158C121.858 51.6715 121.756 51.876 121.654 52.0805C120.989 53.6143 117.103 53.6143 116.439 52.0805C116.336 51.876 116.234 51.6715 110.253 34.9535V52.1316C110.253 53.6654 104.424 53.6654 104.424 52.1316V19.4114C104.424 16.9062 109.588 17.0085 110.099 18.3888L119.046 41.9065L127.84 18.3888C128.351 17.0085 133.566 16.8551 133.566 19.4114ZM153.76 18.5422L159.077 51.0069C159.486 53.5631 153.709 53.8188 153.402 51.9783L152.38 45.8432H146.398L145.376 51.9783C145.12 53.512 139.292 53.5631 139.701 51.0069L145.069 18.5422C145.325 17.0085 153.556 17.1618 153.76 18.5422ZM151.409 40.066L149.415 27.847L147.37 40.066H151.409ZM184.384 50.3422C185.458 52.8985 179.732 54.1255 179.067 52.5918L178.761 51.876C177.073 47.8371 175.233 43.2358 173.546 39.1458H171.041V52.1316C171.041 53.6654 165.212 53.6654 165.212 52.1316V20.6895C165.212 18.2866 165.264 17.5197 168.842 17.4686H174.108C175.949 17.4686 177.994 17.5197 179.579 18.5422C183.055 20.7406 184.129 24.6261 184.078 28.5628C184.027 31.8348 183.566 35.1069 180.346 37.5098C179.988 37.7143 179.681 37.9188 179.374 38.1233C181.01 42.0088 182.8 46.4567 184.384 50.3422ZM171.041 33.3175H175.437C177.789 33.3175 178.147 30.4544 178.249 29.6364C178.301 29.0741 178.301 27.029 178.198 26.0577C177.994 24.166 177.278 23.1946 174.926 23.1946H171.041V33.3175ZM190.775 17.4686H211.123C212.657 17.4686 212.657 23.1946 211.123 23.1946L203.863 23.2969V52.1316C203.863 53.6654 198.035 53.6654 198.035 52.1316V23.2969L190.775 23.1946C189.241 23.1946 189.241 17.4686 190.775 17.4686ZM233.516 44.1049C233.618 45.8432 233.158 47.786 232.187 49.2175C231.727 49.8821 231.215 50.5467 230.551 51.1091C230.142 51.4159 229.733 51.7738 229.273 52.0294C228.812 52.285 228.301 52.4895 227.841 52.694C226.307 53.3586 224.467 53.4098 222.882 53.0008C222.064 52.7963 221.297 52.4895 220.581 52.0294C219.917 51.6204 219.201 51.1091 218.69 50.4956C218.127 49.8821 217.616 49.2175 217.258 48.4506C217.054 47.9905 216.798 47.4792 216.645 46.968C216.542 46.4567 216.389 45.1275 216.389 44.6162C216.389 43.0824 222.115 43.0824 222.115 44.6162C222.115 45.8943 224.109 49.3197 227.176 46.2522C228.455 44.4117 227.279 42.3155 226.154 40.7818C224.416 38.6345 222.166 36.9985 220.326 34.9535C219.252 33.7776 218.178 32.4483 217.514 30.9657C217.156 30.1477 216.849 29.3297 216.645 28.4094C215.878 24.166 217.207 16.5994 226.461 17.4686C231.113 17.9287 233.158 21.9165 233.158 24.6261C233.158 26.1599 227.33 26.1599 227.33 24.6261C227.33 22.5811 221.553 22.3255 222.268 26.8245C222.371 27.2847 222.473 27.7448 222.677 28.2049C222.984 28.8696 223.342 29.4319 223.751 29.9943C224.262 30.6589 224.774 31.2213 225.387 31.7837C227.637 33.9821 230.193 35.976 231.829 38.7879C232.8 40.4239 233.363 42.2133 233.516 44.1049ZM260.817 47.4281H268.128C269.662 47.4281 269.662 53.2564 268.128 53.2564H258.261C254.989 53.2564 254.989 53.2564 254.989 50.4956V20.2294C254.989 17.4686 254.989 17.4686 258.107 17.4175L268.077 17.4686C269.611 17.4686 269.611 23.2969 268.077 23.2969H260.817V32.6017H265.93C267.463 32.6017 267.463 38.4811 265.93 38.4811H260.817V47.4281ZM289.601 36.8963V18.5422C289.601 17.0085 295.224 17.0085 295.224 18.5422V51.1091C295.224 53.6654 290.316 53.7165 289.805 52.4384L282.136 33.6242V52.1316C282.136 53.6654 276.461 53.6654 276.461 52.1316V20.1782C276.461 16.1904 281.318 17.4175 282.085 18.9512L289.601 36.8963ZM320.685 37.1008V42.2644C320.685 43.7471 320.941 47.0191 319.56 49.4731C317.975 52.285 314.959 53.103 312.147 53.2564C309.386 53.4098 306.779 52.3873 304.836 50.4445C302.791 48.5017 302.484 46.0477 302.382 44.2072V26.5178C302.484 24.6773 302.791 22.2232 304.836 20.2805C306.779 18.3377 309.386 17.3152 312.147 17.4686C318.077 17.7753 320.429 21.4052 320.429 27.3358C320.429 28.6651 314.857 28.8696 314.857 27.1313C314.857 23.1435 312.505 22.939 310.102 23.6036C308.517 24.3194 308.21 26.1599 308.21 27.4892V43.2869C308.261 44.5651 308.415 46.4056 310 47.1213C311.227 47.5303 314.959 48.1438 315.266 45.0763C315.368 44.6162 315.317 43.8493 315.317 43.2869L315.266 40.1172H313.016C311.482 40.1172 311.482 34.2377 313.016 34.2377H318.18C320.685 34.2377 320.685 34.2377 320.685 37.1008ZM327.842 52.1316V18.5422C327.842 17.0085 333.671 17.0085 333.671 18.5422V52.1316C333.671 53.6654 327.842 53.6654 327.842 52.1316ZM353.968 36.8963V18.5422C353.968 17.0085 359.591 17.0085 359.591 18.5422V51.1091C359.591 53.6654 354.683 53.7165 354.172 52.4384L346.503 33.6242V52.1316C346.503 53.6654 340.828 53.6654 340.828 52.1316V20.1782C340.828 16.1904 345.685 17.4175 346.452 18.9512L353.968 36.8963ZM372.577 47.4281H379.888C381.422 47.4281 381.422 53.2564 379.888 53.2564H370.021C366.749 53.2564 366.749 53.2564 366.749 50.4956V20.2294C366.749 17.4686 366.749 17.4686 369.868 17.4175L379.837 17.4686C381.371 17.4686 381.371 23.2969 379.837 23.2969H372.577V32.6017H377.69C379.224 32.6017 379.224 38.4811 377.69 38.4811H372.577V47.4281ZM394.05 47.4281H401.361C402.895 47.4281 402.895 53.2564 401.361 53.2564H391.494C388.222 53.2564 388.222 53.2564 388.222 50.4956V20.2294C388.222 17.4686 388.222 17.4686 391.34 17.4175L401.31 17.4686C402.843 17.4686 402.843 23.2969 401.31 23.2969H394.05V32.6017H399.162C400.696 32.6017 400.696 38.4811 399.162 38.4811H394.05V47.4281ZM428.866 50.3422C429.94 52.8985 424.214 54.1255 423.549 52.5918L423.243 51.876C421.555 47.8371 419.715 43.2358 418.028 39.1458H415.523V52.1316C415.523 53.6654 409.694 53.6654 409.694 52.1316V20.6895C409.694 18.2866 409.745 17.5197 413.324 17.4686H418.59C420.431 17.4686 422.476 17.5197 424.061 18.5422C427.537 20.7406 428.611 24.6261 428.56 28.5628C428.508 31.8348 428.048 35.1069 424.827 37.5098C424.47 37.7143 424.163 37.9188 423.856 38.1233C425.492 42.0088 427.281 46.4567 428.866 50.3422ZM415.523 33.3175H419.919C422.271 33.3175 422.629 30.4544 422.731 29.6364C422.782 29.0741 422.782 27.029 422.68 26.0577C422.476 24.166 421.76 23.1946 419.408 23.1946H415.523V33.3175Z" fill="#FFD25B"/>
</svg>
