<svg width="33" height="33" viewBox="0 0 33 33" fill="none" xmlns="http://www.w3.org/2000/svg">
<path fill-rule="evenodd" clip-rule="evenodd" d="M8.53545 16.5C8.53558 16.0905 8.37567 15.6971 8.08984 15.4038C7.804 15.1104 7.41487 14.9404 7.00545 14.93H6.40545C4.99185 14.93 3.63614 15.4916 2.63657 16.4911C1.637 17.4907 1.07545 18.8464 1.07545 20.26C1.07413 20.9608 1.21103 21.655 1.4783 22.3028C1.74557 22.9506 2.13796 23.5394 2.63303 24.0354C3.1281 24.5313 3.71612 24.9248 4.36343 25.1933C5.01075 25.4618 5.70466 25.6 6.40545 25.6H7.00545C7.42011 25.5895 7.81377 25.4154 8.10045 25.1156C8.38712 24.8158 8.54351 24.4147 8.53545 24V16.5ZM23.4754 16.5C23.4753 16.0905 23.6352 15.6971 23.9211 15.4038C24.2069 15.1104 24.596 14.9404 25.0054 14.93H25.5754C26.9891 14.93 28.3448 15.4916 29.3443 16.4911C30.3439 17.4907 30.9054 18.8464 30.9054 20.26C30.9081 21.6702 30.3519 23.0239 29.3585 24.0248C28.3651 25.0256 27.0156 25.5921 25.6054 25.6H25.0054C24.5908 25.5895 24.1971 25.4154 23.9105 25.1156C23.6238 24.8158 23.4674 24.4147 23.4754 24V16.5Z" fill="#80CBC9"/>
<path d="M32.0055 20.27C32.0038 19.3716 31.8133 18.4836 31.4464 17.6636C31.0795 16.8436 30.5442 16.1099 29.8755 15.51V11.73C29.8755 10.1888 29.5717 8.66262 28.9816 7.23882C28.3915 5.81502 27.5266 4.52147 26.4363 3.4321C25.346 2.34274 24.0517 1.47892 22.6274 0.890026C21.2031 0.301126 19.6767 -0.00130967 18.1355 4.26296e-06H13.8755C12.3342 -0.00130967 10.8078 0.301126 9.38352 0.890026C7.95922 1.47892 6.66493 2.34274 5.57464 3.4321C4.48435 4.52147 3.61943 5.81502 3.02932 7.23882C2.4392 8.66262 2.13547 10.1888 2.13547 11.73V15.5C1.48622 16.0794 0.96214 16.7852 0.595365 17.5743C0.228589 18.3634 0.0268452 19.2191 0.00250127 20.0889C-0.0218427 20.9588 0.131726 21.8244 0.453793 22.6328C0.77586 23.4412 1.25964 24.1752 1.87547 24.79C2.55616 25.4381 3.36276 25.9394 4.24523 26.2628C5.1277 26.5862 6.06721 26.7248 7.00547 26.67C7.70391 26.6595 8.36971 26.3726 8.85703 25.8721C9.34436 25.3717 9.61349 24.6985 9.60547 24V16.5C9.60293 15.8084 9.32912 15.1455 8.84293 14.6537C8.35673 14.1619 7.69696 13.8805 7.00547 13.87H6.40547C5.67962 13.8717 4.95935 13.9968 4.27547 14.24V11.74C4.27547 9.19393 5.28689 6.75213 7.08724 4.95178C8.88759 3.15143 11.3294 2.14 13.8755 2.14H18.1455C19.4062 2.14 20.6545 2.38832 21.8192 2.87076C22.984 3.35321 24.0423 4.06034 24.9337 4.95178C25.8251 5.84322 26.5323 6.90152 27.0147 8.06624C27.4972 9.23097 27.7455 10.4793 27.7455 11.74V14.24C27.0616 13.9968 26.3413 13.8717 25.6155 13.87H25.0055C24.314 13.8805 23.6542 14.1619 23.168 14.6537C22.6818 15.1455 22.408 15.8084 22.4055 16.5V24C22.3975 24.6985 22.6666 25.3717 23.1539 25.8721C23.6412 26.3726 24.307 26.6595 25.0055 26.67H25.5755C25.5755 27.5187 25.2383 28.3326 24.6382 28.9327C24.0381 29.5329 23.2242 29.87 22.3755 29.87H16.0055C15.8569 29.8556 15.707 29.8724 15.5654 29.9194C15.4238 29.9663 15.2935 30.0424 15.183 30.1427C15.0725 30.243 14.9842 30.3653 14.9238 30.5018C14.8634 30.6382 14.8321 30.7858 14.8321 30.935C14.8321 31.0842 14.8634 31.2318 14.9238 31.3683C14.9842 31.5047 15.0725 31.627 15.183 31.7273C15.2935 31.8276 15.4238 31.9037 15.5654 31.9506C15.707 31.9976 15.8569 32.0144 16.0055 32H22.4055C23.8191 32 25.1748 31.4385 26.1743 30.4389C27.1739 29.4393 27.7355 28.0836 27.7355 26.67V26.3C28.98 25.8639 30.0589 25.0528 30.8236 23.9783C31.5882 22.9038 32.0011 21.6188 32.0055 20.3V20.27ZM7.00547 16C7.13808 16 7.26525 16.0527 7.35902 16.1465C7.45279 16.2402 7.50547 16.3674 7.50547 16.5V24C7.50547 24.59 6.82547 24.5 6.43547 24.5C5.87778 24.4992 5.32574 24.3883 4.81095 24.1739C4.29616 23.9594 3.82874 23.6454 3.43547 23.25C2.64646 22.4508 2.20404 21.373 2.20404 20.25C2.20404 19.127 2.64646 18.0492 3.43547 17.25C4.22239 16.4587 5.28955 16.0096 6.40547 16H7.00547ZM28.6555 23.28C28.2622 23.6754 27.7948 23.9894 27.28 24.2039C26.7652 24.4184 26.2132 24.5292 25.6555 24.53C25.2655 24.53 24.5855 24.62 24.5855 24.03V16.5C24.5839 16.3802 24.6255 16.2637 24.7026 16.172C24.7797 16.0802 24.8872 16.0192 25.0055 16H25.5755C26.1332 16.0008 26.6852 16.1117 27.2 16.3262C27.7148 16.5406 28.1822 16.8546 28.5755 17.25C29.3645 18.0492 29.8069 19.127 29.8069 20.25C29.8069 21.373 29.3645 22.4508 28.5755 23.25L28.6555 23.28Z" fill="#393E47"/>
</svg>
