<svg width="32" height="33" viewBox="0 0 32 33" fill="none" xmlns="http://www.w3.org/2000/svg">
<path fill-rule="evenodd" clip-rule="evenodd" d="M20.63 23.6533L8.35003 11.3733C7.53869 11.6897 6.66229 11.8028 5.7972 11.7029C4.93212 11.603 4.1046 11.293 3.38676 10.8C2.66892 10.307 2.08255 9.64586 1.67875 8.8743C1.27495 8.10274 1.06597 7.24413 1.07003 6.3733C1.06596 5.94075 1.1232 5.5098 1.24003 5.0933C1.40545 5.76397 1.79083 6.35986 2.33462 6.78584C2.87842 7.21181 3.54926 7.44328 4.24003 7.4433C5.08872 7.4433 5.90265 7.10616 6.50277 6.50604C7.10288 5.90593 7.44003 5.09199 7.44003 4.2433C7.44001 3.55253 7.20853 2.88169 6.78256 2.3379C6.35659 1.79411 5.76069 1.40873 5.09003 1.2433C5.51618 1.12363 5.95744 1.06637 6.40003 1.0733C7.27086 1.06924 8.12947 1.27822 8.90103 1.68202C9.67259 2.08582 10.3337 2.67219 10.8267 3.39003C11.3197 4.10787 11.6297 4.93539 11.7296 5.80048C11.8296 6.66557 11.7164 7.54197 11.4 8.3533L23.65 20.6333C24.4614 20.3169 25.3378 20.2038 26.2028 20.3037C27.0679 20.4036 27.8955 20.7136 28.6133 21.2066C29.3311 21.6996 29.9175 22.3607 30.3213 23.1323C30.7251 23.9039 30.9341 24.7625 30.93 25.6333C30.9341 26.0659 30.8769 26.4968 30.76 26.9133C30.5946 26.2426 30.2092 25.6467 29.6654 25.2208C29.1216 24.7948 28.4508 24.5633 27.76 24.5633C26.9113 24.5633 26.0974 24.9004 25.4973 25.5006C24.8972 26.1007 24.56 26.9146 24.56 27.7633C24.56 28.4541 24.7915 29.1249 25.2175 29.6687C25.6435 30.2125 26.2394 30.5979 26.91 30.7633C26.4935 30.8801 26.0626 30.9374 25.63 30.9333C24.7592 30.9374 23.9006 30.7284 23.129 30.3246C22.3575 29.9208 21.6964 29.3344 21.2033 28.6166C20.7103 27.8987 20.4003 27.0712 20.3004 26.2061C20.2005 25.341 20.3136 24.4646 20.63 23.6533Z" fill="#E8EDED"/>
<path fill-rule="evenodd" clip-rule="evenodd" d="M13.06 23.4733L8.53002 18.9433L1.69002 25.7833C1.2943 26.1822 1.07227 26.7214 1.07227 27.2833C1.07227 27.8452 1.2943 28.3844 1.69002 28.7833L3.20002 30.3133C3.59896 30.709 4.13811 30.931 4.70002 30.931C5.26193 30.931 5.80107 30.709 6.20002 30.3133L13.04 23.4733H13.06Z" fill="#80CBC9"/>
<path fill-rule="evenodd" clip-rule="evenodd" d="M30.93 3.4833L28.52 1.0733L26.81 1.6433C25.5554 2.06279 24.4155 2.768 23.48 3.7033L22.79 4.3933C22.3943 4.79225 22.1722 5.33139 22.1722 5.8933C22.1722 6.45521 22.3943 6.99436 22.79 7.3933L24.6 9.2133C24.9989 9.60901 25.5381 9.83105 26.1 9.83105C26.6619 9.83105 27.201 9.60901 27.6 9.2133L28.29 8.5233C29.2266 7.58497 29.9319 6.44145 30.35 5.1833L30.92 3.4733L30.93 3.4833Z" fill="#E8EDED"/>
<path d="M25.6 19.2033C25.0394 19.2035 24.4813 19.2775 23.94 19.4233L20.84 16.3233C20.6358 16.1441 20.371 16.0493 20.0994 16.0581C19.8278 16.067 19.5698 16.1788 19.3777 16.3709C19.1855 16.5631 19.0737 16.8211 19.0648 17.0927C19.056 17.3643 19.1508 17.6291 19.33 17.8333L22.9 21.4033C23.0458 21.5503 23.2315 21.6513 23.4341 21.694C23.6367 21.7366 23.8473 21.719 24.04 21.6433C25.0598 21.2437 26.1942 21.2514 27.2085 21.6645C28.2229 22.0777 29.0397 22.8649 29.49 23.8633C28.7008 23.5108 27.8231 23.4062 26.9731 23.5633C26.1231 23.7203 25.3408 24.1317 24.7296 24.7429C24.1184 25.3541 23.7071 26.1364 23.55 26.9864C23.393 27.8364 23.4976 28.714 23.85 29.5033C22.8395 29.0528 22.0434 28.2276 21.6293 27.2016C21.2152 26.1757 21.2154 25.0291 21.63 24.0033C21.7044 23.8104 21.7214 23.6001 21.6788 23.3978C21.6362 23.1955 21.5359 23.0098 21.39 22.8633L16 17.5133L23.69 9.8233L23.84 9.9733C24.1373 10.2711 24.4903 10.5074 24.879 10.6686C25.2676 10.8298 25.6843 10.9128 26.105 10.9128C26.5258 10.9128 26.9424 10.8298 27.3311 10.6686C27.7197 10.5074 28.0728 10.2711 28.37 9.9733L29.05 9.2833C30.1027 8.22934 30.8968 6.94576 31.37 5.5333L31.94 3.8233C32.0017 3.63533 32.01 3.43396 31.9641 3.24154C31.9182 3.04912 31.8199 2.87319 31.68 2.7333L29.27 0.313298C29.1301 0.173439 28.9542 0.075098 28.7618 0.0292C28.5694 -0.016698 28.368 -0.00835634 28.18 0.0532984L26.47 0.623298C25.0576 1.09651 23.774 1.89062 22.72 2.9433L22 3.6333C21.7022 3.93053 21.4659 4.28358 21.3047 4.67224C21.1435 5.06089 21.0605 5.47753 21.0605 5.8983C21.0605 6.31907 21.1435 6.7357 21.3047 7.12436C21.4659 7.51302 21.7022 7.86607 22 8.1633L22.15 8.3133L17.51 13.0033L12.58 8.0633C12.8326 7.11512 12.8641 6.12161 12.6722 5.15932C12.4802 4.19703 12.0699 3.29166 11.4728 2.51297C10.8758 1.73428 10.1079 1.10306 9.22842 0.667943C8.34892 0.232829 7.38127 0.00544046 6.40003 0.0032984C5.8656 0.00140278 5.33361 0.0754769 4.82003 0.223298C4.59683 0.291732 4.40215 0.43128 4.26565 0.620664C4.12915 0.810049 4.05834 1.03888 4.064 1.27226C4.06967 1.50563 4.1515 1.73076 4.29703 1.9133C4.44255 2.09584 4.64378 2.22577 4.87003 2.2833C5.31563 2.39084 5.71077 2.6482 5.9893 3.01228C6.26782 3.37636 6.41282 3.82508 6.40003 4.2833C6.39478 4.84566 6.16837 5.38335 5.76976 5.78009C5.37116 6.17682 4.83241 6.40069 4.27003 6.4033C3.8118 6.41609 3.36309 6.27109 2.99901 5.99257C2.63493 5.71404 2.37757 5.3189 2.27003 4.8733C2.20954 4.65101 2.07893 4.45418 1.89761 4.31207C1.7163 4.16996 1.49396 4.09017 1.26365 4.08455C1.03335 4.07893 0.807387 4.14779 0.619357 4.28089C0.431327 4.41399 0.291276 4.60422 0.220026 4.8233C0.0724692 5.33694 -0.0015996 5.86889 2.61922e-05 6.4033C0.000175132 7.38521 0.226256 8.35392 0.66077 9.23445C1.09528 10.115 1.72658 10.8837 2.5058 11.4812C3.28502 12.0787 4.19126 12.4888 5.1544 12.6799C6.11753 12.871 7.11172 12.838 8.06003 12.5833L11.16 15.6833C11.3618 15.8806 11.6328 15.991 11.915 15.991C12.1972 15.991 12.4682 15.8806 12.67 15.6833C12.8697 15.4828 12.9818 15.2113 12.9818 14.9283C12.9818 14.6453 12.8697 14.3738 12.67 14.1733L9.10003 10.6133C8.95709 10.475 8.77845 10.3793 8.58414 10.3369C8.38984 10.2945 8.18757 10.3071 8.00003 10.3733C6.97668 10.7855 5.8335 10.7856 4.81007 10.3737C3.78663 9.96167 2.96237 9.16955 2.51003 8.1633C3.30073 8.52083 4.1816 8.62895 5.0353 8.47327C5.889 8.3176 6.67501 7.90551 7.28862 7.29189C7.90223 6.67828 8.31432 5.89228 8.47 5.03857C8.62568 4.18487 8.51755 3.304 8.16003 2.5133C9.16628 2.96564 9.95839 3.7899 10.3704 4.81334C10.7824 5.83678 10.7822 6.97995 10.37 8.0033C10.2956 8.19619 10.2787 8.40651 10.3213 8.60882C10.3639 8.81114 10.4642 8.99678 10.61 9.1433L16 14.4933L10.8 19.6933L9.29003 18.1933C9.08586 18.0006 8.81576 17.8933 8.53503 17.8933C8.2543 17.8933 7.98419 18.0006 7.78003 18.1933L0.940026 25.0033C0.341585 25.6032 0.00550627 26.4159 0.00550627 27.2633C0.00550627 28.1106 0.341585 28.9234 0.940026 29.5233L2.45003 31.0333C3.04992 31.6317 3.86268 31.9678 4.71003 31.9678C5.55738 31.9678 6.37013 31.6317 6.97003 31.0333L13.81 24.1933C14.0097 23.9928 14.1218 23.7213 14.1218 23.4383C14.1218 23.1553 14.0097 22.8838 13.81 22.6833L12.3 21.2033L14.49 19.0033L19.42 23.9333C19.1656 24.8821 19.1327 25.8767 19.3238 26.8403C19.5149 27.8039 19.9249 28.7107 20.5222 29.4906C21.1195 30.2705 21.888 30.9027 22.7684 31.3384C23.6489 31.7741 24.6177 32.0016 25.6 32.0033C26.1345 32.0052 26.6664 31.9311 27.18 31.7833C27.4032 31.7149 27.5979 31.5753 27.7344 31.3859C27.8709 31.1965 27.9417 30.9677 27.936 30.7343C27.9304 30.501 27.8486 30.2758 27.703 30.0933C27.5575 29.9108 27.3563 29.7808 27.13 29.7233C26.6844 29.6158 26.2893 29.3584 26.0108 28.9943C25.7322 28.6302 25.5872 28.1815 25.6 27.7233C25.6027 27.1592 25.8279 26.6189 26.2268 26.2201C26.6257 25.8212 27.1659 25.5959 27.73 25.5933C28.1882 25.5805 28.637 25.7255 29.001 26.004C29.3651 26.2826 29.6225 26.6777 29.73 27.1233C29.7844 27.3504 29.9116 27.5534 30.0921 27.7015C30.2727 27.8495 30.4967 27.9344 30.73 27.9433C30.9598 27.9494 31.1847 27.8762 31.3668 27.736C31.549 27.5957 31.6772 27.397 31.73 27.1733C31.8936 26.6653 31.9845 26.1367 32 25.6033C31.9974 23.9067 31.3222 22.2804 30.1226 21.0807C28.9229 19.8811 27.2966 19.2059 25.6 19.2033ZM23.54 5.1433L24.23 4.4533C25.0515 3.63607 26.0509 3.02 27.15 2.6533L28.23 2.2933L29.71 3.7733L29.35 4.8533C28.9804 5.95341 28.3609 6.95289 27.54 7.7733L26.85 8.4633C26.647 8.65825 26.3765 8.76712 26.095 8.76712C25.8136 8.76712 25.543 8.65825 25.34 8.4633L23.54 6.6533C23.3403 6.45277 23.2282 6.18129 23.2282 5.8983C23.2282 5.6153 23.3403 5.34383 23.54 5.1433ZM5.46003 29.5533C5.25949 29.753 4.98802 29.8651 4.70503 29.8651C4.42203 29.8651 4.15056 29.753 3.95003 29.5533L2.45003 28.0033C2.25034 27.8028 2.13823 27.5313 2.13823 27.2483C2.13823 26.9653 2.25034 26.6938 2.45003 26.4933L8.54003 20.4033L11.54 23.4033L5.46003 29.5533Z" fill="#393E47"/>
</svg>
