<svg width="100" height="100" viewBox="0 0 100 100" fill="none" xmlns="http://www.w3.org/2000/svg">
<path d="M88.4832 70.4105C88.215 70.2994 87.9199 70.2703 87.6352 70.3269C87.3504 70.3835 87.0889 70.5232 86.8836 70.7285L70.8434 86.7687C70.638 86.974 70.4981 87.2356 70.4414 87.5203C70.3847 87.8051 70.4138 88.1003 70.5249 88.3685C70.636 88.6368 70.8243 88.8661 71.0657 89.0273C71.3072 89.1886 71.5911 89.2746 71.8814 89.2744H87.9217C88.1144 89.2744 88.3053 89.2365 88.4834 89.1627C88.6615 89.089 88.8233 88.9809 88.9596 88.8446C89.0959 88.7083 89.204 88.5465 89.2778 88.3684C89.3515 88.1903 89.3895 87.9994 89.3895 87.8066V71.7664C89.3894 71.4761 89.3032 71.1924 89.1419 70.9511C88.9806 70.7097 88.7514 70.5216 88.4832 70.4105ZM75.4244 86.3391L86.4535 75.31V86.3391H75.4244Z" fill="black"/>
<path d="M99.0939 46.8842C98.8258 46.773 98.5306 46.7439 98.2459 46.8005C97.9612 46.8571 97.6996 46.9969 97.4943 47.2021L93.0984 51.598V21.7092C93.0984 21.3199 92.9438 20.9466 92.6685 20.6713C92.3933 20.396 92.0199 20.2414 91.6307 20.2414H80.3531L84.4469 16.1477L84.4486 16.1457L88.3932 12.2012C89.2383 11.3561 89.7037 10.2318 89.7037 9.03652C89.7037 7.84121 89.2383 6.71738 88.3932 5.87188L83.8318 1.31055C82.9867 0.46543 81.8625 0 80.6672 0C79.4719 0 78.3478 0.46543 77.5025 1.31055L73.5561 5.25703L68.7873 10.0258L58.5719 20.2412H13.0117V5.7207C13.0117 5.52795 12.9738 5.33709 12.9 5.15901C12.8262 4.98093 12.7181 4.81913 12.5818 4.68283C12.4455 4.54654 12.2837 4.43842 12.1056 4.36466C11.9276 4.29089 11.7367 4.25293 11.5439 4.25293C5.17871 4.25332 0 9.43164 0 15.7973V78.1383C0 78.2467 0.0125 78.3521 0.0347656 78.4537C0.2375 81.1547 1.40605 83.6643 3.35898 85.5693C5.44648 87.6053 8.20215 88.7266 11.1186 88.7266H55.9697L47.5227 97.1736C47.3175 97.3789 47.1778 97.6405 47.1212 97.9252C47.0646 98.2099 47.0937 98.5049 47.2048 98.7731C47.3158 99.0413 47.5039 99.2705 47.7452 99.4318C47.9866 99.5931 48.2703 99.6792 48.5605 99.6793H98.5322C98.9215 99.6793 99.2948 99.5247 99.5701 99.2494C99.8454 98.9741 100 98.6008 100 98.2115V48.2402C100 47.9499 99.9139 47.6662 99.7526 47.4248C99.5913 47.1835 99.3621 46.9953 99.0939 46.8842ZM79.5787 3.38652C80.1787 2.78613 81.1563 2.78613 81.7563 3.38652L86.3178 7.94805C86.9182 8.54824 86.9182 9.52539 86.3178 10.1258L83.4094 13.0344L76.6699 6.29512L79.5787 3.38652ZM74.5941 8.3709L81.3334 15.11L78.6402 17.8031L71.9014 11.0641L74.5941 8.3709ZM97.0648 64.7328H94.3568C94.1641 64.7328 93.9732 64.7707 93.7951 64.8445C93.617 64.9182 93.4552 65.0264 93.3189 65.1627C93.1826 65.299 93.0745 65.4608 93.0007 65.6389C92.927 65.817 92.889 66.0078 92.8891 66.2006C92.889 66.3933 92.927 66.5842 93.0007 66.7623C93.0745 66.9404 93.1826 67.1022 93.3189 67.2385C93.4552 67.3748 93.617 67.4829 93.7951 67.5567C93.9732 67.6304 94.1641 67.6684 94.3568 67.6684H97.0648V72.0914H94.3568C93.5461 72.0914 92.8891 72.7484 92.8891 73.5592C92.8891 74.3699 93.5461 75.027 94.3568 75.027H97.0648V79.4498H94.3568C94.1641 79.4498 93.9732 79.4877 93.7951 79.5615C93.617 79.6352 93.4552 79.7433 93.3189 79.8796C93.1826 80.0159 93.0745 80.1778 93.0007 80.3559C92.927 80.5339 92.889 80.7248 92.8891 80.9176C92.889 81.1103 92.927 81.3012 93.0007 81.4793C93.0745 81.6574 93.1826 81.8192 93.3189 81.9555C93.4552 82.0918 93.617 82.1999 93.7951 82.2737C93.9732 82.3474 94.1641 82.3854 94.3568 82.3853H97.0648V86.8084H94.3568C93.9676 86.8084 93.5942 86.963 93.319 87.2383C93.0437 87.5136 92.8891 87.8869 92.8891 88.2762C92.8891 88.6654 93.0437 89.0388 93.319 89.314C93.5942 89.5893 93.9676 89.7439 94.3568 89.7439H97.0648V96.7443H52.1039L66.9297 81.9187C67.066 81.7825 67.1741 81.6206 67.2479 81.4426C67.3216 81.2645 67.3596 81.0736 67.3596 80.8809C67.3596 80.6881 67.3216 80.4972 67.2479 80.3192C67.1741 80.1411 67.066 79.9793 66.9297 79.843C66.865 79.7787 66.7945 79.7206 66.7191 79.6693C66.4367 79.4763 66.0957 79.3881 65.7551 79.4198C65.4145 79.4515 65.0957 79.6012 64.8537 79.843L58.9053 85.7914H11.1188C6.66719 85.7914 3.08359 82.316 2.94258 77.8725C2.95086 77.5953 2.9725 77.3187 3.00742 77.0436L3.00801 77.0389C3.02441 76.909 3.04414 76.7797 3.0666 76.6512L3.07441 76.6072C3.12763 76.3112 3.19655 76.0182 3.28086 75.7295C3.30234 75.6549 3.32461 75.5805 3.34824 75.5068C3.37187 75.4332 3.39707 75.3603 3.42266 75.2875C3.44043 75.2365 3.45801 75.1855 3.47715 75.135C3.51289 75.0389 3.55078 74.9438 3.58984 74.8494C3.60098 74.8223 3.61191 74.7947 3.62344 74.7676C3.67363 74.6504 3.72578 74.5346 3.78086 74.4201L3.7877 74.4055C4.93574 72.0297 7.14375 70.2584 9.79355 69.7088L9.81582 69.7039C9.9373 69.6791 10.06 69.6578 10.1834 69.6381C10.2039 69.6348 10.2244 69.6307 10.2453 69.6275C10.3573 69.611 10.4697 69.5967 10.5822 69.5846C10.6139 69.5811 10.6453 69.5762 10.6771 69.573C10.7864 69.5626 10.8959 69.5543 11.0055 69.548C11.0402 69.5459 11.075 69.5422 11.1098 69.5404C11.2544 69.5332 11.3991 69.5295 11.5439 69.5295C11.7367 69.5295 11.9276 69.4915 12.1056 69.4178C12.2837 69.344 12.4455 69.2359 12.5818 69.0996C12.7181 68.9633 12.8262 68.8015 12.9 68.6234C12.9738 68.4453 13.0117 68.2545 13.0117 68.0617V57.4193C13.0117 57.0301 12.8571 56.6567 12.5818 56.3815C12.3066 56.1062 11.9332 55.9516 11.5439 55.9516C11.1547 55.9516 10.7813 56.1062 10.5061 56.3815C10.2308 56.6567 10.0762 57.0301 10.0762 57.4193V66.6863C7.59766 66.9998 5.29707 68.1053 3.48301 69.8768C3.29396 70.0629 3.11124 70.2553 2.93516 70.4537V15.7973C2.93516 11.551 6.02617 8.0125 10.076 7.31367V51.5486C10.0823 51.9338 10.2397 52.301 10.5142 52.5711C10.7888 52.8413 11.1586 52.9927 11.5438 52.9927C11.9289 52.9927 12.2987 52.8413 12.5733 52.5711C12.8478 52.301 13.0052 51.9338 13.0115 51.5486V23.177H55.6365L47.5225 31.291C47.2507 31.567 47.099 31.9392 47.1005 32.3265C47.102 32.7138 47.2565 33.0848 47.5303 33.3587C47.8042 33.6326 48.1752 33.7872 48.5625 33.7887C48.9498 33.7902 49.3221 33.6385 49.598 33.3668L60.2178 22.7471L60.2188 22.7461L69.8252 13.1396L76.5641 19.8789L75.7734 20.6695L75.7715 20.6713L46.1762 50.267L39.4371 43.5279L45.2707 37.6943C45.5425 37.4184 45.6942 37.0462 45.6927 36.6589C45.6912 36.2715 45.5367 35.9005 45.2628 35.6266C44.989 35.3527 44.618 35.1982 44.2306 35.1967C43.8433 35.1952 43.4711 35.3468 43.1951 35.6186L36.3234 42.49C36.287 42.5267 36.2525 42.5652 36.2201 42.6055C36.2094 42.6187 36.1998 42.633 36.1896 42.6469C36.1689 42.6744 36.1486 42.7021 36.1297 42.7311C36.1189 42.7478 36.1092 42.765 36.099 42.7824C36.0719 42.8273 36.0477 42.8739 36.0266 42.9219C36.0135 42.9506 36.0014 42.9797 35.9902 43.0092C35.9863 43.0195 35.9813 43.0293 35.9775 43.0396L33.118 51.1402L31.1684 56.6635C31.1432 56.7363 31.1237 56.8109 31.1102 56.8867H26.2289C26.0362 56.8867 25.8453 56.9247 25.6672 56.9984C25.4891 57.0722 25.3273 57.1803 25.191 57.3166C25.0547 57.4529 24.9466 57.6147 24.8729 57.7928C24.7991 57.9709 24.7611 58.1617 24.7611 58.3545C24.7611 58.5472 24.7991 58.7381 24.8729 58.9162C24.9466 59.0943 25.0547 59.2561 25.191 59.3924C25.3273 59.5287 25.4891 59.6368 25.6672 59.7105C25.8453 59.7843 26.0362 59.8223 26.2289 59.8223H66.8762C67.0689 59.8223 67.2598 59.7843 67.4379 59.7106C67.616 59.6368 67.7778 59.5287 67.9141 59.3924C68.0504 59.2561 68.1585 59.0943 68.2323 58.9162C68.306 58.7381 68.344 58.5472 68.3439 58.3545C68.344 58.1617 68.306 57.9709 68.2323 57.7928C68.1585 57.6147 68.0504 57.4529 67.9141 57.3166C67.7778 57.1803 67.616 57.0721 67.4379 56.9984C67.2598 56.9246 67.0689 56.8867 66.8762 56.8867H37.7135L46.6646 53.727C46.6721 53.7242 46.6791 53.7205 46.6865 53.7178C46.7213 53.7049 46.7555 53.6904 46.7893 53.675C46.8027 53.6687 46.8162 53.6629 46.8293 53.6564C46.8645 53.6389 46.899 53.6195 46.933 53.5988C46.9439 53.5922 46.9553 53.5861 46.966 53.5793C47.0014 53.5566 47.0357 53.5318 47.0695 53.5057C47.0779 53.4992 47.0867 53.4936 47.0949 53.4869C47.1357 53.4541 47.1758 53.4187 47.2137 53.3809L77.4176 23.1771H90.1627V54.5338L69.1674 75.5293C69.0311 75.6656 68.923 75.8274 68.8492 76.0055C68.7754 76.1836 68.7375 76.3744 68.7375 76.5672C68.7375 76.7599 68.7754 76.9508 68.8492 77.1289C68.923 77.307 69.0311 77.4688 69.1674 77.6051C69.3037 77.7414 69.4655 77.8495 69.6436 77.9233C69.8217 77.997 70.0125 78.035 70.2053 78.035C70.398 78.035 70.5889 77.997 70.767 77.9233C70.9451 77.8495 71.1069 77.7414 71.2432 77.6051L71.2438 77.6045L97.0648 51.7832V64.7328ZM43.4916 51.7336L39.2873 53.2178L36.4861 50.4166L37.9703 46.2123L43.4916 51.7336Z" fill="black"/>
</svg>
