<svg width="33" height="33" viewBox="0 0 33 33" fill="none" xmlns="http://www.w3.org/2000/svg">
<path fill-rule="evenodd" clip-rule="evenodd" d="M24.1662 1.13013L26.9562 4.75013L31.2862 6.63013L28.6862 10.0601L28.5562 14.6301L24.1662 13.3401L19.7762 14.6301L19.6462 10.0601L17.0762 6.63013L21.3762 4.75013L24.1662 1.13013Z" fill="#F0D686"/>
<path d="M27.7662 15.6001C28.051 15.6002 28.333 15.5432 28.5954 15.4324C28.8578 15.3217 29.0954 15.1594 29.294 14.9552C29.4926 14.751 29.6482 14.5091 29.7516 14.2437C29.8551 13.9783 29.9042 13.6948 29.8962 13.4101L29.8162 10.5701L31.5562 8.31012C31.769 8.03551 31.9113 7.71304 31.9708 7.3708C32.0304 7.02857 32.0053 6.67696 31.8979 6.34663C31.7904 6.0163 31.6037 5.71727 31.3542 5.47561C31.1047 5.23394 30.7998 5.05697 30.4662 4.96012L27.7362 4.16012L25.2462 0.520124C25.0783 0.305898 24.835 0.163728 24.5659 0.122558C24.2969 0.0813878 24.0222 0.144313 23.7979 0.298523C23.5736 0.452733 23.4165 0.686634 23.3586 0.952603C23.3007 1.21857 23.3463 1.49662 23.4862 1.73012L26.1862 5.67012C26.3256 5.87258 26.5304 6.02089 26.7662 6.09012L29.8562 7.00012L27.8562 9.56012C27.7071 9.75488 27.6294 9.99494 27.6362 10.2401L27.7262 13.4601L26.1762 12.9101C25.9221 12.8553 25.6567 12.8949 25.4296 13.0215C25.2025 13.1482 25.0293 13.3531 24.9423 13.5981C24.8554 13.8431 24.8606 14.1114 24.957 14.3529C25.0534 14.5943 25.2344 14.7924 25.4662 14.9101L27.0162 15.4601C27.2557 15.5515 27.5098 15.599 27.7662 15.6001Z" fill="#393E47"/>
<path fill-rule="evenodd" clip-rule="evenodd" d="M30.9362 23.5301C30.9362 22.9652 30.7118 22.4234 30.3123 22.024C29.9128 21.6245 29.3711 21.4001 28.8062 21.4001H3.19616C2.63125 21.4001 2.08948 21.6245 1.69002 22.024C1.29057 22.4234 1.06616 22.9652 1.06616 23.5301V28.8601C1.06616 29.425 1.29057 29.9668 1.69002 30.3663C2.08948 30.7657 2.63125 30.9901 3.19616 30.9901H28.7962C29.3611 30.9901 29.9028 30.7657 30.3023 30.3663C30.7018 29.9668 30.9262 29.425 30.9262 28.8601V23.5301H30.9362Z" fill="#E8EDED"/>
<path fill-rule="evenodd" clip-rule="evenodd" d="M7.8162 1.13013L10.6162 4.75013L14.9362 6.63013L12.3362 10.0601L12.2062 14.6301L7.8162 13.3401L3.4262 14.6301L3.3062 10.0601L0.726196 6.63013L5.0262 4.75013L7.8162 1.13013Z" fill="#F0D686"/>
<path fill-rule="evenodd" clip-rule="evenodd" d="M15.0061 1.72013C15.0954 1.54346 15.2319 1.39502 15.4005 1.29131C15.5691 1.1876 15.7632 1.1327 15.9611 1.1327C16.1591 1.1327 16.3531 1.1876 16.5217 1.29131C16.6903 1.39502 16.8269 1.54346 16.9161 1.72013L18.7761 5.50013L23.0061 6.06013C23.2024 6.09 23.3865 6.1739 23.5379 6.30245C23.6892 6.43099 23.8018 6.59911 23.863 6.78798C23.9242 6.97686 23.9317 7.17905 23.8846 7.37193C23.8374 7.56481 23.7376 7.74077 23.5961 7.88013L20.5961 10.8201L21.2761 15.0601C21.3078 15.256 21.2844 15.4567 21.2085 15.64C21.1326 15.8233 21.0073 15.9819 20.8465 16.0981C20.6857 16.2143 20.4958 16.2835 20.298 16.298C20.1001 16.3125 19.9021 16.2717 19.7261 16.1801L15.9961 14.1801L12.2661 16.1801C12.0905 16.269 11.8937 16.3076 11.6975 16.2918C11.5012 16.276 11.3132 16.2064 11.154 16.0906C10.9948 15.9748 10.8706 15.8174 10.7951 15.6355C10.7196 15.4537 10.6958 15.2546 10.7261 15.0601L11.4361 10.9101L8.43613 7.97013C8.26637 7.83769 8.14052 7.65712 8.07501 7.45202C8.00951 7.24691 8.0074 7.02682 8.06898 6.8205C8.13055 6.61419 8.25293 6.43124 8.42012 6.29559C8.58732 6.15993 8.79156 6.07787 9.00613 6.06013L13.1761 5.45013L15.0061 1.72013Z" fill="#F0D686"/>
<path d="M4.23617 15.6001C3.95133 15.6002 3.66936 15.5432 3.40695 15.4324C3.14453 15.3217 2.907 15.1594 2.70841 14.9552C2.50982 14.751 2.35419 14.5091 2.25075 14.2437C2.14731 13.9783 2.09814 13.6948 2.10616 13.4101L2.18617 10.5701L0.446165 8.31012C0.233425 8.03551 0.0910779 7.71304 0.0315296 7.3708C-0.0280187 7.02857 -0.00296056 6.67696 0.10452 6.34663C0.212 6.0163 0.398641 5.71727 0.648175 5.47561C0.897709 5.23394 1.20256 5.05697 1.53617 4.96012L4.26617 4.16012L6.74616 0.520125C6.82127 0.394751 6.92127 0.286093 7.03998 0.20085C7.1587 0.115608 7.29362 0.0555899 7.43642 0.0244964C7.57922 -0.00659714 7.72688 -0.00810645 7.87029 0.0200615C8.0137 0.0482295 8.14982 0.105478 8.27025 0.188275C8.39068 0.271073 8.49288 0.377664 8.57053 0.501477C8.64818 0.625289 8.69965 0.763697 8.72175 0.908164C8.74386 1.05263 8.73613 1.2001 8.69905 1.34146C8.66198 1.48283 8.59633 1.6151 8.50617 1.73012L5.80617 5.67013C5.66194 5.86138 5.4577 5.99871 5.22616 6.06012L2.13617 6.97012L4.13617 9.53012C4.28527 9.72488 4.36294 9.96494 4.35616 10.2101L4.26617 13.4301L5.81616 12.8801C6.07031 12.8253 6.33571 12.8649 6.56279 12.9915C6.78986 13.1182 6.96306 13.3231 7.05004 13.5681C7.13702 13.8131 7.13182 14.0814 7.03541 14.3229C6.939 14.5643 6.75798 14.7624 6.52617 14.8801L4.97616 15.4301C4.74167 15.5307 4.49102 15.5882 4.23617 15.6001ZM28.7962 32.0601H3.19617C2.77604 32.0605 2.36001 31.9776 1.9721 31.8163C1.58419 31.6549 1.2321 31.4183 0.936165 31.1201C0.341225 30.5183 0.00713594 29.7064 0.00616514 28.8601V23.5301C0.00450206 22.6804 0.338789 21.8644 0.936165 21.2601C1.2321 20.9619 1.58419 20.7253 1.9721 20.564C2.36001 20.4026 2.77604 20.3198 3.19617 20.3201H28.7962C29.6449 20.3201 30.4588 20.6573 31.0589 21.2574C31.659 21.8575 31.9962 22.6714 31.9962 23.5201V28.8601C31.9962 29.7088 31.659 30.5228 31.0589 31.1229C30.4588 31.723 29.6449 32.0601 28.7962 32.0601ZM3.19617 22.4601C2.91238 22.4601 2.64022 22.5729 2.43956 22.7735C2.2389 22.9742 2.12616 23.2463 2.12616 23.5301V28.8601C2.12616 29.1439 2.2389 29.4161 2.43956 29.6167C2.64022 29.8174 2.91238 29.9301 3.19617 29.9301H28.7962C29.0799 29.9301 29.3521 29.8174 29.5528 29.6167C29.7534 29.4161 29.8662 29.1439 29.8662 28.8601V23.5301C29.8662 23.2463 29.7534 22.9742 29.5528 22.7735C29.3521 22.5729 29.0799 22.4601 28.7962 22.4601H3.19617Z" fill="#393E47"/>
<path d="M23.4662 27.2601H7.46617C7.31764 27.2745 7.16774 27.2577 7.02609 27.2108C6.88445 27.1638 6.7542 27.0877 6.6437 26.9874C6.5332 26.8871 6.44491 26.7648 6.38448 26.6284C6.32406 26.4919 6.29285 26.3444 6.29285 26.1951C6.29285 26.0459 6.32406 25.8983 6.38448 25.7619C6.44491 25.6254 6.5332 25.5031 6.6437 25.4028C6.7542 25.3025 6.88445 25.2265 7.02609 25.1795C7.16774 25.1325 7.31764 25.1157 7.46617 25.1301H23.4662C23.7308 25.1558 23.9764 25.2791 24.1551 25.476C24.3338 25.6729 24.4328 25.9292 24.4328 26.1951C24.4328 26.461 24.3338 26.7174 24.1551 26.9143C23.9764 27.1112 23.7308 27.2345 23.4662 27.2601ZM11.7762 17.3401C11.4665 17.3385 11.1608 17.2697 10.8803 17.1384C10.5998 17.0072 10.3511 16.8166 10.1515 16.5798C9.95179 16.3431 9.80589 16.0658 9.72383 15.7672C9.64177 15.4685 9.62551 15.1557 9.67617 14.8501L10.2962 11.2501L7.67617 8.69013C7.39249 8.41262 7.19197 8.06137 7.09724 7.676C7.0025 7.29063 7.01731 6.88645 7.13999 6.50904C7.26268 6.13164 7.48836 5.79601 7.79158 5.54C8.09481 5.28399 8.46353 5.11779 8.85617 5.06013L12.4762 4.53013L14.0962 1.25013C14.2721 0.89375 14.5442 0.593694 14.8817 0.383886C15.2192 0.174079 15.6087 0.0628891 16.0062 0.0628891C16.4036 0.0628891 16.7931 0.174079 17.1306 0.383886C17.4682 0.593694 17.7403 0.89375 17.9162 1.25013L19.5362 4.53013L23.1462 5.06013C23.5409 5.11638 23.9118 5.28227 24.2169 5.53894C24.522 5.7956 24.7489 6.13273 24.8718 6.51198C24.9948 6.89122 25.0088 7.29736 24.9123 7.68419C24.8159 8.07102 24.6128 8.42301 24.3262 8.70013L21.7062 11.2501L22.3262 14.8501C22.3855 15.2391 22.3359 15.6368 22.1829 15.9993C22.03 16.3618 21.7796 16.6748 21.4596 16.9037C21.1396 17.1326 20.7624 17.2684 20.37 17.296C19.9775 17.3236 19.5851 17.2419 19.2362 17.0601L16.0062 15.3901L12.7662 17.0601C12.4638 17.2326 12.124 17.3287 11.7762 17.3401ZM16.0062 2.19013L14.1362 5.97013C14.0593 6.12399 13.9464 6.25704 13.8071 6.35801C13.6679 6.45897 13.5063 6.52487 13.3362 6.55013L9.16617 7.16013L12.1662 10.1001C12.2897 10.2203 12.3824 10.3685 12.4364 10.5321C12.4904 10.6958 12.504 10.8701 12.4762 11.0401L11.7662 15.1901L15.4962 13.1901C15.6502 13.1087 15.8219 13.0661 15.9962 13.0661C16.1704 13.0661 16.3421 13.1087 16.4962 13.1901L20.2262 15.1901L19.5162 11.0601C19.4883 10.8901 19.502 10.7158 19.5559 10.5521C19.6099 10.3885 19.7026 10.2403 19.8262 10.1201L22.8262 7.18013L18.6662 6.56013C18.496 6.53487 18.3345 6.46897 18.1952 6.36801C18.0559 6.26704 17.9431 6.13399 17.8662 5.98013L16.0062 2.19013Z" fill="#393E47"/>
</svg>
