<svg width="100" height="100" viewBox="0 0 100 100" fill="none" xmlns="http://www.w3.org/2000/svg">
<path d="M95 90H81C79.9 90 79 89.1 79 88C79 86.9 79.9 86 81 86H95C97.76 86 100 83.76 100 81C100 78.24 97.76 76 95 76H72V42.5C72 27.28 60.02 14.82 45 14.04V12C45 9.24 42.76 7 40 7H33C30.76 7 28.86 8.48 28.24 10.5H10V5C10 2.24 7.76 0 5 0C2.24 0 0 2.24 0 5V46.8C0 49.56 2.24 51.8 5 51.8C7.76 51.8 10 49.56 10 46.8V41.5H28.24C28.88 43.52 30.78 45 33 45H40C42.76 45 45 42.76 45 40V38.26C46.74 38.88 48 40.54 48 42.5V76H19C16.24 76 14 78.24 14 81C14 83.76 16.24 86 19 86H26C27.1 86 28 86.9 28 88C28 89.1 27.1 90 26 90H5C2.24 90 0 92.24 0 95C0 97.76 2.24 100 5 100H39.5C40.32 100 41 99.32 41 98.5C41 97.68 40.32 97 39.5 97H5C3.9 97 3 96.1 3 95C3 93.9 3.9 93 5 93H26C28.76 93 31 90.76 31 88C31 85.24 28.76 83 26 83H19C17.9 83 17 82.1 17 81C17 79.9 17.9 79 19 79H95C96.1 79 97 79.9 97 81C97 82.1 96.1 83 95 83H81C78.24 83 76 85.24 76 88C76 90.76 78.24 93 81 93H95C96.1 93 97 93.9 97 95C97 96.1 96.1 97 95 97H46.5C45.68 97 45 97.68 45 98.5C45 99.32 45.68 100 46.5 100H95C97.76 100 100 97.76 100 95C100 92.24 97.76 90 95 90ZM8.5 23.7C7.68 23.7 7 24.38 7 25.2V46.8C7 47.9 6.1 48.8 5 48.8C3.9 48.8 3 47.9 3 46.8V5C3 3.9 3.9 3 5 3C6.1 3 7 3.9 7 5V18.2C7 19.02 7.68 19.7 8.5 19.7C9.32 19.7 10 19.02 10 18.2V13.5H28V38.5H10V25.2C10 24.38 9.32 23.7 8.5 23.7ZM42 40C42 41.1 41.1 42 40 42H33C31.9 42 31 41.1 31 40V12C31 10.9 31.9 10 33 10H40C41.1 10 42 10.9 42 12V40ZM55 76H51V42.5C51 38.88 48.42 35.84 45 35.16V31.12C50.64 31.86 55 36.68 55 42.52V76ZM69 76H65V49.5C65 48.68 64.32 48 63.5 48C62.68 48 62 48.68 62 49.5V76H58V42.5C58 35.02 52.3 28.84 45 28.08V24.06C54.5 24.82 62 32.8 62 42.5C62 43.32 62.68 44 63.5 44C64.32 44 65 43.32 65 42.5C65 31.14 56.16 21.82 45 21.06V17.06C58.36 17.84 69 28.96 69 42.52V76Z" fill="black"/>
</svg>
