<svg width="32" height="32" viewBox="0 0 32 32" fill="none" xmlns="http://www.w3.org/2000/svg">
<path fill-rule="evenodd" clip-rule="evenodd" d="M15.9999 1.07001C18.9528 1.07001 21.8394 1.94564 24.2946 3.58617C26.7498 5.2267 28.6635 7.55844 29.7935 10.2865C30.9235 13.0146 31.2191 16.0166 30.6431 18.9127C30.067 21.8088 28.645 24.4691 26.5571 26.5571C24.4691 28.6451 21.8088 30.0671 18.9126 30.6431C16.0165 31.2192 13.0146 30.9235 10.2865 29.7935C7.55838 28.6635 5.22663 26.7499 3.5861 24.2947C1.94558 21.8394 1.06995 18.9529 1.06995 16C1.0726 12.0411 2.64642 8.24517 5.44577 5.44583C8.24511 2.64648 12.0411 1.07266 15.9999 1.07001Z" fill="#E8EDED"/>
<path d="M16 17.07H11.73C11.4653 17.0443 11.2197 16.921 11.041 16.7242C10.8623 16.5273 10.7633 16.2709 10.7633 16.005C10.7633 15.7391 10.8623 15.4827 11.041 15.2859C11.2197 15.089 11.4653 14.9657 11.73 14.94H14.93V8.53C14.9557 8.26535 15.079 8.01974 15.2758 7.84103C15.4727 7.66232 15.7291 7.56332 15.995 7.56332C16.2609 7.56332 16.5172 7.66232 16.7141 7.84103C16.911 8.01974 17.0343 8.26535 17.06 8.53V16C17.06 16.2821 16.9486 16.5527 16.7501 16.7531C16.5516 16.9535 16.282 17.0674 16 17.07Z" fill="#393E47"/>
<path d="M16 0C12.8355 0 9.74207 0.938384 7.11088 2.69649C4.4797 4.45459 2.42894 6.95345 1.21793 9.87706C0.0069325 12.8007 -0.309921 16.0177 0.307443 19.1214C0.924806 22.2251 2.44866 25.0761 4.6863 27.3137C6.92394 29.5513 9.77487 31.0752 12.8786 31.6926C15.9823 32.3099 19.1993 31.9931 22.1229 30.7821C25.0466 29.5711 27.5454 27.5203 29.3035 24.8891C31.0616 22.2579 32 19.1645 32 16C32 11.7565 30.3143 7.68687 27.3137 4.68629C24.3131 1.68571 20.2435 0 16 0ZM17.07 29.81V27.73C17.0443 27.4653 16.921 27.2197 16.7242 27.041C16.5273 26.8623 16.2709 26.7633 16.005 26.7633C15.7391 26.7633 15.4827 26.8623 15.2859 27.041C15.089 27.2197 14.9657 27.4653 14.94 27.73V29.81C11.6456 29.5534 8.55102 28.129 6.21354 25.7933C3.87605 23.4577 2.44924 20.3642 2.19001 17.07H4.27001C4.53466 17.0443 4.78027 16.921 4.95898 16.7241C5.13769 16.5273 5.23669 16.2709 5.23669 16.005C5.23669 15.7391 5.13769 15.4827 4.95898 15.2859C4.78027 15.089 4.53466 14.9657 4.27001 14.94H2.19001C2.44665 11.6456 3.87104 8.55101 6.20669 6.21353C8.54234 3.87605 11.6358 2.44923 14.93 2.19V4.27C14.9557 4.53465 15.079 4.78026 15.2759 4.95897C15.4727 5.13768 15.7291 5.23668 15.995 5.23668C16.2609 5.23668 16.5173 5.13768 16.7142 4.95897C16.911 4.78026 17.0343 4.53465 17.06 4.27V2.19C20.3544 2.44665 23.449 3.87103 25.7865 6.20668C28.124 8.54234 29.5508 11.6358 29.81 14.93H27.73C27.4654 14.9557 27.2197 15.079 27.041 15.2759C26.8623 15.4727 26.7633 15.7291 26.7633 15.995C26.7633 16.2609 26.8623 16.5173 27.041 16.7141C27.2197 16.911 27.4654 17.0343 27.73 17.06H29.81C29.5534 20.3544 28.129 23.449 25.7933 25.7865C23.4577 28.124 20.3642 29.5508 17.07 29.81Z" fill="#393E47"/>
</svg>
