<svg width="50" height="51" viewBox="0 0 50 51" fill="none" xmlns="http://www.w3.org/2000/svg">
<path d="M39.5369 31.0183C38.5117 29.9509 37.2753 29.3802 35.9648 29.3802C34.6649 29.3802 33.4179 29.9403 32.3505 31.0077L29.0109 34.3367C28.7362 34.1888 28.4614 34.0514 28.1972 33.914C27.8167 33.7238 27.4574 33.5441 27.1509 33.3539C24.0227 31.367 21.1799 28.7778 18.4533 25.4277C17.1323 23.7579 16.2445 22.3524 15.5999 20.9257C16.4665 20.133 17.2697 19.3087 18.0517 18.5161C18.3476 18.2202 18.6435 17.9137 18.9394 17.6178C21.1588 15.3985 21.1588 12.5239 18.9394 10.3046L16.0543 7.41949C15.7267 7.09188 15.3885 6.7537 15.0715 6.41551C14.4374 5.76029 13.7716 5.08392 13.0847 4.44983C12.0595 3.43528 10.8336 2.8963 9.5443 2.8963C8.25498 2.8963 7.00793 3.43528 5.95111 4.44983L5.92998 4.47096L2.33679 8.09586C0.984057 9.44859 0.212578 11.0972 0.0434866 13.0101C-0.21015 16.096 0.698715 18.9705 1.39622 20.8517C3.10827 25.47 5.66577 29.7501 9.48089 34.3367C14.1098 39.8639 19.6792 44.2285 26.0413 47.3039C28.472 48.4558 31.7164 49.8191 35.3413 50.0516C35.5632 50.0622 35.7957 50.0728 36.0071 50.0728C38.4483 50.0728 40.4986 49.1956 42.1049 47.4519C42.1155 47.4307 42.1366 47.4201 42.1472 47.399C42.6968 46.7332 43.3309 46.1308 43.9966 45.4862C44.4511 45.0529 44.9161 44.5984 45.3705 44.1229C46.4168 43.0343 46.9663 41.7662 46.9663 40.4663C46.9663 39.1558 46.4062 37.8982 45.3388 36.8414L39.5369 31.0183ZM43.3203 42.1466C43.3097 42.1572 43.3097 42.1466 43.3203 42.1466C42.9081 42.5905 42.4854 42.9921 42.031 43.4359C41.344 44.0912 40.6465 44.7781 39.9913 45.5496C38.9239 46.6909 37.6663 47.2299 36.0177 47.2299C35.8591 47.2299 35.69 47.2299 35.5315 47.2193C32.3928 47.0186 29.4759 45.7926 27.2883 44.7464C21.3067 41.8507 16.0543 37.7397 11.6896 32.5295C8.08589 28.186 5.67634 24.1701 4.08054 19.8583C3.0977 17.2268 2.73838 15.1766 2.8969 13.2426C3.00258 12.0061 3.47815 10.981 4.35531 10.1038L7.95907 6.50006C8.47691 6.01392 9.02646 5.74972 9.56544 5.74972C10.2312 5.74972 10.7702 6.15131 11.1084 6.48949L11.1401 6.5212C11.7848 7.12358 12.3977 7.74711 13.0424 8.41291C13.37 8.75109 13.7082 9.08927 14.0464 9.43802L16.9315 12.3231C18.0517 13.4434 18.0517 14.4791 16.9315 15.5993C16.625 15.9058 16.3291 16.2122 16.0226 16.5081C15.1349 17.417 14.2894 18.2625 13.37 19.0868C13.3489 19.1079 13.3277 19.1185 13.3172 19.1396C12.4083 20.0485 12.5774 20.9362 12.7676 21.5386L12.7993 21.6337C13.5497 23.4515 14.6065 25.1635 16.2128 27.2032L16.2234 27.2137C19.1402 30.8069 22.2156 33.6075 25.608 35.7528C26.0413 36.0276 26.4851 36.2496 26.9079 36.4609C27.2883 36.6511 27.6476 36.8308 27.9541 37.021C27.9964 37.0422 28.0387 37.0739 28.0809 37.095C28.4403 37.2747 28.7784 37.3592 29.1272 37.3592C30.0043 37.3592 30.5539 36.8097 30.7336 36.63L34.3479 33.0157C34.7072 32.6564 35.2779 32.2231 35.9437 32.2231C36.5989 32.2231 37.1379 32.6352 37.4655 32.9945L37.4866 33.0157L43.3097 38.8388C44.3982 39.9167 44.3982 41.0264 43.3203 42.1466ZM27.0241 11.911C29.793 12.376 32.3082 13.6864 34.3162 15.6944C36.3241 17.7024 37.624 20.2176 38.0996 22.9865C38.2158 23.684 38.8182 24.1701 39.5052 24.1701C39.5897 24.1701 39.6637 24.1595 39.7482 24.149C40.5303 24.0221 41.0481 23.2824 40.9213 22.5003C40.3506 19.1502 38.7654 16.096 36.3453 13.6759C33.9251 11.2558 30.8709 9.67052 27.5208 9.09984C26.7388 8.97302 26.0096 9.49086 25.8722 10.2623C25.7348 11.0338 26.2421 11.7842 27.0241 11.911ZM49.9783 22.0882C49.0377 16.5716 46.4379 11.5517 42.4431 7.55688C38.4483 3.5621 33.4284 0.962321 27.9118 0.0217509C27.1404 -0.115636 26.4112 0.412775 26.2738 1.18425C26.1469 1.9663 26.6648 2.69551 27.4468 2.83289C32.3716 3.66778 36.8631 6.00335 40.4352 9.56484C44.0072 13.1369 46.3322 17.6284 47.1671 22.5532C47.2834 23.2507 47.8857 23.7368 48.5727 23.7368C48.6572 23.7368 48.7312 23.7262 48.8157 23.7157C49.5872 23.5994 50.1156 22.8596 49.9783 22.0882Z" fill="black"/>
</svg>
