<svg width="50" height="50" viewBox="0 0 50 50" fill="none" xmlns="http://www.w3.org/2000/svg">
<path d="M25 50C38.7854 50 50 38.7854 50 25C50 11.2146 38.7854 0 25 0C11.2146 0 0 11.2146 0 25C0 38.7854 11.2146 50 25 50ZM25 3.125C37.0625 3.125 46.875 12.9375 46.875 25C46.875 37.0625 37.0625 46.875 25 46.875C12.9375 46.875 3.125 37.0625 3.125 25C3.125 12.9375 12.9375 3.125 25 3.125Z" fill="black"/>
<path d="M16.45 29.4895L19.7166 28.0708L18.8 28.9895C18.5069 29.2823 18.342 29.6795 18.3417 30.0937V36.2083C18.3417 37.6083 20.0333 38.2875 21.0083 37.3125L24.2875 34.0333L31.4333 37.6062C31.6503 37.7146 31.8895 37.7709 32.1321 37.7708C32.3746 37.7707 32.6138 37.7141 32.8307 37.6056C33.0475 37.4971 33.2362 37.3395 33.3817 37.1454C33.5271 36.9514 33.6254 36.7261 33.6687 36.4875L37.7458 14.0687C37.7952 13.7949 37.7707 13.5129 37.6749 13.2518C37.579 12.9906 37.4152 12.7597 37.2004 12.5829C36.9856 12.4061 36.7276 12.2898 36.4528 12.2459C36.1781 12.202 35.8967 12.2322 35.6375 12.3333L9.14582 22.7021C8.87714 22.8071 8.64278 22.9845 8.46871 23.2145C8.29465 23.4446 8.18767 23.7183 8.15962 24.0054C8.13158 24.2925 8.18357 24.5818 8.30983 24.8412C8.4361 25.1006 8.63171 25.3199 8.87498 25.475L14.9875 29.375C15.425 29.6541 15.9771 29.6979 16.45 29.4895ZM34.1708 16.2666L30.9687 33.8812L24.6771 30.7375C24.384 30.5907 24.052 30.54 23.7285 30.5928C23.405 30.6455 23.1063 30.7989 22.875 31.0312L21.4667 32.4396V30.7458L27.7312 24.4812C28.9458 23.2666 27.5791 21.2625 26.0041 21.9437L15.9687 26.2979L13.1479 24.4979L34.1708 16.2666Z" fill="black"/>
</svg>
