<svg width="50" height="52" viewBox="0 0 50 52" fill="none" xmlns="http://www.w3.org/2000/svg">
<path d="M24.9982 0.833394C19.2352 0.832273 13.6616 2.89122 9.28332 6.63863C4.90507 10.386 2.01056 15.5751 1.1222 21.2692C0.233838 26.9633 1.41014 32.7874 4.43882 37.6904C7.46749 42.5934 12.149 46.2523 17.6385 48.0067L17.251 50.5103L24.9982 47.5034L18.521 42.2963L18.1535 44.6748C14.5423 43.4181 11.3466 41.1917 8.91654 38.2395C6.48648 35.2873 4.9158 31.7233 4.37656 27.9378C3.83732 24.1524 4.35033 20.2915 5.85938 16.7782C7.36843 13.265 9.81531 10.2348 12.932 8.01961C16.0486 5.80445 19.7148 4.4898 23.5289 4.21968C27.3431 3.94955 31.158 4.73436 34.5557 6.48814C37.9535 8.24193 40.803 10.897 42.7921 14.1626C44.7813 17.4281 45.8333 21.1781 45.833 25.0018H49.1665C49.1593 18.5942 46.6106 12.4511 42.0798 7.92019C37.5489 3.38932 31.4058 0.840673 24.9982 0.833394Z" fill="#E65A28"/>
<path d="M25.4925 8.33393C24.2991 8.26709 23.1063 8.47408 22.0052 8.93905C20.904 9.40402 19.9239 10.1147 19.1396 11.0166C18.5323 11.6785 18.1177 12.494 17.9406 13.3747C17.7636 14.2553 17.831 15.1677 18.1353 16.0128L21.4414 25.0018H27.8769V21.5815C28.143 20.111 28.7313 18.7176 29.5995 17.5012C31.3263 15.0011 32.1597 14.2093 32.1597 12.5009C32.1597 10.5883 29.6595 8.33393 25.4925 8.33393Z" fill="#8CDC3A"/>
<path d="M10.3164 32.9073C10.8552 33.9745 11.631 34.9042 12.5844 35.6254C13.5377 36.3466 14.6434 36.8402 15.8168 37.0685C16.6935 37.2632 17.6068 37.2144 18.4578 36.9274C19.3088 36.6404 20.065 36.126 20.6447 35.44L26.7768 28.0828L23.5591 22.5083L20.5972 24.2184C19.1905 24.7232 17.6895 24.9105 16.2019 24.7668C13.1733 24.5217 12.0707 24.1959 10.5915 25.0501C8.93551 26.0068 8.23296 29.2979 10.3164 32.9073Z" fill="#8CDC3A"/>
<path d="M39.1859 33.7641C39.8406 32.7639 40.2579 31.6273 40.4058 30.4411C40.5537 29.2549 40.4283 28.0505 40.0393 26.9202C39.7695 26.0634 39.2705 25.2968 38.5962 24.7033C37.9219 24.1098 37.0981 23.7121 36.214 23.5533L26.7767 21.9207L23.559 27.4953L26.5208 29.2046C27.6615 30.1705 28.5742 31.377 29.1935 32.7373C30.4953 35.4825 30.7645 36.6001 32.2437 37.4543C33.8997 38.4102 37.1024 37.3727 39.1859 33.7641Z" fill="#8CDC3A"/>
<path d="M24.9983 29.1687C27.2996 29.1687 29.1652 27.3031 29.1652 25.0018C29.1652 22.7004 27.2996 20.8348 24.9983 20.8348C22.6969 20.8348 20.8313 22.7004 20.8313 25.0018C20.8313 27.3031 22.6969 29.1687 24.9983 29.1687Z" fill="#A2E67E"/>
<path d="M24.9982 4.49427e-07C19.0978 -0.00111799 13.3873 2.08529 8.87742 5.88992C4.36752 9.69456 1.34907 14.9721 0.356343 20.7883C-0.636387 26.6046 0.460623 32.5845 3.4532 37.6697C6.44578 42.7549 11.1409 46.6173 16.7076 48.5734L16.4276 50.3819C16.4051 50.5265 16.4211 50.6745 16.4739 50.811C16.5268 50.9475 16.6147 51.0677 16.7287 51.1594C16.8428 51.2512 16.979 51.3113 17.1236 51.3336C17.2683 51.356 17.4163 51.3399 17.5527 51.287L25.2999 48.2809C25.4363 48.228 25.5564 48.14 25.648 48.0259C25.7396 47.9119 25.7996 47.7757 25.8219 47.6311C25.8442 47.4865 25.828 47.3385 25.775 47.2021C25.722 47.0658 25.634 46.9457 25.5199 46.8542L19.0436 41.6471C18.9296 41.5554 18.7934 41.4953 18.6488 41.473C18.5042 41.4506 18.3562 41.4667 18.2198 41.5197C18.0833 41.5726 17.9633 41.6606 17.8716 41.7747C17.78 41.8888 17.72 42.025 17.6977 42.1697L17.4869 43.5348C14.1243 42.1718 11.1959 39.9198 9.01532 37.0199C6.83469 34.1201 5.48399 30.6817 5.10789 27.073C4.73178 23.4643 5.34445 19.8212 6.88027 16.534C8.41608 13.2469 10.8172 10.4394 13.8264 8.41238C16.8356 6.38534 20.3395 5.21508 23.9629 5.02695C27.5863 4.83883 31.1926 5.63992 34.3955 7.34442C37.5985 9.04893 40.2774 11.5926 42.1454 14.7031C44.0134 17.8135 45 21.3735 44.9996 25.0018C44.9996 25.2228 45.0875 25.4348 45.2437 25.5911C45.4 25.7474 45.612 25.8352 45.833 25.8352H49.1666C49.3876 25.8352 49.5996 25.7474 49.7559 25.5911C49.9122 25.4348 50 25.2228 50 25.0018C49.9925 18.3732 47.356 12.0183 42.6689 7.33113C37.9818 2.64402 31.6268 0.0075001 24.9982 4.49427e-07ZM46.6506 24.1684C46.5001 20.2292 45.2778 16.4057 43.1153 13.1097C40.9529 9.81368 37.9323 7.17002 34.3788 5.46342C30.8253 3.75683 26.8736 3.05196 22.9492 3.42474C19.0248 3.79751 15.2764 5.23381 12.1078 7.57893C8.93918 9.92406 6.47034 13.0892 4.96716 16.7334C3.46398 20.3776 2.98343 24.3628 3.57725 28.2599C4.17107 32.157 5.81677 35.8182 8.33711 38.8493C10.8575 41.8804 14.1569 44.1666 17.8802 45.4616C17.9955 45.5016 18.1182 45.5158 18.2396 45.5032C18.361 45.4905 18.4782 45.4514 18.5828 45.3885C18.6874 45.3256 18.777 45.2406 18.8451 45.1393C18.9132 45.038 18.9582 44.923 18.977 44.8023L19.1245 43.8506L23.3514 47.2483L18.2953 49.211L18.4619 48.1342C18.4924 47.9379 18.4517 47.7371 18.3472 47.5681C18.2427 47.3991 18.0812 47.273 17.8919 47.2125C13.8239 45.91 10.1916 43.5157 7.39106 40.2905C4.5905 37.0653 2.72918 33.1331 2.01005 28.9227C1.29093 24.7123 1.74161 20.3852 3.31294 16.4133C4.88428 12.4415 7.51595 8.97724 10.921 6.3984C14.3261 3.81956 18.3738 2.2251 22.6229 1.78887C26.872 1.35263 31.1593 2.09138 35.0173 3.92455C38.8753 5.75772 42.156 8.61495 44.5016 12.1847C46.8472 15.7544 48.1677 19.8997 48.3191 24.1684H46.6506Z" fill="black"/>
<path d="M36.3566 22.7316L28.731 21.4132C29.0386 20.183 29.5651 19.0182 30.2853 17.9746C30.5937 17.5287 30.8729 17.137 31.1237 16.7862C32.3288 15.0977 32.993 14.1677 32.993 12.5009C32.993 10.0957 30.1253 7.50053 25.4925 7.50053C24.1787 7.43214 22.8666 7.66434 21.6561 8.17948C20.4456 8.69461 19.3686 9.4791 18.507 10.4732C17.8003 11.2462 17.3191 12.1982 17.1157 13.2256C16.9124 14.2529 16.9946 15.3164 17.3536 16.3003L20.0246 23.5633C18.8051 23.9107 17.5333 24.0372 16.2693 23.9367C15.7869 23.8971 15.3049 23.8529 14.8234 23.8042C12.7582 23.6042 11.619 23.4958 10.1747 24.3292C8.09124 25.5318 7.27785 29.3129 9.59468 33.324C10.1923 34.496 11.0494 35.5162 12.1008 36.3071C13.1521 37.0979 14.37 37.6385 15.6618 37.8877C16.0698 37.9652 16.4841 38.0045 16.8994 38.0052C17.7357 38.0157 18.5637 37.8386 19.3226 37.487C20.0815 37.1354 20.752 36.6182 21.2847 35.9734L26.2392 30.0288C27.1509 30.9102 27.8964 31.9485 28.4402 33.094C28.6727 33.5832 28.8719 34.0207 29.0502 34.4141C29.9086 36.3026 30.382 37.3426 31.8271 38.176C32.3718 38.4806 32.9874 38.6359 33.6114 38.6261C34.4073 38.6114 35.1904 38.4237 35.9065 38.076C37.6119 37.2239 39.0101 35.8627 39.9077 34.1808C40.6239 33.077 41.0789 31.8244 41.238 30.5183C41.3972 29.2122 41.2563 27.887 40.8261 26.6436C40.5098 25.6452 39.926 24.7527 39.138 24.063C38.35 23.3733 37.388 22.9128 36.3566 22.7316ZM24.9983 28.3353C24.339 28.3353 23.6944 28.1398 23.1462 27.7735C22.598 27.4072 22.1708 26.8866 21.9185 26.2775C21.6661 25.6683 21.6001 24.9981 21.7288 24.3514C21.8574 23.7048 22.1749 23.1108 22.6411 22.6446C23.1073 22.1784 23.7013 21.8609 24.3479 21.7323C24.9946 21.6036 25.6648 21.6696 26.274 21.922C26.8831 22.1743 27.4037 22.6015 27.77 23.1497C28.1363 23.6979 28.3318 24.3425 28.3318 25.0018C28.331 25.8856 27.9795 26.733 27.3545 27.358C26.7295 27.983 25.8821 28.3345 24.9983 28.3353ZM19.7721 11.5592C20.4813 10.7522 21.365 10.1174 22.3562 9.70301C23.3474 9.28858 24.4199 9.10538 25.4925 9.16732C29.2486 9.16732 31.3262 11.1383 31.3262 12.5009C31.3262 13.6343 30.8695 14.2735 29.7678 15.8178C29.5119 16.1761 29.2277 16.5737 28.9135 17.0279C28.1806 18.106 27.6132 19.2878 27.2301 20.534C26.2228 20.0267 25.073 19.8766 23.9692 20.1082C22.8654 20.3399 21.873 20.9396 21.1547 21.809L18.917 15.7253C18.6651 15.0191 18.6116 14.2574 18.7622 13.5229C18.9128 12.7884 19.2626 12.1092 19.7721 11.5592ZM20.0054 34.9058C19.5197 35.477 18.8868 35.9043 18.1754 36.1413C17.4641 36.3783 16.7014 36.4159 15.9701 36.2501C14.9166 36.0392 13.925 35.5911 13.0704 34.9398C12.2159 34.2886 11.5209 33.4513 11.0381 32.4915C9.15964 29.2379 9.82886 26.4535 11.0081 25.7727C11.9915 25.2043 12.7724 25.281 14.6617 25.4643C15.0992 25.506 15.5859 25.5535 16.1351 25.5976C17.4355 25.694 18.7429 25.5946 20.0137 25.3026C20.0826 26.4271 20.529 27.4953 21.2808 28.3343C22.0325 29.1734 23.0456 29.734 24.1557 29.9255L20.0054 34.9058ZM38.4642 33.3474C37.7253 34.7236 36.5885 35.845 35.2023 36.5651C34.8201 36.7868 34.3918 36.9171 33.9509 36.9461C33.51 36.975 33.0684 36.9016 32.6605 36.7318C31.6787 36.1651 31.3529 35.4508 30.5678 33.7232C30.3853 33.3232 30.1828 32.8782 29.947 32.3798C29.3799 31.2069 28.6405 30.1254 27.7535 29.1712C28.697 28.5526 29.4021 27.6313 29.7529 26.5589C30.1036 25.4865 30.0792 24.3267 29.6836 23.27L36.0732 24.3751C36.8103 24.5102 37.4964 24.8445 38.057 25.3418C38.6176 25.8391 39.0314 26.4804 39.2534 27.1961C39.5974 28.2139 39.7051 29.2967 39.5684 30.3624C39.4316 31.428 39.054 32.4494 38.4642 33.3474Z" fill="black"/>
</svg>
