<svg width="100" height="94" viewBox="0 0 100 94" fill="none" xmlns="http://www.w3.org/2000/svg">
<path d="M98.8434 60.2134L98.3438 58.6693L88.8086 56.2812C88.8672 55.416 88.894 54.5478 88.894 53.6712C88.894 42.5537 84.1186 31.9466 75.7934 24.5689L71.9086 28.9519C78.9819 35.2187 83.0367 44.2293 83.0367 53.6712C83.0367 54.0595 83.0315 54.4464 83.0155 54.8308L76.8241 53.2806C76.7366 47.2031 74.5735 41.3009 70.7063 36.615L66.1881 40.3443C68.8745 43.5966 70.5084 47.6066 70.8877 51.7945L64.5776 50.2152C63.8961 47.3373 62.3788 44.7777 60.2975 42.8078L69.8912 9.33847L68.8065 8.13378C64.1557 2.96562 57.3067 0 50.0184 0C42.7301 0 35.8835 2.96562 31.2325 8.13378L30.1469 9.33827L32.8514 18.7758C30.7097 19.8345 28.6699 21.0881 26.7579 22.5207C20.227 27.4035 15.3032 34.3623 12.8923 42.1113L18.4854 43.8509C21.1466 35.2914 26.9899 28.4638 34.4893 24.4906L36.2581 30.6642C33.9315 32.0551 31.8292 33.7904 30.0225 35.8111L34.3897 39.7134C35.45 38.5267 36.6428 37.4654 37.9448 36.5504L39.7393 42.8101C37.6694 44.7703 36.1565 47.314 35.4714 50.1742L29.155 51.738C29.3695 49.3265 30.0074 46.9716 31.0395 44.7816L25.7364 42.2929C24.1243 45.7285 23.2751 49.399 23.2126 53.2084L1.68155 58.538L1.17725 60.0806C-0.98564 66.6894 -0.141891 74.1027 3.49131 80.4222C7.12451 86.74 13.1065 91.1995 19.9054 92.6558L21.4921 92.9954L28.3358 85.9382C34.71 90.2253 42.2479 92.5444 50.0184 92.5444C52.7008 92.5444 55.3795 92.2714 57.9819 91.7288L56.7872 85.9946C54.577 86.4556 52.301 86.6874 50.0184 86.6874C43.634 86.6874 37.6106 84.8448 32.5036 81.6366L36.9354 77.0659C40.8075 79.2411 45.2706 80.481 50.0184 80.481V74.6238C46.8674 74.6238 43.8782 73.9249 41.1958 72.6714L45.7215 68.0015C47.1153 68.4206 48.563 68.633 50.0184 68.6318C51.4985 68.6318 52.9274 68.4173 54.2786 68.013L78.4393 93.0716L80.0262 92.736C86.8287 91.2993 92.8246 86.8552 96.4736 80.5472C100.124 74.2392 100.987 66.8281 98.8434 60.2134ZM59.6321 65.1251C62.262 62.9158 64.1243 59.8189 64.7506 56.2964L93.6914 63.5421C94.7473 68.1808 93.9434 73.2261 91.4049 77.6144C88.8651 82.0023 84.894 85.2134 80.3446 86.6095L59.6321 65.1251ZM36.6936 10.926C40.1803 7.68886 44.9503 5.85703 50.0184 5.85703C55.0887 5.85703 59.8588 7.68906 63.343 10.926L55.1239 39.6064C53.5309 39.0244 51.8106 38.7078 50.0184 38.7078C48.2262 38.7078 46.5057 39.0242 44.9129 39.6064L36.6936 10.926ZM19.6046 86.5273C15.0591 85.1196 11.0956 81.8962 8.56943 77.5017C6.04326 73.1072 5.25068 68.0603 6.32021 63.4246L35.2823 56.256C35.8987 59.7816 37.7518 62.8845 40.378 65.0999L19.6046 86.5273ZM40.9141 53.6712C40.9141 48.6496 44.9991 44.5648 50.0184 44.5648C55.0399 44.5648 59.1239 48.6496 59.1239 53.6712C59.1239 58.6908 55.0399 62.7747 50.0184 62.7747C44.9989 62.7753 40.9141 58.6908 40.9141 53.6712Z" fill="black"/>
</svg>
