<svg width="100" height="108" viewBox="0 0 100 108" fill="none" xmlns="http://www.w3.org/2000/svg">
<path d="M13.6757 27.3976H4.4018C1.97454 27.3976 0 29.3723 0 31.7994V59.8253C0 62.2523 1.97475 64.2271 4.4018 64.2271H13.6757C16.103 64.2271 18.0775 62.2523 18.0775 59.8253V31.7994C18.0777 29.3723 16.103 27.3976 13.6757 27.3976ZM14.849 59.8253C14.8487 60.1363 14.725 60.4346 14.505 60.6545C14.285 60.8745 13.9868 60.9982 13.6757 60.9986H4.4018C4.09073 60.9982 3.7925 60.8745 3.57253 60.6545C3.35257 60.4346 3.22885 60.1363 3.22852 59.8253V31.7994C3.22885 31.4883 3.35257 31.1901 3.57253 30.9701C3.7925 30.7501 4.09073 30.6264 4.4018 30.6261H13.6757C13.9868 30.6264 14.285 30.7501 14.505 30.9701C14.725 31.1901 14.8487 31.4883 14.849 31.7994V59.8253ZM99.9741 71.8926L99.5578 68.5876C99.505 68.1593 99.3678 67.7457 99.1541 67.3707C98.9404 66.9958 98.6545 66.6669 98.3129 66.4033C97.9727 66.1377 97.5832 65.9423 97.167 65.8283C96.7508 65.7143 96.3161 65.6839 95.8881 65.7391L95.6957 65.7634L93.3749 51.3247C92.0193 42.8888 84.8337 36.7658 76.2894 36.7658H64.0252C62.5063 36.7658 60.96 36.4135 59.5578 35.7489L59.5415 35.7411L59.5272 35.7344C58.4841 35.2446 57.8101 34.1977 57.8101 33.0674V29.685H59.7961C61.5154 29.685 62.914 28.2862 62.914 26.567V23.7849C62.914 22.0656 61.5152 20.6668 59.7961 20.6668H54.5866V16.1533H55.4166C56.8879 16.1533 58.0851 14.9563 58.0851 13.4848V13.3882L69.3029 14.6053C70.2196 14.7041 71.1469 14.6092 72.0245 14.3265C72.9021 14.0439 73.7105 13.5799 74.3972 12.9646C75.0832 12.3484 75.6319 11.5947 76.0077 10.7527C76.3835 9.91058 76.5779 8.99887 76.5784 8.07675C76.5779 7.15471 76.3835 6.24308 76.0077 5.40108C75.632 4.55907 75.0833 3.80551 74.3974 3.18933C73.7109 2.57371 72.9026 2.10944 72.0249 1.82667C71.1472 1.54389 70.2199 1.44896 69.3031 1.54803L58.0851 2.76512V2.6685C58.0851 1.19718 56.8881 0 55.4166 0H40.8522C39.3809 0 38.1837 1.19697 38.1837 2.6685V2.76512L26.9656 1.54803C26.0488 1.44893 25.1214 1.54385 24.2437 1.82662C23.366 2.10939 22.5576 2.57369 21.8711 3.18933C21.1852 3.80551 20.6365 4.55907 20.2608 5.40108C19.8851 6.24308 19.6906 7.15471 19.6901 8.07675C19.6906 8.99887 19.8851 9.91057 20.2609 10.7526C20.6366 11.5947 21.1853 12.3484 21.8713 12.9646C22.558 13.5799 23.3664 14.0439 24.244 14.3266C25.1216 14.6092 26.0489 14.7042 26.9656 14.6053L38.1837 13.3882V13.4848C38.1837 14.9561 39.3806 16.1533 40.8522 16.1533H41.6821V20.6668H36.4726C34.7533 20.6668 33.3545 22.0656 33.3545 23.7849V26.567C33.3545 28.2862 34.7533 29.685 36.4726 29.685H38.4587V33.0659C38.4587 34.1954 37.7844 35.2425 36.7392 35.734L36.6971 35.7539C35.2769 36.4252 33.806 36.7658 32.3254 36.7658H24.0114C23.5833 36.7658 23.1727 36.9359 22.87 37.2386C22.5672 37.5413 22.3972 37.9519 22.3972 38.3801C22.3972 38.8082 22.5672 39.2188 22.87 39.5215C23.1727 39.8242 23.5833 39.9943 24.0114 39.9943H32.3254C34.287 39.9943 36.2221 39.5496 38.0755 38.6735L38.1145 38.655C40.2848 37.6346 41.6872 35.4406 41.6872 33.0659V29.685H54.5813V33.0674C54.5813 35.4435 55.9839 37.6375 58.1548 38.6569L58.1706 38.6643C60.0066 39.5345 62.031 39.9943 64.025 39.9943H76.2892C83.2394 39.9943 89.0844 44.9748 90.1871 51.837L92.4905 66.1668L88.0943 66.7206L81.107 67.6004L79.4475 57.2746C78.9168 53.9746 76.1058 51.5735 72.7597 51.5656H72.7347C69.0971 51.5656 65.606 52.6548 62.6392 54.7153C58.994 57.2463 53.7074 58.6979 48.1346 58.6979C42.5287 58.6979 37.2219 57.2324 33.575 54.6773C30.8013 52.734 27.5353 51.6368 24.1294 51.5044C23.9175 51.4959 23.7061 51.5292 23.5071 51.6026C23.3081 51.676 23.1256 51.7878 22.9699 51.9319C22.8143 52.0759 22.6886 52.2492 22.6 52.4419C22.5114 52.6345 22.4617 52.8428 22.4538 53.0547C22.4372 53.4825 22.5912 53.8993 22.882 54.2135C23.1727 54.5278 23.5763 54.7137 24.0041 54.7304C26.7889 54.8387 29.4578 55.7347 31.7224 57.3215C35.8994 60.248 41.8813 61.9264 48.1346 61.9264C54.3497 61.9264 60.3078 60.2646 64.4807 57.367C66.9044 55.6838 69.7586 54.7941 72.7347 54.7941H72.7559C73.6009 54.7933 74.4183 55.0945 75.0608 55.6433C75.7033 56.1921 76.1286 56.9523 76.26 57.787L77.902 68.0041L77.6375 68.0374C75.8404 68.264 74.5626 69.9103 74.7887 71.7071L75.205 75.0121C75.4139 76.6706 76.8318 77.8867 78.462 77.8867C78.5982 77.8867 78.7359 77.8783 78.8745 77.8609L97.1249 75.5623C98.9223 75.3357 100.2 73.6896 99.9741 71.8926ZM58.0851 6.0125L69.6515 4.75748C70.607 4.6552 71.5263 4.9503 72.2412 5.59164C72.9561 6.23341 73.3499 7.11578 73.3499 8.07633C73.3499 9.03709 72.9561 9.91946 72.2412 10.5612C71.5263 11.203 70.6059 11.4983 69.6515 11.3952L58.0851 10.1404V6.0125ZM38.1839 10.1406L26.6175 11.3954C25.6626 11.4981 24.7427 11.2028 24.0278 10.5614C23.3129 9.91967 22.9191 9.0373 22.9191 8.07654C22.9191 7.11599 23.3129 6.23362 24.0278 5.59206C24.6494 5.03413 25.4255 4.73736 26.2452 4.73736C26.3685 4.73736 26.4928 4.74406 26.6175 4.75748L38.1839 6.0125V10.1406ZM41.4124 12.9246V3.22852H54.8565V12.9246H41.4124ZM51.3581 16.1533V20.6668H44.9109V16.1533H51.3581ZM36.5832 26.4563V23.8953H59.6855V26.4563H36.5832ZM96.7219 72.3592L78.4714 74.6577C78.4412 74.6646 78.4123 74.6397 78.4085 74.6087L77.9923 71.3037C77.9905 71.2889 77.9946 71.2739 78.0037 71.2621C78.0129 71.2503 78.0263 71.2427 78.0411 71.2408L96.2918 68.9424C96.2991 68.9412 96.3066 68.9416 96.3138 68.9435C96.3209 68.9455 96.3276 68.949 96.3333 68.9537C96.3393 68.958 96.3444 68.9636 96.348 68.97C96.3517 68.9765 96.3539 68.9837 96.3545 68.9911L96.7707 72.2961C96.7725 72.3109 96.7684 72.3259 96.7593 72.3377C96.7501 72.3495 96.7367 72.3572 96.7219 72.3592ZM94.6698 86.2845C93.3596 83.9509 92.2236 82.1298 91.663 81.252C90.2573 79.0507 89.8329 78.3863 88.8036 78.3863C87.7743 78.3863 87.3498 79.0507 85.9441 81.252C85.3835 82.1298 84.2475 83.9509 82.9376 86.2845C80.0146 91.4911 78.5328 95.1095 78.5328 97.0392C78.5328 102.703 83.1402 107.31 88.8036 107.31C94.4669 107.31 99.0745 102.703 99.0745 97.0392C99.0745 95.1097 97.5925 91.4913 94.6698 86.2845ZM88.8036 104.081C84.9205 104.081 81.7613 100.922 81.7613 97.039C81.7613 94.6522 86.4811 86.3662 88.8036 82.7506C91.1262 86.366 95.846 94.652 95.846 97.039C95.8458 100.922 92.6866 104.081 88.8036 104.081Z" fill="black"/>
</svg>
