<svg width="50" height="51" viewBox="0 0 50 51" fill="none" xmlns="http://www.w3.org/2000/svg">
<path fill-rule="evenodd" clip-rule="evenodd" d="M42.7151 7.30119C38.0149 2.59547 31.764 0.00274752 25.1045 0C11.3823 0 0.214307 11.1677 0.208812 24.8936C0.206928 29.2814 1.35312 33.5645 3.53182 37.34L0 50.2404L13.1976 46.7784C16.8341 48.7621 20.9281 49.8074 25.0944 49.8087H25.1049C38.8257 49.8087 49.9948 38.6402 50 24.9135C50.0028 18.2612 47.4157 12.0067 42.7151 7.30119ZM25.1045 45.6042H25.0959C21.3831 45.6026 17.7417 44.6049 14.5642 42.7199L13.8091 42.2713L5.97736 44.3258L8.06767 36.6901L7.57547 35.9072C5.50415 32.6126 4.41033 28.8048 4.41221 24.8951C4.41653 13.4864 13.6992 4.20465 25.1128 4.20465C30.6398 4.20646 35.8353 6.36154 39.7418 10.2728C43.6484 14.184 45.7986 19.3828 45.7968 24.912C45.792 36.3215 36.5099 45.6042 25.1045 45.6042ZM36.4546 30.1067C35.8327 29.7953 32.7743 28.2909 32.2039 28.083C31.6341 27.8754 31.2189 27.772 30.8047 28.3945C30.3898 29.017 29.1979 30.4183 28.8348 30.8332C28.4717 31.2485 28.1093 31.3005 27.4871 30.989C26.865 30.6778 24.8607 30.0206 22.4846 27.9014C20.6355 26.252 19.3872 24.215 19.0241 23.5925C18.6617 22.9694 19.021 22.6652 19.297 22.3229C19.9703 21.4867 20.6447 20.61 20.852 20.1952C21.0595 19.7799 20.9556 19.4166 20.7999 19.1053C20.6447 18.7941 19.4007 15.7322 18.8824 14.4864C18.3771 13.2739 17.8646 13.4376 17.4826 13.4187C17.1201 13.4005 16.7053 13.3969 16.2904 13.3969C15.8757 13.3969 15.2017 13.5523 14.6314 14.1754C14.0614 14.7982 12.4546 16.3029 12.4546 19.3648C12.4546 22.4266 14.6836 25.3845 14.9945 25.7996C15.3054 26.2149 19.381 32.498 25.6209 35.1922C27.105 35.8337 28.2635 36.2161 29.1672 36.5027C30.6575 36.9762 32.0132 36.9094 33.0852 36.7492C34.2805 36.5705 36.7653 35.2443 37.2841 33.7913C37.8023 32.3383 37.8023 31.093 37.6465 30.8332C37.4914 30.5738 37.0765 30.4183 36.4546 30.1067Z" fill="white"/>
</svg>
